<svg width="205" height="273" viewBox="0 0 205 273" fill="none" xmlns="http://www.w3.org/2000/svg">
<path d="M56.7868 40.6668L17.9177 59.3576L40.222 104.558C42.3429 98.0624 46.6672 74.9064 48.9364 72.4809C56.0056 64.9251 59.4085 66.1181 64.0481 64.9251L56.7868 40.6668Z" fill="#D7B55E"/>
<path d="M152.893 29.5246L144.394 52.593L155.514 55.7786C165.376 60.8688 165.588 76.1926 164.66 78.4461L186.851 42.7006L152.893 29.5246Z" fill="#D7B55E"/>
<path d="M161.479 220.416H121.711L151.139 270.126L180.17 257.4L161.479 220.416Z" fill="#D7B55E"/>
<path d="M79.1598 270.126L103.418 223.598C102.358 223.598 99.0485 226.434 94.2764 226.434C89.5043 226.434 86.9808 219.356 86.318 217.235L68.8202 220.416L43.7666 259.389L79.1598 270.126Z" fill="#D7B55E"/>
<path d="M22.2597 179.456H85.9203C86.7156 177.07 89.8971 172.298 96.2599 172.298C102.623 172.298 106.599 177.07 107.793 179.456C126.218 176.142 165.615 169.594 175.795 169.912C188.521 170.309 189.714 175.081 190.907 181.842C191.861 187.25 187.328 192.049 184.942 193.772C187.46 194.7 192.315 194.931 192.951 201.93C193.746 210.679 184.942 216.864 171.023 219.223C165.377 220.18 106.5 220.65 106.5 220.65C106.5 223.55 102.57 227.575 96.2599 227.575C89.7013 227.575 87.7761 220.709 85.9203 216.864C74.9179 218.588 49.016 225.03 33.4271 227.575C13.9409 230.756 13.362 219.223 14.3386 214.054C15.3176 208.872 17.6139 206.291 19.7238 205.484C19.1753 205.614 18.5884 205.713 20.0157 205.373C19.9935 205.355 19.971 205.337 19.9483 205.318C16.0017 205.234 8.37343 200.14 8.37343 190.193C8.37343 182.269 14.3062 179.456 22.2597 179.456Z" fill="#970000"/>
<path d="M163.069 3.68291L151.934 28.818L186.22 43.1213L200.944 18.7215L163.069 3.68291Z" fill="#970000"/>
<path d="M57.0695 40.3868L18.3153 60.5507L1.61299 24.7598C3.86647 25.1575 10.787 22.9315 18.3153 20.1939C27.0641 17.0125 40.619 13.1321 45.9214 8.62507L57.0695 40.3868Z" fill="#970000"/>
<path d="M59.6736 150.028C53.947 154.8 53.9515 169.033 55.2772 176.191H85.8732C87.1988 173.938 92.0114 171.335 95.829 171.335C99.6467 171.335 105.298 173.938 106.756 176.191L158.478 171.335C160.069 169.081 161.294 161.721 161.613 154.722C161.931 147.722 154.851 144.858 151.139 144.063L165.455 99.1253C167.046 72.0833 163.467 60.9484 151.139 55.7786C138.811 50.6088 128.869 64.5275 122.904 73.674C118.132 80.9913 107.435 118.34 102.265 138.754C99.6139 131.728 96.6574 119.407 91.8852 107.079C87.1131 94.7509 86.8974 79.0224 76.1601 72.2619C65.4229 65.5014 60.3765 62.7469 48.2352 73.674C39.906 81.1703 40.1874 97.1369 42.5734 113.044C44.9594 128.951 54.3712 137.965 59.6736 150.028Z" fill="#4B4640"/>
<path d="M60.0715 79.2415C47.9821 81.1503 52.2726 104.91 55.8517 115.249L81.9404 109.746C80.0846 99.5393 72.1608 77.3326 60.0715 79.2415Z" fill="#1F1C13"/>
<path d="M147.958 72.8786C133.815 68.0017 124.958 92.4057 122.704 102.613L147.958 110.765C153.257 101.594 157.184 76.06 147.958 72.8786Z" fill="#1F1C13"/>
<path d="M160.517 113.648L112.955 100.266L110.179 111.453L156.636 122.751L160.517 113.648Z" fill="white"/>
<path d="M128.869 130.144C122.188 129.19 110.974 127.625 106.6 125.77L102.637 139.766L149.151 142.074L152.73 132.53C147.295 132.928 135.55 131.098 128.869 130.144Z" fill="white"/>
<path d="M96.9937 124.934L99.7393 136.905L60.0713 147.642L52.5155 136.905L96.9937 124.934Z" fill="white"/>
<path d="M43.7666 118.214L89.4994 108.272L92.2831 118.214L47.7434 128.156L43.7666 118.214Z" fill="white"/>
<path d="M77.3241 157.018C66.1892 158.927 57.4626 173.341 57.4626 176.92L85.8732 178.66C86.9337 175.744 90.6924 172.298 95.4646 172.298C100.237 172.298 104.876 174.799 106.6 176.92L154.836 172.298C156.309 168.948 150.159 159.985 142.943 157.985C126.659 153.471 98.0033 153.473 77.3241 157.018Z" fill="white"/>
<path d="M86.9079 216.635C88.6595 219.81 87.7084 226.816 96.1038 226.816C97.8119 226.816 100.014 226.717 102.009 225.575M86.9079 216.635C86.9079 212.78 86.9079 206.676 86.9079 200.542M22.5032 203.651C20.4232 204.417 16.0233 205.271 14.8662 212.213C13.9467 217.73 10.7144 231.414 30.7481 229.115C40.531 227.992 54.8088 224.855 67.1879 221.808C75.0889 219.864 82.2164 217.957 86.9079 216.635M87.7084 178.094C87.2072 179.414 86.9079 181.067 86.9079 183.136C86.9079 186.992 86.9079 193.785 86.9079 200.542M87.7084 178.094C89.435 173.547 93.5585 172.955 96.1038 172.955C99.388 172.955 105.956 174.269 106.942 183.136C107.399 187.25 107.432 193.061 107.336 198.896M87.7084 178.094H57.3501M86.9079 200.542C69.6111 201.637 33.2753 204.176 22.5032 203.651C9.03798 202.994 8.41547 193.317 8.41547 187.405C8.41547 181.494 11.0428 178.094 21.5523 178.094H57.3501M67.1879 221.808L42.8996 258.344L76.3985 270.496L102.009 225.575M102.009 225.575C104.681 224.045 106.942 221.147 106.942 216.635C106.942 212.41 107.225 205.637 107.336 198.896M106.942 221.808C110.654 221.662 115.151 221.484 120.015 221.29M183.135 192.989C194.958 194.631 194.301 203.17 191.346 208.096C188.789 212.358 175.581 218.934 169.341 219.262C168.094 219.328 164.741 219.474 160.121 219.667M106.942 178.094C119.999 175.947 144.576 172.159 160.121 170.494C164.908 169.982 168.838 169.671 171.312 169.671C184.449 169.671 191.346 172.955 191.346 180.18C191.346 187.405 189.718 192.55 183.135 192.989L107.336 198.896M120.015 221.29L150.95 270.496L180.836 258.344L160.121 219.667M120.015 221.29C133.55 220.751 149.923 220.093 160.121 219.667M57.3501 178.094C54.0709 172.659 53.4861 159.687 61.3564 151.279C55.2041 144.163 42.8996 125.925 42.8996 109.898M141.461 54.9371C131.539 58.7063 123.07 70.567 120.015 79.0265C117.075 87.1712 106.786 123.144 102.009 140.113C98.6176 128.727 90.849 102.607 86.9079 89.2076C83.4871 77.5769 76.1074 69.9052 67.1879 67.9518C63.2624 67.0921 59.0386 67.34 54.7228 68.8455C40.6007 73.7718 42.8996 89.8645 42.8996 109.898M42.8996 109.898L2.50391 25.1656C19.319 19.3854 38.8491 11.5909 46.5122 8.41618L67.1879 67.9518M141.461 54.9371C143.48 54.1701 145.56 53.7381 147.666 53.7381C157.767 53.7381 165.309 64.9705 166.397 79.0265C166.651 82.3023 166.554 85.7315 166.057 89.2076C163.955 103.921 155.11 131.245 150.95 143.069C154.672 143.725 162.363 150.132 162.363 155.124C162.363 160.116 160.786 166.169 160.121 170.494M141.461 54.9371L162.116 2.50456L201.855 17.9404L166.397 79.0265M66.0466 145.427C62.1584 133.455 53.9831 107.763 52.387 100.765C50.3917 92.0163 53.7501 79.8915 61.3564 78.0497C68.9626 76.208 78.7853 94.165 81.0874 103.681C83.3896 113.196 86.195 129.312 87.7084 138.213M74.0274 108.745C76.3808 116.573 81.0874 133.425 81.0874 138.213M65.1257 111.048C67.8371 120.679 73.26 140.568 73.26 143.069M114.853 133.302C118.741 116.917 127.591 83.123 131.889 79.0265C137.261 73.9058 142.172 70.2223 148.464 72.5245C154.757 74.8267 155.495 83.575 153.222 92.9372C151.404 100.427 143.256 124.196 139.409 135.144M122.68 133.302L131.889 103.681M130.354 135.144L139.409 105.522M66.0466 168.523C64.8186 165.338 63.0994 158.199 66.0466 155.124M76.3473 163.395C74.4174 160.583 71.7155 154.363 76.3473 151.981M89.4156 159.59C87.7614 156.998 85.4455 151.087 89.4156 148.176M100.995 148.176C100.995 153.8 99.01 156.778 100.995 159.59M111.582 159.59C109.817 156.778 107.049 150.856 110.093 149.665M122.68 159.59C124.164 156.15 126.536 148.886 124.154 147.349M130.354 159.59C131.664 158.13 134.045 154.423 133.087 151.279M141.027 159.59C141.303 157.854 142.615 153.762 145.659 151.279M152.937 157.109L149.463 163.395" stroke="black" stroke-width="5" stroke-linecap="round" stroke-linejoin="round"/>
</svg>
