<svg width="234" height="163" viewBox="0 0 234 163" fill="none" xmlns="http://www.w3.org/2000/svg">
<path d="M30.7387 92.5306C33.3842 99.8794 29.6365 121.313 27.4319 131.112L40.6174 134.641C54.3848 143.19 78.923 159.818 83.4175 159.818C93.5709 159.818 95.4095 150.629 93.7441 148.963C92.4118 147.631 89.9692 144.522 88.9144 143.134C109.399 146.354 151.8 152.893 157.529 153.293C164.691 153.793 168.188 147.964 171.019 143.134C173.284 139.27 171.963 133.419 171.019 130.977C176.238 131.254 188.44 131.643 195.501 130.977C204.328 130.144 207.159 125.481 209.49 116.654C211.356 109.593 205.346 105.778 198.665 103.792C218.983 103.459 232.14 90.6737 231.474 78.3496C230.941 68.4904 219.816 67.5799 214.32 68.3571C217.096 67.1913 222.914 62.0619 223.979 50.8703C225.045 39.6787 207.547 35.7705 198.665 35.2154C204.128 33.2169 205.775 23.2244 203.661 20.3932C201.548 17.562 197.966 17.4288 191.837 17.562C185.708 17.6953 164.08 19.505 154.032 20.3932C154.822 19.8207 156.403 17.4999 156.403 12.7967C156.403 8.09347 149.299 7.16255 145.747 7.28499L113.045 15.0011C111.33 20.1452 105.035 30.8743 93.5709 32.638C79.2408 34.8426 60.9309 35.2154 45.9063 41.5415C38.925 44.4811 27.4319 83.3446 30.7387 92.5306Z" fill="#757575" stroke="black" stroke-width="5" stroke-linejoin="round"/>
<path d="M198.406 35.8324L49.0222 44.7638L42.0334 49.1731H221.152C222.01 49.7855 221.293 49.761 219.235 44.7638C217.178 39.7666 204.285 35.9549 198.406 35.8324Z" fill="#3C3C3A"/>
<path d="M191.868 102.261L33.3109 95.8378V106.861L207.477 116.047C209.741 116.047 209.952 114.163 209.741 112.478C208.86 105.423 196.89 102.996 191.868 102.261Z" fill="#3C3C3A"/>
<path d="M171.468 141.4L29.6365 124.991L28.4281 131.847C71.296 139.318 155.007 154.04 159.71 153.158C164.413 152.276 170.978 144.952 171.468 141.4Z" fill="#3C3C3A"/>
<path d="M106.461 26.2724L154.199 20.513M93.2444 32.4806C122.884 32.8481 197.697 26.6861 203.87 20.513M36.5455 62.932L221.152 59.5767M31.5703 74.5263L219.235 69.7496C222.42 69.3822 228.788 69.8231 228.788 74.5263C228.788 79.2296 228.788 77.9558 228.788 76.731L31.5703 81.7855V76.731M30.831 88.9499L228.788 86.2844M29.6365 118.707L171.468 131.847M49.0222 44.7638L198.406 35.8324C204.285 35.9549 217.178 39.7666 219.235 44.7638C221.293 49.761 222.01 49.7855 221.152 49.1731H42.0334L49.0222 44.7638ZM33.3109 95.8378L191.868 102.261C196.89 102.996 208.86 105.423 209.741 112.478C209.952 114.163 209.741 116.047 207.477 116.047L33.3109 106.861V95.8378ZM29.6365 124.991L171.468 141.4C170.978 144.952 164.413 152.276 159.71 153.158C155.007 154.04 71.296 139.318 28.4281 131.847L29.6365 124.991Z" stroke="black" stroke-width="5"/>
<path d="M2.50118 122.287C2.50118 118.377 7.49246 111.851 13.1639 113.893C13.1639 98.1742 15.6694 66.4651 15.6694 51.7283C15.6694 33.3071 35.0298 20.5159 49.0296 20.5159C57.135 20.5159 81.7445 18.6069 92.0879 17.956C87.1425 17.1806 83.8407 13.257 84.9317 7.62105C86.2904 0.602303 102.431 0.989564 109.063 7.62105C111.379 9.93761 112.824 12.8633 113.001 15.9412C113.331 21.6742 109.262 27.935 98.2352 31.7705C81.2881 37.6652 57.4066 32.0693 41.5207 47.4237C28.5831 59.9285 38.0933 122.491 25.0117 135.137C24.404 135.725 23.7475 136.204 23.0378 136.566C11.8601 142.268 2.50118 133.339 2.50118 122.287Z" fill="#D7B55E"/>
<path d="M13.1639 126.143C21.5577 124.782 16.103 115.764 13.1639 113.893M13.1639 113.893C7.49246 111.851 2.50118 118.377 2.50118 122.287C2.50118 133.339 11.8601 142.268 23.0378 136.566C23.7475 136.204 24.404 135.725 25.0117 135.137C38.0933 122.491 28.5831 59.9285 41.5207 47.4237C57.4066 32.0693 81.2881 37.6652 98.2352 31.7705C109.262 27.935 113.331 21.6742 113.001 15.9412C112.824 12.8633 111.379 9.93761 109.063 7.62105C102.431 0.989564 86.2904 0.602303 84.9317 7.62105C83.573 14.6398 89.0272 19.0029 95.9842 17.9369C102.941 16.8709 60.2294 20.5159 49.0296 20.5159C35.0298 20.5159 15.6694 33.3071 15.6694 51.7283C15.6694 66.4651 13.1639 98.1742 13.1639 113.893Z" stroke="black" stroke-width="5"/>
<circle cx="65.5665" cy="76.005" r="15.7336" fill="white"/>
<path d="M65.5664 91.7386C74.2558 91.7386 81.3 84.6945 81.3 76.005C81.3 67.3156 74.2558 60.2714 65.5664 60.2714V91.7386Z" fill="#970000"/>
<circle cx="65.5665" cy="76.0048" r="6.36665" stroke="black" stroke-width="3"/>
<circle cx="65.5665" cy="76.005" r="13.7336" stroke="black" stroke-width="4"/>
</svg>
