<svg width="189" height="177" viewBox="0 0 189 177" fill="none" xmlns="http://www.w3.org/2000/svg">
<path d="M3.07518 157.013V176.061H76.8354V153.365L185.449 150.528V121.753H157.08L155.054 93.7895L162.754 97.8421V70.6887H79.6723L76.8354 97.8421H119.795V121.753C100.747 121.483 61.516 121.105 56.9769 121.753C52.4378 122.402 48.6012 124.455 47.2503 125.401V144.854H18.8809V157.013H3.07518Z" fill="#970000"/>
<path d="M172.075 100.274V119.322H157.891V95.0055L165.186 92.1685L162.754 70.2836H78.8617L76.8354 97.4371H64.6771L59.0032 52.0462L178.56 48.8041L185.449 100.274H172.075Z" fill="white"/>
<path d="M76.8354 173.224V152.555L185.449 149.718V173.224H76.8354Z" fill="white"/>
<path d="M78.4566 4.22373L71.9721 50.7651L171.67 47.9279L162.754 1.79213L78.4566 4.22373Z" fill="#D7B55E"/>
<path d="M74.3261 51.5245L78.8864 6.49184L162.682 2.50138L172.943 48.1045M78.8864 96.5577H64.0654L60.2191 51.5245H74.3261L91.4253 50.9315L101.688 50.5756M161.364 48.506H170.454L172.943 48.1045M172.943 48.1045H180.991L186.499 100.274H175.317V122.779M78.8864 96.5577H119.929M78.8864 96.5577V69.7659H162.682V96.5577H156.411M119.929 96.5577L122.779 122.779M119.929 96.5577H156.411M122.779 122.779V145.011V158.122H101.688V174.083M122.779 122.779H159.262M122.779 122.779H74.3261M175.317 122.779H184.343L186.499 141.904L184.343 174.083H101.688M101.688 174.083H74.3261M156.411 96.5577L159.262 122.779M159.262 122.779H175.317M186.499 141.904L74.3261 145.011M74.3261 145.011V174.083M74.3261 145.011V122.779M74.3261 174.083H2.50138V158.122H19.0325V145.011H44.6841V122.779H74.3261M87.3726 13.5449L91.4253 25.2979M97.0992 13.5449L101.688 23.2716M108.447 13.5449L113.716 23.2716M117.768 11.1133L122.779 23.2716M129.116 11.1133L133.574 23.2716M141.274 11.1133L144.516 23.2716M149.785 11.1133L153.027 20.8399M156.411 11.1133L162.682 20.8399M91.4253 50.9315L84.9409 38.2668M101.688 50.5756L95.0728 38.2668M125.068 49.7647L113.716 50.1585L101.688 50.5756M113.716 50.1585L108.447 38.2668M125.068 49.7647L117.768 38.2668M149.785 48.9076L136.793 49.3581L125.068 49.7647M136.793 49.3581L129.116 38.2668M149.785 48.9076L144.516 38.2668M149.785 48.9076L161.364 48.506M161.364 48.506L153.027 38.2668M170.454 48.506L161.364 35.4298" stroke="black" stroke-width="5" stroke-linecap="round" stroke-linejoin="round"/>
</svg>
