<svg width="200" height="187" viewBox="0 0 200 187" fill="none" xmlns="http://www.w3.org/2000/svg">
<path d="M82.2209 17.8751L58.2214 39.7254C62.281 50.7102 71.4748 75.4023 75.7733 86.2916C80.0717 97.1809 91.4147 111.127 96.5489 116.739C104.429 120.798 118.113 131.138 109.802 140.022C99.4145 151.126 106.937 164.738 112.668 177.275C117.253 187.304 138.936 187.185 149.205 185.872C161.813 185.872 171.413 174.409 174.637 168.678C172.368 156.021 167.258 129.132 164.965 122.828C162.673 116.524 129.145 95.8436 112.668 86.2916C111.952 87.008 109.802 88.3188 106.937 90.6113C103.355 93.4769 96.3447 89.9621 94.9021 79.8068C93.6617 71.0757 101.206 64.4413 106.937 60.5011L82.2209 17.8751Z" fill="#D7B55E" stroke="#D7B55E"/>
<path d="M100.912 89.9647C106.503 92.5275 110.814 88.8969 112.27 86.7612C126.928 96.566 161.265 114.824 165.274 122.874C169.951 132.266 173.72 155.006 173.428 167.724C174.982 171.995 182.223 180.229 188.281 183.956C191.057 185.665 198.048 186.913 198.048 180.096C198.048 174.305 193.814 161.025 188.281 154.036C183.854 148.444 180.165 129.089 179.388 120.255C181.33 118.605 182.905 114.704 184.536 111.676C186.574 107.89 179.62 101.658 174.669 98.1632C169.718 94.6684 126.249 66.9575 115.765 63.1715C105.28 59.3855 100.912 65.7926 96.252 70.161C91.5922 74.5295 93.9221 86.7612 100.912 89.9647Z" fill="#970000"/>
<path d="M81.4057 18.5025L57.7305 38.6764C50.1278 27.8725 37.3343 23.5043 31.8879 22.6707C31.8879 22.6707 50.1842 3.43072 57.7305 2.4966C73.903 0.494702 79.8495 13.5007 81.4057 18.5025Z" fill="#970000"/>
<path d="M22.5644 35.8029L30.7336 31.2838C34.4996 34.1227 43.1091 41.0173 47.4197 45.8841C51.7303 50.7508 59.6446 73.2886 63.0629 83.9491L51.2436 88.8159L43.5958 71.956L53.3293 61.3534L42.0315 65.6988L34.5575 51.7937L43.5958 44.8412L30.7336 48.1436L22.5644 35.8029Z" fill="#970000"/>
<path d="M22.8228 24.0932C20.2154 25.3969 18.3526 27.149 30.0858 30.017C34.7574 32.2985 45.3114 41.2367 51.8299 52.4484C58.3483 63.6601 65.6821 98.8754 76.274 116.655C86.7035 137.84 116.362 138.166 124.836 138.166C131.616 138.166 137.33 144.793 135.918 147.292C126.944 143.05 124.247 155.727 133.731 157.692C147.95 160.639 149.389 150.324 147.76 143.154C146.13 135.984 135.266 132.951 124.836 130.996C114.407 129.04 92.2442 117.959 83.7702 101.663C75.2963 85.3666 58.5823 37.7265 48.2774 30.017C41.8867 25.2359 28.5808 23.3327 22.8228 24.0932Z" fill="#ECDEBA"/>
<path d="M117.01 111.995C129.081 120.253 141.434 113.328 146.022 109.005L112.557 86.5397C108.94 92.0101 104.94 103.736 117.01 111.995Z" fill="white"/>
<path d="M7.79087 40.8524C10.6393 40.3498 19.8687 37.0127 24.1274 35.4069L31.039 32.2653C33.9014 34.6389 40.9665 40.5173 46.3283 45.0412C51.69 49.5652 59.5929 73.0367 62.8742 84.2069C55.1248 87.558 37.9087 94.6371 31.039 96.1451C22.4518 98.0301 22.6613 86.5397 25.384 84.2069C27.5622 82.3407 44.8622 68.2099 53.2398 61.3777C49.4001 63.891 37.9087 69.8392 22.6613 73.5254C3.60204 78.1331 16.1686 65.5666 19.3102 63.2627C21.8235 61.4196 36.8335 50.3471 44.0244 45.0412C34.8787 46.8564 14.8281 50.5286 7.79087 50.6962C-1.00572 50.9056 4.23035 41.4808 7.79087 40.8524Z" fill="white"/>
<path d="M78.3109 90.4122C83.0208 100.111 88.2602 108.675 93.7716 113.064C101.129 118.924 109.098 123.142 116.638 126.361C125.768 130.26 134.269 132.695 140.293 134.81M140.293 134.81C142.529 134.81 148.082 134.81 152.411 134.81C157.822 134.81 159.094 132.547 162.516 132.848C165.253 133.089 167.254 132.948 167.912 132.848M130.913 156.205C133.183 158.116 136.432 159.353 140.293 158.66C142.568 158.251 144.384 157.382 145.775 156.205C152.398 150.599 149.383 138.001 140.293 134.81M32.0767 32.5351C26.4649 33.5873 12.6815 37.586 8.19204 40.1113C2.58027 43.2679 -2.33002 50.7858 8.19204 50.7858C16.6097 50.7858 35.9961 46.7278 44.6371 44.6988M62.6885 83.9319C59.9733 76.3508 57.2813 68.8286 54.6779 62.5405C52.6824 57.7208 50.7391 53.6262 48.8774 50.7858C47.428 48.5744 46.0156 46.5448 44.6371 44.6988M44.6371 44.6988C38.677 36.7177 33.3483 32.1678 28.381 31.1854C22.2648 29.9757 9.98901 22.9659 28.381 22.9659C29.1536 22.9659 29.906 22.9884 30.6391 23.0322M44.6371 44.6988C35.9961 50.6461 18.0828 63.5261 15.5575 67.4686C12.4009 72.3968 16.6097 75.8863 22.9229 73.7819C27.9735 72.0984 46.1973 65.5862 54.6779 62.5405M54.6779 62.5405C45.9123 69.671 28.381 81.4027 22.9229 86.7591C18.5358 91.0645 24.6766 96.5797 30.6391 96.229C35.4091 95.9484 53.9928 87.914 62.6885 83.9319M62.6885 83.9319C66.5179 94.6245 70.3933 105.434 74.1304 113.064C81.4485 128.005 98.8098 136.322 112.361 138.24M107.581 62.5405C107.581 62.5405 91.9733 33.1372 82.3766 17.8141C80.4302 14.7063 78.7833 12.0918 77.6377 10.2987C70.8438 -0.335046 58.698 0.127367 48.8774 6.79137C39.0568 13.4554 34.7851 19.2554 30.6391 23.0322M30.6391 23.0322C45.0916 23.8952 52.0092 33.0049 56.6577 40.1113M56.6577 40.1113C57.3869 41.226 58.0602 42.2913 58.698 43.2679C61.9447 48.2386 69.1197 71.4856 78.3109 90.4122M82.3766 17.8141L78.3109 21.3389L56.6577 40.1113M167.912 132.848C166.475 127.336 164.69 122.861 162.516 120.781C156.855 115.365 118.164 90.4122 118.164 90.4122C116.592 89.4166 112.838 87.0587 112.361 86.7591C109.321 90.0326 101.979 94.6155 96.9282 86.7591C96.3539 85.8658 95.8957 84.917 95.5478 83.9319C92.071 74.0874 99.6073 60.6112 112.361 62.5405C126.39 64.6629 176.545 99.7365 182.157 105.348C186.646 109.838 181.689 117.507 178.65 120.781C180.169 128.964 184.402 147.507 189.172 156.205C195.134 167.078 202.149 181.458 194.433 184.264C188.505 186.419 178.221 174.732 173.273 167.899M112.361 86.7591C108.508 91.0291 104.566 102.57 114.738 110.988C124.909 119.405 141.902 116.342 145.33 108.341M173.273 167.899C173.068 167.617 172.873 167.342 172.687 167.078C172.222 158.551 170.739 143.693 167.912 132.848M112.361 138.24C110.373 140.721 108.502 140.106 104.995 148.156C101.488 156.205 105.699 169.755 112.361 176.197C118.164 181.809 124.636 186.719 145.33 184.264C151.581 183.522 156.684 181.668 160.77 179.399C167.505 175.657 171.478 170.785 173.273 167.899M112.361 138.24C114.397 138.528 116.347 138.671 118.164 138.671C129.292 138.671 138.315 140.772 136.5 148.156C125.658 143.195 125.479 151.63 130.913 156.205M118.164 90.4122C118.164 90.4122 112.442 97.8597 119.36 103.165C126.279 108.47 132.161 100.854 132.161 100.854M78.3109 90.4122C78.7356 86.9826 79.2749 81.928 79.7017 76.5422M78.3109 21.3389C78.3109 28.6486 77.6377 43.2679 79.9643 53.4878C81.0944 58.4519 80.3826 67.9495 79.7017 76.5422M79.7017 76.5422L95.5478 83.9319M116.638 113.064V126.361M145.775 156.205C148.688 159.642 154.094 167.177 152.411 169.823C150.727 172.468 157.282 177.309 160.77 179.399M130.913 156.205C129.962 158.36 126.919 163.715 122.35 167.899C117.781 172.083 113.786 176.135 112.361 177.638" stroke="black" stroke-width="4"/>
<circle cx="68.391" cy="46.4236" r="3.15941" fill="#D9D9D9" stroke="black" stroke-width="3"/>
<circle cx="90.3353" cy="53.6382" r="3.15941" fill="#D9D9D9" stroke="black" stroke-width="3"/>
<circle cx="95.2608" cy="98.1196" r="3.15941" fill="#D9D9D9" stroke="black" stroke-width="3"/>
<circle cx="148.524" cy="123.07" r="3.15941" fill="#D9D9D9" stroke="black" stroke-width="3"/>
<circle cx="159.646" cy="150.425" r="3.15941" fill="#D9D9D9" stroke="black" stroke-width="3"/>
<circle cx="135.898" cy="172.971" r="3.15941" fill="#D9D9D9" stroke="black" stroke-width="3"/>
<circle cx="115.457" cy="155.085" r="3.15941" fill="#D9D9D9" stroke="black" stroke-width="3"/>
</svg>
