<svg width="197" height="182" viewBox="0 0 197 182" fill="none" xmlns="http://www.w3.org/2000/svg">
<path d="M155.479 156.058C166.057 157.925 177.257 164.458 179.746 170.681C180.755 173.204 180.742 175.267 179.746 176.765C178.287 178.962 174.717 179.947 169.168 179.392C161.723 178.662 149.895 177.617 137.765 176.765C124.042 175.801 109.931 175.083 101.343 175.348C81.1205 175.97 44.097 180.014 31.0298 175.348C17.9627 170.681 0.851104 160.414 2.09559 141.435C3.34008 122.457 2.40662 107.523 49.0749 106.901C95.7432 106.279 119.7 105.656 134.322 102.234C148.945 98.8117 155.479 93.5226 155.479 86.6779C155.479 79.8332 151.123 72.9886 142.723 72.9886L124.366 72.9886C120.944 85.4334 92.0097 84.8112 81.7427 84.5001C73.5291 84.2512 60.0679 78.5888 54.364 75.7887C54.364 83.2556 52.4972 83.5667 50.9416 79.8332C49.386 76.0998 43.7858 69.2551 43.7858 64.5883C43.7858 61.6336 42.414 52.9425 41.7233 45.2258C41.323 40.7541 41.1514 36.6095 41.608 34.0983C42.6036 28.6226 45.5488 24.7647 46.897 23.5202C40.9235 18.2933 43.5473 10.733 45.6058 7.60625C47.2223 5.47536 49.015 4.05858 50.9416 3.18254C55.543 1.09031 60.9083 2.08249 66.4624 3.79728C68.4294 4.4046 70.4202 5.10255 72.409 5.78622C80.3738 8.5241 110.366 18.7497 124.366 23.5202C124.08 20.7298 124.107 18.3673 124.396 16.3644C125.367 9.65782 129.291 6.9841 134.322 5.78622C136.302 5.3149 138.71 5.18631 141.315 5.51294C144.139 5.86702 147.196 6.75605 150.19 8.32333C153.064 9.8279 155.88 11.9575 158.379 14.839C158.801 15.3258 159.214 15.8341 159.617 16.3644C162.063 19.5858 162.943 23.4247 162.956 27.1771C162.967 30.2493 162.397 33.2636 161.631 35.8336C161.02 37.8856 160.283 39.6542 159.617 40.943C176.028 43.9963 189.27 56.4991 193.703 75.7887C194.328 78.5064 194.746 81.4073 194.914 84.5001C194.986 85.8134 195.013 87.1614 194.991 88.5446C194.645 110.676 179.214 123.775 162.634 131.206C160.364 132.224 158.072 133.135 155.795 133.948C144.775 137.885 134.089 139.536 127.789 139.88C125.057 140.029 121.642 139.956 117.783 139.721C113.528 139.463 108.733 139.009 103.713 138.44C91.0178 137.001 76.89 134.829 66.4624 133.242C62.5414 132.645 59.1436 132.131 56.5418 131.769C55.737 131.657 55.0084 131.56 54.364 131.479C46.1908 130.458 40.4331 131.986 37.4434 133.948C35.8808 134.974 35.0743 136.119 35.0743 137.08C35.0743 138.101 35.0744 139.039 35.4969 139.88C36.2329 141.344 38.2513 142.511 43.7858 143.302C45.7531 143.583 51.9888 144.293 60.5864 145.244C63.472 145.564 66.6235 145.91 69.9691 146.277C73.6871 146.685 77.6446 147.117 81.7427 147.565L82.4472 147.642C86.3681 148.071 90.4118 148.513 94.4924 148.96C99.5739 149.517 104.713 150.081 109.744 150.637C112.464 150.938 115.152 151.236 117.783 151.529C120.025 151.779 122.225 152.026 124.366 152.267C127.018 152.565 129.581 152.855 132.024 153.135C134.024 153.364 135.943 153.585 137.765 153.797C146.561 154.822 153.096 155.638 155.479 156.058Z" fill="#D7B55E"/>
<path d="M47.7607 23.5066C51.1427 24.7002 61.1059 25.9932 65.6648 26.4905L67.6541 3.86178C67.6541 3.86178 55.5196 2.25116 50.7446 3.86178C45.096 5.7671 43.4341 11.835 42.7873 13.5598C41.2953 17.5385 43.5333 22.0146 47.7607 23.5066Z" fill="#757575"/>
<path d="M149.715 47.3787C144.542 49.567 135.292 45.3065 131.313 42.9027C137.48 32.1602 128.744 25.4959 123.604 23.5066C124.102 22.1803 125.196 18.0856 125.594 12.3165C126.091 5.1051 131.313 3.86178 141.757 3.86178C150.112 3.86178 158.004 12.9796 160.905 17.5385C165.878 33.4533 156.18 44.6434 149.715 47.3787Z" fill="#757575"/>
<path d="M47.7607 23.5066C51.1427 24.7002 61.1059 25.9932 65.6648 26.4905L67.6541 3.86178C67.6541 3.86178 55.5196 2.25116 50.7446 3.86178C45.096 5.7671 43.4341 11.835 42.7873 13.5598C41.2953 17.5385 43.5333 22.0146 47.7607 23.5066Z" stroke="black"/>
<path d="M149.715 47.3787C144.542 49.567 135.292 45.3065 131.313 42.9027C137.48 32.1602 128.744 25.4959 123.604 23.5066C124.102 22.1803 125.196 18.0856 125.594 12.3165C126.091 5.1051 131.313 3.86178 141.757 3.86178C150.112 3.86178 158.004 12.9796 160.905 17.5385C165.878 33.4533 156.18 44.6434 149.715 47.3787Z" stroke="black"/>
<path d="M137.765 153.798L137.765 176.765C144.065 177.677 161.054 179.173 166.624 179.173C173.587 179.173 180.301 180.914 181.544 176.438C182.788 171.962 176.571 163.756 168.116 159.28C161.353 155.699 144.065 153.715 137.765 153.798Z" fill="#757575" stroke="black"/>
<path d="M44.2991 70.4322C47.9891 79.0422 51.5197 81.5461 51.5197 81.5461L55.9839 53.5198L41.5316 47.9848C40.7116 51.3673 40.6092 61.8222 44.2991 70.4322Z" fill="white"/>
<path d="M59.1145 43.6553L55.517 49.8744L41.0647 43.6553L41.0647 34.6722L59.1145 43.6553Z" fill="#970000"/>
<path d="M194.914 84.5001C194.746 81.4073 194.328 78.5064 193.703 75.7887C189.27 56.4991 176.028 43.9963 159.617 40.943M146.891 47.5574C150.236 47.0459 153.325 45.6088 155.795 43.9963C157.342 42.9859 158.646 41.9066 159.617 40.943M159.617 40.943C160.283 39.6542 161.02 37.8855 161.631 35.8336M124.366 23.5202C110.366 18.7496 80.3737 8.5241 72.409 5.78623C70.4201 5.10256 68.4294 4.4046 66.4623 3.79728M124.366 23.5202C126.919 24.5497 132.484 27.7333 134.322 32.2316C136.161 36.7299 135.088 41.9876 134.322 44.0542C136.607 45.9286 138.974 46.9897 141.315 47.4597M141.315 5.51295C138.71 5.18631 136.302 5.3149 134.322 5.78623C129.291 6.9841 125.367 9.65782 124.396 16.3644C124.107 18.3673 124.08 20.7298 124.366 23.5202M66.4623 3.79728C60.9082 2.08249 55.5429 1.09031 50.9416 3.18255C49.015 4.05858 47.2223 5.47536 45.6058 7.60625C43.5472 10.733 40.9235 18.2933 46.897 23.5202M46.897 23.5202C45.5488 24.7647 42.6035 28.6226 41.6079 34.0983M82.9662 31.1289C76.9046 29.3998 70.7214 27.8699 64.8141 26.6087C59.9259 25.5651 55.2267 24.7055 50.9416 24.0692C49.5469 23.8621 48.1962 23.6786 46.897 23.5202M41.6079 34.0983L60.5864 44.0542M41.6079 34.0983C41.1514 36.6096 39.9172 40.8824 40.3175 45.3542M54.3639 75.7887C54.3639 83.2556 52.4972 83.5667 50.9416 79.8332C49.386 76.0998 45.5234 68.9195 43.7858 64.5883C41.7232 59.4473 41.0083 53.0708 40.3175 45.3542M127.208 61.1659C127.558 66.6219 125.779 70.9704 124.366 72.9886C120.944 85.4334 92.0097 84.8112 81.7427 84.5001C73.5291 84.2512 60.0678 78.5888 54.3639 75.7887M54.3639 75.7887C54.3639 70.8841 54.7666 59.1894 56.5418 51.5212M60.5864 44.0542C68.5718 45.8173 87.9029 50.7745 101.343 56.4991C118.144 63.6549 114.997 67.7748 109.744 71.1218C104.178 74.6683 89.5207 75.7887 81.7427 75.7887C75.5202 75.7887 60.6022 68.3217 54.7946 64.5883M60.5864 44.0542C58.7713 46.6166 57.4693 47.5148 56.5418 51.5212M137.765 153.797C146.561 154.822 153.096 155.638 155.479 156.058C166.057 157.925 177.257 164.458 179.746 170.681C180.755 173.204 180.741 175.267 179.746 176.765C178.287 178.962 174.717 179.947 169.168 179.392C161.723 178.662 149.895 177.617 137.765 176.765C124.042 175.801 109.931 175.083 101.343 175.348C81.1204 175.97 38.2766 177.044 25.2094 172.377C12.1423 167.71 0.851073 160.414 2.09556 141.435C3.34005 122.457 2.4066 107.523 49.0749 106.901C95.7432 106.279 119.7 105.656 134.322 102.234C148.945 98.8117 155.479 93.5226 155.479 86.6779C155.479 79.8332 151.123 72.9886 142.723 72.9886C136.002 72.9886 127.685 72.9886 124.366 72.9886M56.5418 51.5212C65.8755 54.9557 74.0268 64.5883 81.7427 64.5883L94.4923 65.6868L97.9178 65.6868L101.343 65.6868C97.1568 65.363 80.9162 64.725 74.3663 59.4473C67.8165 54.1696 61.8309 51.5212 56.5418 51.5212ZM56.5418 51.5212L40.3175 45.3542M179.746 176.765C177.465 175.359 170.848 172.174 162.634 170.681C157.838 169.809 148.152 168.393 137.765 167.133M13.2959 131.206C12.3033 133.449 11.2027 135.684 11.2699 138.44C11.8921 163.952 43.7858 162.281 50.9416 162.903C52.7359 163.059 56.1927 163.234 60.5864 163.41C63.3945 163.522 66.5852 163.634 69.9691 163.741C73.7411 163.861 77.7531 163.973 81.7427 164.073C86.1368 164.182 90.5035 164.275 94.4924 164.343M11.2699 138.44L35.4968 139.88M127.208 61.1659C127.017 58.2111 126.203 54.9314 124.366 51.5211C120.423 44.198 102.314 36.6483 82.9662 31.1289M127.208 61.1659C131.544 61.079 140.569 60.9628 146.891 61.0744M137.765 176.765L137.765 167.133M137.765 167.133L137.765 153.797M124.366 165.653C126.874 165.899 129.447 166.172 132.024 166.461C133.944 166.677 135.866 166.902 137.765 167.133M137.765 153.797C135.943 153.585 134.024 153.364 132.024 153.135M50.9416 24.0692L50.9416 3.18255M66.4623 3.79728L66.0083 10.0808M64.8141 26.6087L65.1992 21.2787M69.9691 146.277C66.6235 145.91 63.4719 145.564 60.5864 145.244C51.9888 144.293 45.7531 143.583 43.7858 143.302C38.2513 142.511 36.2329 141.344 35.4968 139.88M66.4623 133.242C62.5413 132.645 59.1436 132.131 56.5418 131.769C55.737 131.657 55.0083 131.56 54.3639 131.479C46.1908 130.458 40.433 131.986 37.4433 133.948C35.8808 134.974 35.0743 136.119 35.0743 137.08C35.0743 138.101 35.0743 139.039 35.4968 139.88M37.4433 133.948L13.2959 131.206M13.2959 131.206C19.0752 118.144 42.2576 116.129 56.5418 115.169M132.024 166.461L132.024 153.135M117.783 151.529C120.025 151.779 122.225 152.026 124.366 152.267C127.018 152.565 129.581 152.855 132.024 153.135M124.366 165.653L124.366 152.267M124.366 165.653C122.103 165.432 119.893 165.233 117.783 165.063M117.783 151.529L117.783 165.063M94.4924 148.96C99.5739 149.517 104.713 150.081 109.744 150.637C112.464 150.938 115.152 151.236 117.783 151.529M94.4924 164.343C98.8231 164.416 102.708 164.458 105.699 164.458C106.915 164.458 108.273 164.491 109.744 164.553C112.156 164.653 114.876 164.83 117.783 165.063M109.744 164.553L109.744 150.637M94.4924 148.96L94.4924 164.343M69.9691 146.277C73.687 146.685 77.6445 147.117 81.7427 147.565C85.883 148.018 90.1669 148.486 94.4924 148.96M81.7427 164.073L81.7427 147.565M69.9691 146.277L69.9691 163.741M60.5864 163.41L60.5864 145.244M56.5418 115.169C57.9726 115.073 59.3286 115.015 60.5864 114.99C62.3819 114.99 64.3528 114.987 66.4623 114.981M56.5418 115.169L56.5418 131.769M66.4623 133.242L66.4623 114.981M117.783 139.721C113.528 139.463 108.733 139.009 103.713 138.44C91.0178 137.001 76.8899 134.829 66.4623 133.242M171.824 75.7887C173.027 78.7969 173.77 82.3917 173.835 86.6779C173.973 95.8201 169.178 101.694 162.634 105.562C160.41 106.877 157.983 107.96 155.479 108.861C148.806 111.263 141.586 112.37 136.189 113.123C132.803 113.596 126.067 113.956 117.783 114.228C113.433 114.371 108.656 114.489 103.713 114.587C90.8959 114.839 76.9624 114.951 66.4623 114.981M103.713 138.44L103.713 114.587M117.783 114.228L117.783 139.721M162.634 131.206C160.364 132.224 158.072 133.135 155.795 133.948C144.775 137.885 134.089 139.536 127.789 139.88C125.057 140.029 121.642 139.956 117.783 139.721M155.795 133.948L155.479 108.861M162.634 105.562L162.634 131.206M162.634 131.206C179.214 123.775 194.645 110.676 194.991 88.5446C195.013 87.1614 194.986 85.8134 194.914 84.5001M173.835 84.5001L194.914 84.5001M193.703 75.7887L171.824 75.7887M146.891 61.0744C148.108 61.0958 149.225 61.1257 150.189 61.1659C151.76 61.2314 153.703 61.4896 155.795 62.0479C161.569 63.5892 168.478 67.4174 171.824 75.7887M141.315 47.4597C144.042 43.8171 146.848 34.0925 142.723 26.6087C138.597 19.1249 129.325 16.8504 124.396 16.3644M141.315 47.4597C143.21 47.84 145.088 47.8333 146.891 47.5574M146.891 61.0744L146.891 47.5574M155.795 62.0479L155.795 43.9963M69.9691 21.2787C69.6732 22.2088 70.1384 24.0692 74.3663 24.0692C78.5942 24.0692 81.8612 28.7757 82.9662 31.1289M72.409 13.1959C73.834 14.5431 77.6957 15.6183 81.7427 16.3644C86.8013 17.297 88.3264 18.9517 89.2096 21.2787C91.4484 27.1771 97.6819 20.3646 101.343 23.5202C103.215 25.1332 104.247 26.9876 105.699 27.1771M97.6819 31.1289C99.0306 31.4965 102.125 32.2316 103.713 32.2316M65.1992 21.2787C63.5684 21.7056 59.9302 22.1203 58.4243 20.3646C56.9183 18.6089 51.6676 20.5471 50.9416 21.2787M65.1992 21.2787L65.5543 16.3644M56.5418 14.014C56.9952 14.9053 58.4389 16.4206 60.5864 15.351C62.7339 14.2814 64.7931 15.5809 65.5543 16.3644M65.5543 16.3644L66.0083 10.0808M58.4243 7.60625C58.3616 8.40522 58.7063 9.9363 60.5864 9.66891C62.4665 9.40152 64.9844 9.83211 66.0083 10.0808M150.189 8.32333C146.037 9.36558 139.995 12.4329 139.598 16.3644M150.189 8.32333C147.196 6.75605 144.139 5.86703 141.315 5.51295M162.956 27.1771C162.943 23.4247 162.063 19.5858 159.617 16.3644C159.214 15.8341 158.801 15.3258 158.379 14.839C155.88 11.9575 153.064 9.8279 150.189 8.32333M141.315 5.51295C138.984 6.46339 134.322 9.06294 134.322 11.8576M158.379 14.839C156.354 16.6809 150.946 20.3646 145.515 20.3646M148.33 28.7467C151.347 29.4425 158.496 30.1026 162.956 27.1771M162.956 27.1771C162.967 30.2493 162.397 33.2636 161.631 35.8336M145.515 38.5159C149.36 39.19 157.966 39.5973 161.631 35.8336" stroke="black" stroke-width="4" stroke-linecap="round" stroke-linejoin="round"/>
<circle cx="120.785" cy="37.5397" r="14.4642" transform="rotate(-90 120.785 37.5397)" fill="white"/>
<path d="M120.785 23.0756C122.684 23.0756 124.565 23.4497 126.32 24.1766C128.075 24.9035 129.67 25.9689 131.013 27.312C132.356 28.6552 133.421 30.2497 134.148 32.0045C134.875 33.7594 135.249 35.6403 135.249 37.5397C135.249 39.4392 134.875 41.3201 134.148 43.0749C133.421 44.8298 132.356 46.4243 131.013 47.7675C129.67 49.1106 128.075 50.176 126.32 50.9029C124.565 51.6298 122.684 52.0039 120.785 52.0039L120.785 37.5397L120.785 23.0756Z" fill="#970000"/>
<circle cx="120.785" cy="37.5397" r="12.9642" transform="rotate(-90 120.785 37.5397)" stroke="black" stroke-width="3"/>
<circle cx="176.605" cy="105.785" r="3.46117" transform="rotate(-90 176.605 105.785)" fill="white" stroke="black" stroke-width="3"/>
<circle cx="135.249" cy="126.087" r="5.48948" transform="rotate(-90 135.249 126.087)" fill="white" stroke="black" stroke-width="3"/>
<circle cx="85.5059" cy="126.087" r="4.21866" transform="rotate(-90 85.5059 126.087)" fill="white" stroke="black" stroke-width="3"/>
<circle cx="39.0282" cy="124.816" r="4.21866" transform="rotate(-90 39.0282 124.816)" fill="white" stroke="black" stroke-width="3"/>
<circle cx="37.1871" cy="153.094" r="6.05973" transform="rotate(-90 37.1871 153.094)" fill="white" stroke="black" stroke-width="3"/>
<circle cx="88.4623" cy="156.024" r="4.21866" transform="rotate(-90 88.4623 156.024)" fill="white" stroke="black" stroke-width="3"/>
<path d="M166.61 60.64C166.61 57.8597 168.864 55.6055 171.644 55.6055C174.425 55.6056 176.679 57.8597 176.679 60.64C176.679 63.4204 174.425 65.6744 171.644 65.6745C168.864 65.6745 166.61 63.4204 166.61 60.64Z" fill="white" stroke="black" stroke-width="3"/>
<circle cx="120.785" cy="37.5397" r="3.23356" transform="rotate(-90 120.785 37.5397)" stroke="black" stroke-width="3"/>
</svg>
