<svg width="220" height="158" viewBox="0 0 220 158" fill="none" xmlns="http://www.w3.org/2000/svg">
<path d="M162.74 2.68553C150.043 4.04594 106.438 29.4706 106.438 29.4706C105.355 27.9815 104.27 26.6425 103.194 25.4367C99.9932 21.8519 96.8588 19.4448 93.9957 17.7751C88.7104 14.6928 84.3494 14.1232 82.2017 13.2958C77.1964 11.3675 74.7442 11.66 69.8907 13.2958C62.2321 15.877 56.1747 21.8029 56.1747 27.6263C56.1747 39.8701 49.8262 47.0349 49.8262 52.1137C49.8262 58.4623 59.8025 61.6366 64.7907 64.3574C69.7788 67.0782 70.2323 76.6011 74.3135 77.0545C78.3947 77.508 132.358 97.0072 135.985 99.2746C138.888 101.088 137.195 104.867 135.985 106.53L173.17 123.762L174.195 117.755L174.857 113.882L176.344 105.17L177.931 95.8735L179.518 86.5774C174.01 85.2554 168.066 78.5015 167.646 73.9776C167.203 69.1907 167.873 66.4863 170.034 62.0379C174.857 52.1137 185.414 52.1137 190.855 52.1137C190.228 49.4395 189.408 45.9081 188.525 42.0676C187.59 37.9984 186.585 33.5821 185.668 29.4706C184.32 23.4252 183.161 18.0386 182.693 15.3826C181.332 7.6735 175.437 1.32512 162.74 2.68553Z" fill="#636363"/>
<path d="M188.525 42.0676C187.59 37.9984 186.585 33.5821 185.668 29.4706C184.32 23.4252 183.161 18.0386 182.693 15.3826C181.332 7.6735 175.437 1.32512 162.74 2.68553C150.043 4.04594 106.438 29.4706 106.438 29.4706C105.355 27.9815 104.27 26.6425 103.194 25.4367C99.9932 21.8519 96.8588 19.4448 93.9957 17.7751C88.7104 14.6928 84.3494 14.1232 82.2017 13.2958M182.693 15.3826L143.913 22.4663M170.034 62.0379C174.857 52.1137 185.414 52.1137 190.855 52.1137C190.228 49.4395 189.408 45.9081 188.525 42.0676M170.034 62.0379L143.913 56.2386M170.034 62.0379C167.873 66.4863 167.203 69.1907 167.646 73.9776M82.2017 13.2958C77.1964 11.3675 74.7442 11.66 69.8907 13.2958C62.2321 15.877 56.1747 21.8029 56.1747 27.6263C56.1747 39.8701 49.8262 47.0349 49.8262 52.1137C49.8262 58.4623 59.8025 61.6366 64.7907 64.3574C69.7788 67.0782 70.2323 76.6011 74.3135 77.0545C78.3947 77.508 132.358 97.0072 135.985 99.2746C138.888 101.088 137.195 104.867 135.985 106.53L173.17 123.762L174.195 117.755L174.857 113.882L176.344 105.17M69.8907 13.2958L66.3547 25.4367M82.2017 13.2958L74.3135 25.4367M93.9957 17.7751L87.1734 25.4367M103.194 25.4367L97.4273 29.4706M185.668 29.4706L147.265 33.3826M188.525 42.0676L147.265 44.9812M167.646 73.9776C168.066 78.5015 174.01 85.2554 179.518 86.5774L177.931 95.8735M167.646 73.9776L137.627 64.3574M176.344 105.17L108.971 77.0545M176.344 105.17L177.931 95.8735M177.931 95.8735L127.991 71.5734M137.627 99.2746L174.857 113.882" stroke="black" stroke-width="5" stroke-linecap="round" stroke-linejoin="round"/>
<path d="M107.912 46.8242C98.3979 64.6033 84.0552 59.6385 78.9962 53.6517C78.9962 64.8966 87.7954 76.2631 103.494 75.7398C115.542 75.3382 140.843 68.752 145.663 48.8324C150.482 28.9128 142.048 17.5071 130.402 9.87675L97.7381 20.1488C103.227 26.1729 115.024 33.5344 107.912 46.8242Z" fill="#7E4841"/>
<path d="M204.821 104.548L171.915 102.33V125.623L204.821 128.211V104.548Z" fill="#7E4841"/>
<path d="M78.9962 53.6517L80.9067 52.0373L76.495 46.8164V53.6517H78.9962ZM107.912 46.8242L105.707 45.6441V45.6441L107.912 46.8242ZM97.7381 20.1488L96.9877 17.7628L93.2511 18.9379L95.8892 21.8333L97.7381 20.1488ZM130.402 9.87675L131.773 7.78457L130.782 7.13534L129.651 7.49074L130.402 9.87675ZM145.663 48.8324L148.094 49.4206V49.4206L145.663 48.8324ZM103.494 75.7398L103.578 78.2397H103.578L103.494 75.7398ZM171.915 102.33L172.083 99.8344L169.413 99.6544V102.33H171.915ZM204.821 104.548H207.322C207.322 103.232 206.302 102.141 204.989 102.053L204.821 104.548ZM204.821 128.211L204.625 130.705L207.322 130.917V128.211H204.821ZM171.915 125.623H169.413V127.935L171.719 128.117L171.915 125.623ZM78.9962 53.6517L77.0858 55.266C80.0564 58.7815 85.6243 61.9189 91.8911 61.6491C98.3698 61.3701 105.041 57.4914 110.117 48.0044L107.912 46.8242L105.707 45.6441C101.269 53.9362 96.0117 56.4646 91.6759 56.6513C87.128 56.8471 82.995 54.5087 80.9067 52.0373L78.9962 53.6517ZM107.912 46.8242L110.117 48.0044C112.084 44.3287 112.82 40.9086 112.589 37.7165C112.36 34.5388 111.187 31.7843 109.652 29.4054C108.128 27.045 106.205 24.9918 104.401 23.2098C102.507 21.3391 100.906 19.9123 99.587 18.4642L97.7381 20.1488L95.8892 21.8333C97.3141 23.3973 99.2463 25.1497 100.886 26.7689C102.615 28.4767 104.226 30.2241 105.449 32.1183C106.66 33.994 107.446 35.9483 107.6 38.0769C107.752 40.191 107.296 42.6748 105.707 45.6441L107.912 46.8242ZM97.7381 20.1488L98.4884 22.5348L131.152 12.2628L130.402 9.87675L129.651 7.49074L96.9877 17.7628L97.7381 20.1488ZM130.402 9.87675L129.031 11.9689C134.623 15.6323 139.245 20.075 141.944 25.8109C144.623 31.5061 145.531 38.7406 143.232 48.2442L145.663 48.8324L148.094 49.4206C150.614 39.0046 149.714 30.5765 146.47 23.6813C143.245 16.8269 137.827 11.7515 131.773 7.78457L130.402 9.87675ZM145.663 48.8324L143.232 48.2442C141.062 57.2135 134.249 63.3581 126.177 67.365C118.104 71.3728 109.125 73.0495 103.411 73.24L103.494 75.7398L103.578 78.2397C109.912 78.0285 119.607 76.2114 128.401 71.8457C137.197 67.4792 145.444 60.3709 148.094 49.4206L145.663 48.8324ZM103.494 75.7398L103.411 73.24C89.2157 73.7132 81.4975 63.5746 81.4975 53.6517H78.9962H76.495C76.495 66.2186 86.3752 78.8131 103.578 78.2397L103.494 75.7398ZM171.915 102.33L171.746 104.825L204.653 107.044L204.821 104.548L204.989 102.053L172.083 99.8344L171.915 102.33ZM204.821 104.548H202.32V128.211H204.821H207.322V104.548H204.821ZM204.821 128.211L205.017 125.718L172.111 123.13L171.915 125.623L171.719 128.117L204.625 130.705L204.821 128.211ZM171.915 125.623H174.416V102.33H171.915H169.413V125.623H171.915Z" fill="black"/>
<path d="M36.5611 42.496C28.1859 42.4961 26.8974 31.2218 30.4408 26.3899C33.9841 21.5581 36.239 18.3368 43.6478 19.6253C51.0566 20.9138 58.7875 24.7793 56.5327 31.5439C54.2778 38.3084 49.7681 53.126 56.5327 55.703C63.2972 58.28 65.2559 57.7719 68.7993 61.3152C72.3426 64.8586 70.7061 69.5543 76.1822 72.1313C81.6582 74.7082 116.125 85.3383 126.433 89.2037C136.741 93.0692 142.217 94.3577 141.895 98.8674C141.573 103.377 131.909 107.565 119.991 106.92C110.456 106.405 66.089 108.853 41.7151 106.92C31.4072 107.028 6.28133 101.444 2.73798 72.1313C-0.805358 42.8181 36.5611 42.496 36.5611 42.496Z" fill="#F9DA8A"/>
<path d="M41.7151 31.5439C42.7888 35.1945 43.2612 42.4959 36.5611 42.496M36.5611 42.496C28.1859 42.4961 26.8974 31.2218 30.4408 26.3899C33.9841 21.5581 36.239 18.3368 43.6478 19.6253C51.0566 20.9138 58.7875 24.7793 56.5327 31.5439C54.2778 38.3084 49.7681 53.126 56.5327 55.703C63.2972 58.28 65.2559 57.7719 68.7993 61.3152C72.3426 64.8586 70.7061 69.5543 76.1822 72.1313C81.6582 74.7082 116.125 85.3383 126.433 89.2037C136.741 93.0692 142.217 94.3577 141.895 98.8674C141.573 103.377 131.909 107.565 119.991 106.92C110.456 106.405 66.089 108.853 41.7151 106.92M36.5611 42.496C36.5611 42.496 -0.805358 42.8181 2.73798 72.1313C6.28133 101.444 31.4072 107.028 41.7151 106.92M41.7151 106.92C32.1198 103.424 24.2832 91.9165 36.5611 84.9971C48.839 78.0777 68.7993 92.9494 112.843 95.9528C112.843 95.9528 20.0082 84.9971 41.7151 106.92Z" stroke="black" stroke-width="5" stroke-linecap="round" stroke-linejoin="round"/>
<ellipse cx="73.8634" cy="49.0077" rx="18.4436" ry="14.1554" fill="white"/>
<path d="M74.3998 34.8581C84.3376 35.0761 92.3068 41.3276 92.3069 49.0076C92.3069 56.8254 84.0495 63.1629 73.8634 63.1629L74.3998 34.8581Z" fill="#970000"/>
<path d="M74.3998 34.8581C84.3376 35.0761 92.3068 41.3276 92.3069 49.0076C92.3069 56.8254 84.0495 63.1629 73.8634 63.1629L74.3998 34.8581Z" fill="#970000"/>
<path d="M74.3998 34.8581C84.3376 35.0761 92.3068 41.3276 92.3069 49.0076C92.3069 56.8254 84.0495 63.1629 73.8634 63.1629L74.3998 34.8581Z" stroke="black"/>
<path d="M73.8634 36.8533C78.5543 36.8533 82.7278 38.3148 85.6865 40.5855C88.6432 42.8548 90.3059 45.85 90.3059 49.0076C90.3059 52.1652 88.6432 55.1604 85.6865 57.4297C82.7278 59.7005 78.5544 61.162 73.8634 61.162C69.1724 61.1619 64.999 59.7005 62.0402 57.4297C59.0835 55.1604 57.4208 52.1652 57.4208 49.0076C57.4208 45.85 59.0836 42.8548 62.0402 40.5855C64.999 38.3148 69.1724 36.8533 73.8634 36.8533Z" stroke="black" stroke-width="4"/>
<circle cx="73.8635" cy="49.0079" r="3.99388" fill="white" stroke="black" stroke-width="4"/>
<circle cx="188.176" cy="137.115" r="17.7986" fill="white" stroke="black" stroke-width="5"/>
<path d="M169.542 62.0901C160.926 75.6941 179.972 86.1238 179.972 86.1238C179.972 86.1238 159.566 93.5303 169.542 111.518C166.912 103.968 181.571 103.242 188.827 103.968C210.593 106.144 207.634 111.518 207.634 111.518C207.634 111.518 220.784 104.263 216.703 95.6465C212.622 87.0302 204.308 86.8795 198.111 86.1238C200.983 80.6821 205.729 67.7127 201.739 59.3689C196.75 48.9391 178.158 48.486 169.542 62.0901Z" fill="#D7B55E"/>
<path d="M187.798 76.8247C186.92 75.7584 185.344 75.6058 184.277 76.484C183.211 77.3621 183.058 78.9384 183.936 80.0048L185.867 78.4147L187.798 76.8247ZM169.542 62.0901L171.655 63.4283L169.542 62.0901ZM201.739 59.3689L203.995 58.2897V58.2897L201.739 59.3689ZM198.111 86.1238L195.899 84.9564L194.204 88.1672L197.808 88.6066L198.111 86.1238ZM207.634 111.518L205.443 110.311L201.272 117.885L208.842 113.708L207.634 111.518ZM188.827 103.968L189.076 101.479V101.479L188.827 103.968ZM169.542 111.518L167.355 112.731C167.985 113.867 169.379 114.331 170.564 113.801C171.749 113.27 172.331 111.921 171.904 110.695L169.542 111.518ZM185.867 78.4147L183.936 80.0048C185.36 81.7335 185.173 82.37 185.19 82.2987C185.211 82.2099 185.204 82.4833 184.322 82.8582C183.512 83.2026 182.455 83.4089 181.5 83.5185C181.043 83.571 180.647 83.5973 180.369 83.6103C180.231 83.6167 180.123 83.6198 180.055 83.6213C180.02 83.622 179.995 83.6224 179.981 83.6225C179.974 83.6226 179.97 83.6226 179.968 83.6226C179.968 83.6226 179.967 83.6226 179.968 83.6226C179.968 83.6226 179.969 83.6226 179.969 83.6226C179.97 83.6226 179.97 83.6226 179.971 83.6226C179.971 83.6226 179.972 83.6226 179.972 86.1238C179.972 88.625 179.973 88.625 179.974 88.625C179.974 88.625 179.975 88.625 179.976 88.625C179.977 88.625 179.979 88.625 179.98 88.625C179.984 88.625 179.988 88.625 179.993 88.625C180.004 88.6249 180.017 88.6248 180.033 88.6247C180.064 88.6243 180.108 88.6237 180.161 88.6226C180.269 88.6203 180.418 88.6159 180.602 88.6073C180.969 88.5901 181.48 88.5561 182.071 88.4882C183.214 88.3569 184.821 88.0814 186.279 87.4621C187.664 86.8734 189.528 85.7013 190.059 83.4445C190.586 81.205 189.549 78.9505 187.798 76.8247L185.867 78.4147ZM179.972 86.1238C181.173 83.93 181.174 83.9304 181.175 83.9308C181.175 83.9308 181.175 83.9311 181.176 83.9313C181.176 83.9315 181.176 83.9316 181.176 83.9316C181.176 83.9315 181.175 83.9308 181.172 83.9295C181.168 83.9268 181.159 83.9217 181.145 83.9142C181.118 83.8991 181.075 83.8742 181.015 83.8399C180.897 83.7712 180.717 83.6646 180.486 83.522C180.025 83.2363 179.364 82.8084 178.594 82.2528C177.041 81.133 175.097 79.5355 173.427 77.5828C171.748 75.6195 170.452 73.4222 169.99 71.0975C169.545 68.8531 169.835 66.3018 171.655 63.4283L169.542 62.0901L167.429 60.7518C164.941 64.6803 164.381 68.5343 165.084 72.0716C165.77 75.5286 167.62 78.4895 169.625 80.8342C171.64 83.1893 173.919 85.0496 175.668 86.3105C176.548 86.9452 177.308 87.4383 177.855 87.7762C178.128 87.9453 178.349 88.0761 178.505 88.1668C178.583 88.2122 178.645 88.2476 178.69 88.2728C178.713 88.2854 178.731 88.2954 178.744 88.3029C178.751 88.3067 178.756 88.3098 178.761 88.3122C178.763 88.3134 178.765 88.3145 178.767 88.3154C178.767 88.3159 178.768 88.3164 178.769 88.3166C178.77 88.3172 178.771 88.3176 179.972 86.1238ZM169.542 62.0901L171.655 63.4283C175.501 57.3565 181.533 54.4647 187.112 54.2155C192.771 53.9628 197.542 56.3911 199.482 60.4481L201.739 59.3689L203.995 58.2897C200.947 51.917 193.928 48.9037 186.889 49.2181C179.772 49.5359 172.199 53.2196 167.429 60.7518L169.542 62.0901ZM201.739 59.3689L199.482 60.4481C201.121 63.8753 201.058 68.5391 200.051 73.3187C199.058 78.0259 197.243 82.4103 195.899 84.9564L198.111 86.1238L200.323 87.2913C201.851 84.3956 203.844 79.5745 204.946 74.3506C206.032 69.1992 206.346 63.2063 203.995 58.2897L201.739 59.3689ZM198.111 86.1238L197.808 88.6066C204.464 89.4183 211.064 89.5835 214.443 96.7172L216.703 95.6465L218.964 94.5758C214.18 84.4769 204.152 84.3408 198.414 83.641L198.111 86.1238ZM216.703 95.6465L214.443 96.7172C215.777 99.5338 214.499 102.37 211.895 105.08C210.657 106.37 209.28 107.441 208.195 108.198C207.656 108.573 207.201 108.863 206.885 109.056C206.727 109.152 206.605 109.224 206.526 109.27C206.487 109.293 206.458 109.31 206.441 109.319C206.432 109.324 206.427 109.327 206.424 109.329C206.423 109.329 206.422 109.33 206.422 109.33C206.423 109.33 206.423 109.329 206.423 109.329C206.424 109.329 206.424 109.329 206.424 109.329C206.425 109.328 206.425 109.328 207.634 111.518C208.842 113.708 208.843 113.708 208.843 113.707C208.844 113.707 208.845 113.706 208.845 113.706C208.847 113.705 208.848 113.705 208.85 113.704C208.853 113.702 208.857 113.699 208.862 113.697C208.872 113.691 208.886 113.684 208.902 113.674C208.934 113.656 208.979 113.631 209.035 113.598C209.146 113.534 209.303 113.441 209.497 113.323C209.884 113.086 210.424 112.741 211.055 112.302C212.307 111.429 213.964 110.148 215.503 108.546C218.453 105.475 221.711 100.375 218.964 94.5758L216.703 95.6465ZM207.634 111.518C209.825 112.725 209.827 112.721 209.829 112.718C209.829 112.716 209.831 112.713 209.832 112.71C209.835 112.705 209.838 112.7 209.841 112.695C209.846 112.685 209.852 112.674 209.858 112.663C209.869 112.64 209.882 112.616 209.894 112.589C209.92 112.536 209.948 112.475 209.976 112.406C210.032 112.269 210.092 112.099 210.143 111.899C210.245 111.496 210.312 110.969 210.24 110.355C210.089 109.056 209.371 107.76 207.973 106.621C205.372 104.499 200.003 102.572 189.076 101.479L188.827 103.968L188.578 106.457C199.417 107.541 203.451 109.388 204.812 110.498C205.396 110.973 205.298 111.157 205.272 110.934C205.263 110.857 205.269 110.767 205.294 110.667C205.307 110.618 205.324 110.565 205.348 110.508C205.359 110.479 205.373 110.448 205.389 110.416C205.397 110.4 205.405 110.383 205.414 110.365C205.418 110.357 205.423 110.348 205.428 110.339C205.43 110.334 205.433 110.33 205.435 110.325C205.436 110.323 205.438 110.319 205.439 110.318C205.441 110.315 205.443 110.311 207.634 111.518ZM188.827 103.968L189.076 101.479C185.292 101.101 179.504 101.083 174.885 102.209C172.615 102.763 170.262 103.676 168.656 105.283C167.816 106.124 167.157 107.18 166.875 108.458C166.595 109.732 166.728 111.044 167.18 112.341L169.542 111.518L171.904 110.695C171.698 110.104 171.715 109.742 171.761 109.534C171.805 109.33 171.917 109.097 172.194 108.819C172.824 108.189 174.096 107.551 176.07 107.07C179.937 106.127 185.106 106.109 188.578 106.457L188.827 103.968ZM169.542 111.518L171.729 110.305C169.455 106.204 169.026 102.929 169.434 100.353C169.845 97.7514 171.155 95.5794 172.838 93.7887C174.53 91.9888 176.534 90.648 178.153 89.749C178.955 89.3038 179.644 88.9775 180.125 88.7655C180.364 88.6597 180.551 88.583 180.672 88.5346C180.732 88.5105 180.776 88.4935 180.803 88.4836C180.816 88.4786 180.824 88.4754 180.828 88.474C180.83 88.4733 180.831 88.473 180.83 88.4732C180.83 88.4732 180.83 88.4734 180.829 88.4737C180.828 88.4739 180.827 88.4742 180.827 88.4743C180.826 88.4746 180.825 88.475 179.972 86.1238C179.119 83.7727 179.118 83.7731 179.116 83.7735C179.116 83.7737 179.114 83.7742 179.113 83.7746C179.111 83.7753 179.109 83.7762 179.106 83.7772C179.101 83.7792 179.094 83.7816 179.086 83.7845C179.071 83.7903 179.05 83.798 179.025 83.8076C178.974 83.8268 178.905 83.8536 178.819 83.8881C178.646 83.9571 178.404 84.0571 178.105 84.1889C177.508 84.4522 176.681 84.8451 175.725 85.3752C173.831 86.4271 171.356 88.0622 169.194 90.3623C167.023 92.6717 165.101 95.724 164.493 99.5706C163.88 103.441 164.641 107.838 167.355 112.731L169.542 111.518Z" fill="black"/>
<circle cx="9.74713" cy="9.74713" r="7.24713" transform="matrix(1.00049 0 0 -1.00049 178.424 146.867)" fill="white" stroke="black" stroke-width="5"/>
</svg>
