<svg width="247" height="165" viewBox="0 0 247 165" fill="none" xmlns="http://www.w3.org/2000/svg">
<path d="M158.045 61.2496H108.25C109.288 67.8888 112.545 79.9224 130.969 81.1673C149.393 82.4122 156.696 68.9262 158.045 61.2496Z" fill="white"/>
<path d="M79.5311 29.2128C103.955 21.3342 154.031 5.00981 158.947 2.74082C161.158 1.72067 168.13 1.80131 170.292 2.7408C174.141 4.41331 172.411 8.80767 170.292 14.5587C169.148 17.6664 165.78 21.063 161.766 24.1978C159.166 26.2282 156.294 28.1489 153.579 29.8099C162.411 25.0348 174.327 19.1045 181.165 17.3951C192.51 14.5587 202.437 10.7771 210.001 10.7771C215.081 10.7771 221.869 13.3369 223.198 18.8865C223.847 21.5981 223.193 25.0235 220.4 29.2128C217.262 33.9199 210.086 37.9371 201.918 41.1163C211.546 37.6782 231.178 32.8649 232.691 41.1163C233.275 44.3018 233.539 47.8515 233.334 51.32C232.874 59.0819 230.059 66.5714 223.198 68.5317L244.213 70.3391C244.213 70.3391 245.971 77.7624 244.213 84.8264C243.197 88.9096 239.046 92.3181 238.236 95.5366C238.236 95.5366 237.145 99.8528 236.945 100.593C236.415 102.558 235.531 105.933 234.493 108.865C233.742 110.987 232.691 112.876 232.691 113.829C232.691 116.665 224.701 118.083 213.31 117.611C204.197 117.232 199.113 114.932 197.71 113.829C201.807 117.926 210.001 127.727 210.001 134.156C210.001 142.192 213.31 162.519 213.31 162.519C213.31 162.519 183.056 157.53 181.165 143.16C178.801 125.197 185.892 124.701 178.801 113.829C176.219 109.869 169.749 107.038 161.766 105.039C156.949 103.832 151.581 102.928 146.184 102.263C140.325 101.539 134.431 101.097 129.172 100.85C125.262 100.667 121.702 100.593 118.767 100.593C115.007 100.593 110.95 99.6993 106.892 98.2517C103.298 96.9695 99.703 95.2528 96.3125 93.3373C91.5968 90.6732 87.2769 87.6246 83.9059 84.8264C80.3946 81.9118 77.9129 79.2687 77.0859 77.6147C74.2496 71.9421 70.471 61.0726 72.4577 51.32C74.4443 41.5673 78.2706 33.1806 79.5311 29.2128Z" fill="white"/>
<path d="M161.766 24.1978L146.184 33.9401C150.118 31.9728 156.499 28.3107 161.766 24.1978C165.78 21.063 169.148 17.6665 170.292 14.5587C172.411 8.80767 174.141 4.41331 170.292 2.7408M146.184 33.9401C154.063 29.3705 172.089 19.6641 181.165 17.3951C192.51 14.5587 202.437 10.7771 210.001 10.7771C217.564 10.7771 228.909 16.4494 220.4 29.2128C217.262 33.9199 210.086 37.9371 201.918 41.1163M174.074 48.5942C181.463 47.4052 192.368 44.8336 201.918 41.1163M178.801 36.3037L223.198 18.8865M223.198 68.5317C230.059 66.5714 232.874 59.0819 233.334 51.32C233.539 47.8515 233.275 44.3018 232.691 41.1163C231.178 32.8649 211.546 37.6782 201.918 41.1163M223.198 68.5317C215.256 70.8008 201.918 69.6475 188.728 70.3391L223.198 68.5317ZM234.493 108.865C235.531 105.933 236.415 102.558 236.945 100.593C237.145 99.8528 238.236 95.5366 238.236 95.5366C239.046 92.3181 243.197 88.9096 244.213 84.8264C245.971 77.7624 244.213 70.3391 244.213 70.3391L223.198 68.5317M234.493 108.865C233.742 110.987 232.691 112.876 232.691 113.829C232.691 116.665 224.701 118.083 213.31 117.611C204.197 117.232 199.113 114.932 197.71 113.829C201.807 117.926 210.001 127.727 210.001 134.156C210.001 142.192 213.31 162.519 213.31 162.519C213.31 162.519 183.056 157.53 181.165 143.16C178.801 125.197 185.892 124.701 178.801 113.829C176.219 109.869 169.749 107.038 161.766 105.039C156.949 103.832 151.581 102.928 146.184 102.263C140.325 101.539 134.431 101.097 129.172 100.85C125.262 100.667 121.702 100.593 118.767 100.593M118.767 100.593L122.898 89M96.3125 93.3373C99.703 95.2528 103.298 96.9695 106.892 98.2517C110.95 99.6993 115.007 100.593 118.767 100.593M96.3125 93.3373C91.5968 90.6732 87.2769 87.6246 83.9059 84.8264C80.3946 81.9118 77.9129 79.2687 77.0859 77.6147C74.2496 71.9421 70.471 61.0726 72.4577 51.32C74.4443 41.5673 78.2706 33.1806 79.5311 29.2128C103.955 21.3342 154.031 5.00981 158.947 2.74082C161.158 1.72067 168.13 1.80131 170.292 2.7408M170.292 2.7408L135.639 21.7723M244.213 84.8264L190.939 77.6147M238.236 95.5366L183.62 89M195.005 104.18L234.493 108.865M188.728 108.865C191.722 113.552 195.005 122.732 195.005 131.715C195.005 140.698 197.71 145.656 201.918 152.162M105.1 30.7179L113.953 24.1978M113.953 36.3037L120.73 30.7179M120.73 41.1163L131.031 33.9401M133.184 43.4587L138.857 39.6636M154.615 45.758L170.292 39.6636M155.97 53.4886L170.292 48.5942M174.074 53.4886L161.766 58.6391M165.836 65.145L178.801 63.2858M165.836 71.922L178.801 70.3391M165.836 77.6147H178.801M161.766 105.039L158.947 93.3373M146.184 89V102.263M133.184 89L129.172 100.85M113.953 83.9934L106.892 98.2517M106.892 77.6147L96.3125 93.3373M96.3125 73.5485L83.9059 84.8264M92.8085 38.3082L85.2183 45.758M101.483 43.4587L94.706 51.32M111.242 45.758L105.1 53.4886M113.953 56.7416L120.73 48.5942M183.62 56.7416L233.334 51.32" stroke="black" stroke-width="4" stroke-linecap="round" stroke-linejoin="round"/>
<path d="M104.243 60.8512C101.248 53.1151 101.747 22.922 101.747 22.922L84.2802 27.9129C84.2802 27.9129 81.2857 63.3466 87.524 77.3203C93.7623 91.2941 105.74 102.023 147.661 102.023L143.419 80.8132L135.684 82.81C113.326 95.9853 107.237 68.5872 104.243 60.8512Z" fill="#636363" style="mix-blend-mode:darken"/>
<path d="M126.701 14.9374L109.483 20.4271C122.209 29.6597 149.607 50.6703 157.393 60.8512C165.179 71.0321 159.389 89.2978 159.888 97.7819C160.387 106.266 176.607 109.26 176.607 109.26C178.52 106.016 182.546 96.8336 183.344 86.0538C184.342 72.5791 170.618 48.3746 161.635 38.8924C154.448 31.3066 135.351 19.7616 126.701 14.9374Z" fill="#636363" style="mix-blend-mode:darken"/>
<path d="M214.037 162.66C212.44 160.264 211.042 143.862 210.543 135.96L195.571 138.705L183.344 141.2C181.747 151.78 203.14 159.915 214.037 162.66Z" fill="#636363" style="mix-blend-mode:darken"/>
<path d="M210.543 116.497L214.416 70.8839C210.252 70.6311 205.94 70.0652 203.057 69.5848C203.889 64.0951 204.355 50.9697 199.564 42.3858C205.968 41.055 219.526 38.044 222.521 36.6466C226.264 34.8999 236.744 35.6485 235.496 42.3858C234.853 45.8621 235.417 52.1285 233.659 57.8258C232.01 63.1706 228.075 68.0146 226.264 69.5848H244.23C244.563 75.1576 244.28 87.5011 240.487 92.2921C236.694 97.0831 234.748 105.6 234.249 109.26C233.75 112.587 231.454 119.142 226.264 118.742C221.073 118.343 213.621 117.079 210.543 116.497Z" fill="#636363" style="mix-blend-mode:darken"/>
<path d="M178.853 18.6804C184.043 19.2793 196.902 33.3195 199.564 40.3896C205.636 38.5596 213.061 38.8924 217.281 32.6542C223.02 24.1701 223.973 20.1337 222.521 16.684C220.524 11.9429 217.78 10.4458 210.543 9.69719C204.754 9.09832 184.925 15.5197 178.853 18.6804Z" fill="#636363" style="mix-blend-mode:darken"/>
<path d="M135.684 11.9429L152.402 27.9129C156.894 25.4176 167.954 20.5275 169.37 16.684C171.117 11.9429 174.112 7.41002 169.37 2.16986C165.578 -2.02227 144.999 6.37 135.684 11.9429Z" fill="#636363" style="mix-blend-mode:darken"/>
<path d="M104.243 60.8512C101.248 53.1151 101.747 22.922 101.747 22.922L84.2802 27.9129C84.2802 27.9129 81.2857 63.3466 87.524 77.3203C93.7623 91.2941 105.74 102.023 147.661 102.023L143.419 80.8132L135.684 82.81C113.326 95.9853 107.237 68.5872 104.243 60.8512Z" stroke="black"/>
<path d="M126.701 14.9374L109.483 20.4271C122.209 29.6597 149.607 50.6703 157.393 60.8512C165.179 71.0321 159.389 89.2978 159.888 97.7819C160.387 106.266 176.607 109.26 176.607 109.26C178.52 106.016 182.546 96.8336 183.344 86.0538C184.342 72.5791 170.618 48.3746 161.635 38.8924C154.448 31.3066 135.351 19.7616 126.701 14.9374Z" stroke="black"/>
<path d="M214.037 162.66C212.44 160.264 211.042 143.862 210.543 135.96L195.571 138.705L183.344 141.2C181.747 151.78 203.14 159.915 214.037 162.66Z" stroke="black"/>
<path d="M210.543 116.497L214.416 70.8839C210.252 70.6311 205.94 70.0652 203.057 69.5848C203.889 64.0951 204.355 50.9697 199.564 42.3858C205.968 41.055 219.526 38.044 222.521 36.6466C226.264 34.8999 236.744 35.6485 235.496 42.3858C234.853 45.8621 235.417 52.1285 233.659 57.8258C232.01 63.1706 228.075 68.0146 226.264 69.5848H244.23C244.563 75.1576 244.28 87.5011 240.487 92.2921C236.694 97.0831 234.748 105.6 234.249 109.26C233.75 112.587 231.454 119.142 226.264 118.742C221.073 118.343 213.621 117.079 210.543 116.497Z" stroke="black"/>
<path d="M178.853 18.6804C184.043 19.2793 196.902 33.3195 199.564 40.3896C205.636 38.5596 213.061 38.8924 217.281 32.6542C223.02 24.1701 223.973 20.1337 222.521 16.684C220.524 11.9429 217.78 10.4458 210.543 9.69719C204.754 9.09832 184.925 15.5197 178.853 18.6804Z" stroke="black"/>
<path d="M135.684 11.9429L152.402 27.9129C156.894 25.4176 167.954 20.5275 169.37 16.684C171.117 11.9429 174.112 7.41002 169.37 2.16986C165.578 -2.02227 144.999 6.37 135.684 11.9429Z" stroke="black"/>
<path d="M130.969 81.1673C149.393 82.4122 156.696 68.9262 158.045 61.2496H133.148L130.969 81.1673Z" fill="#970000"/>
<path d="M138.857 61.4665L118.767 60.65L105.1 61.0974C108.869 68.635 118.289 83.1845 131.71 81.7256C145.132 80.2667 157.326 72.4577 158.947 61.6528L138.857 61.4665ZM118.767 60.65C120.898 63.5454 121.15 70.3391 129.172 70.3391C137.193 70.3391 138.857 68.5317 138.857 61.4665" stroke="black" stroke-width="4" stroke-linecap="round" stroke-linejoin="round"/>
<path d="M72.4945 22.429C60.4791 15.0078 55.5316 22.0756 53.0578 29.8503C52.2995 32.2334 52.8694 34.2513 54.1161 35.7919H26.1997C18.0716 35.7919 3.22906 42.5724 2.52227 59.182C1.81547 75.7916 26.1997 90.2808 36.0948 90.2808C34.21 85.2155 32.4195 75.0848 40.3355 75.0848C50.2306 75.0848 73.908 101.943 84.5099 107.951L38.2152 104.77C40.3355 114.665 47.7568 119.754 59.0655 123.147C73.2014 127.387 147.765 138.696 169.678 138.696C179.573 138.696 183.814 130.921 183.814 123.147C183.814 115.372 169.325 105.477 152.362 104.77C135.399 104.063 117.022 100.529 95.1118 93.1079C73.2013 85.6866 69.6674 68.3703 72.4945 57.415C75.3217 46.4598 84.5099 29.8503 72.4945 22.429Z" fill="#D7B55E"/>
<path d="M84.5099 107.951L38.2152 104.77C40.3355 114.665 47.7568 119.754 59.0655 123.147C73.2014 127.387 147.765 138.696 169.678 138.696C179.573 138.696 183.814 130.921 183.814 123.147C183.814 115.372 169.325 105.477 152.362 104.77C135.399 104.063 117.022 100.529 95.1118 93.1079C73.2013 85.6866 69.6674 68.3703 72.4945 57.415C75.3217 46.4598 84.5099 29.8503 72.4945 22.429C60.4791 15.0078 55.5316 22.0756 53.0578 29.8503C52.2995 32.2334 52.8694 34.2513 54.1161 35.7919C56.9365 39.2776 63.221 40.3208 65.4267 37.625C67.9711 34.5152 64.3665 31.1461 62.2461 29.8503M162.257 117.846C150.595 128.801 102.321 119.825 84.5099 107.951C73.908 101.943 50.2306 75.0848 40.3355 75.0848C32.4195 75.0848 34.21 85.2154 36.0948 90.2808C26.1997 90.2808 1.81547 75.7916 2.52227 59.182C3.22906 42.5724 18.0716 35.7919 26.1997 35.7919C32.7022 35.7919 47.52 35.7919 54.1161 35.7919" stroke="black" stroke-width="5" stroke-linecap="round"/>
</svg>
