<svg width="239" height="170" viewBox="0 0 239 170" fill="none" xmlns="http://www.w3.org/2000/svg">
<path d="M150.209 48.8418C147.79 48.8418 145.565 24.477 150.209 21.1137C171.509 21.1137 207.663 18.041 213.548 24.477C230.973 43.536 226.5 65.5302 229.948 81.85C232.589 94.3533 231.936 122.166 236.533 141.014C240.211 156.093 238.754 162.915 236.532 164.907C236.456 163.911 233.096 156.344 228.274 149.238C223.907 142.802 218.987 116.032 216.458 99.0224C213.93 82.013 213.204 62.6332 207.227 58.2659C201.251 53.8986 174.242 59.645 177.92 58.2659C181.597 56.8868 182.535 51.1403 180.466 48.8418C178.398 46.5432 160.447 48.8418 150.209 48.8418Z" fill="#970000"/>
<path d="M142.292 111.576L142.292 94.3533L117.238 91.1353L106.894 116.19L142.292 111.576Z" fill="#970000"/>
<path d="M39.7723 121.246C34.8074 121.246 25.5979 117.569 21.6137 115.73L14.9475 135.038C28.0494 140.478 55.1266 150.392 58.6202 146.531C65.7292 143.079 82.3995 135.071 92.209 130.657C102.018 126.242 112.829 102.386 117.007 91.0101L143.096 93.769L143.096 112.162C144.526 112.332 147.816 112.816 149.533 113.388C151.25 113.96 152.02 116.896 152.19 118.293L187.954 116.453C188.117 112.53 186.329 102.148 185.069 93.769C184.363 92.3737 181.676 81.9883 179.343 81.0376C176.426 79.8493 165.947 81.0376 153.091 83.6304C142.806 85.7047 135.409 82.7662 132.996 81.0376C137.318 78.0127 170.4 71.7013 185.069 70.3284C203.863 68.5694 204.407 77.4725 204.947 83.0903C205.487 88.708 207.648 118.741 209.268 128.248C210.889 137.755 218.863 162.063 223.401 165.952C227.938 169.841 234.116 167.465 234.548 165.952C234.98 164.44 227.175 151.5 225.662 146.531C224.15 141.561 212.077 80.4975 211.105 70.4503C210.132 60.4032 204.731 58.0265 201.058 57.2702C198.119 56.6652 183.772 57.0181 176.966 57.2702C186.041 56.622 179.343 48.7356 176.426 48.6275C173.509 48.5195 160.437 50.032 146.5 50.248C132.564 50.4641 115.442 60.2323 112.849 72.5481C110.256 84.864 103.127 101.466 96.105 112.162C90.5757 120.583 74.7003 125.953 65.1712 129.176L64.7189 129.329L54.2532 118.258C51.4949 119.254 44.7372 121.246 39.7723 121.246Z" fill="#D7B55E"/>
<path d="M16.1558 36.7259L28.0962 37.9828C28.3582 43.1676 29.0942 51.4153 29.7227 54.809C30.5082 59.0511 34.2239 68.149 35.7953 71.2913C37.3667 74.4336 36.1628 74.2691 34.2774 73.4836C32.3921 72.698 30.8652 72.416 24.7377 66.7599C19.8357 62.2349 16.5747 45.1053 16.1558 36.7259Z" fill="white"/>
<path d="M14.5845 135.552L21.4976 116.855C16.6794 113.555 8.01093 109.27 6.754 113.292C5.49708 117.314 7.5667 119.735 9.39972 121.097C2.64363 121.097 2.97275 124.077 2.97275 126.905C2.97275 129.167 10.1853 134.085 14.5845 135.552Z" fill="white"/>
<path d="M184.584 129.581C188.103 128.701 186.888 121.254 185.84 117.64L151.747 117.64C151.537 120.102 151.244 124.993 151.747 128.638C152.375 133.195 157.874 134.923 161.645 134.766C164.662 134.64 167.249 127.486 167.615 125.025C169.029 126.596 170.726 131.152 173.743 131.152C176.759 131.152 177.775 127.329 177.514 125.025C178.404 126.91 181.064 130.461 184.584 129.581Z" fill="white"/>
<path d="M65.1905 130.907L54.2018 118.007C57.8647 114.742 65.7639 107.257 68.0576 103.435C70.9248 98.6575 85.2575 73.8133 85.2575 72.1411L85.2575 65.2134L48.6708 70.6051C50.468 77.3015 47.7432 78.1418 47.7432 78.1418C47.7432 78.1418 34.1773 78.1418 28.6118 72.9241C25.1893 69.7155 25.829 68.75 25.829 68.75C25.829 68.75 33.1006 73.7336 36.5246 73.8133C36.5246 73.8133 31.1626 59.8219 30.1191 55.7638C29.0756 51.7056 28.6118 38.0237 28.6118 38.0237C23.7544 37.5459 13.3049 36.0692 13.1138 33.2026C12.8749 29.6193 18.1304 24.1249 27.9247 22.4527C35.7602 21.1149 54.9189 23.0101 63.5188 24.1249C63.3277 31.7693 74.7465 34.6359 80.4797 35.1137C87.3278 35.2729 101.358 35.1137 102.696 33.2026C104.034 31.2915 102.139 29.0619 101.024 28.186C105.611 28.186 107.076 23.4083 107.235 21.0194C121.25 20.6212 148.944 20.3505 147.607 22.4527C146.269 24.5549 148.164 41.0062 149.279 48.9691C141.396 50.9598 124.626 55.8968 120.612 59.719C115.596 64.4967 103.651 100.807 97.6791 110.841C92.9014 118.867 74.0293 127.563 65.1905 130.907Z" fill="#636363"/>
<path d="M65.0692 18.5929C66.8089 16.0704 76.7491 13.8829 81.9327 17.1613C87.1163 20.4398 86.8905 32.9056 86.4559 34.3844C86.0212 35.8632 70.8884 33.7144 68.0179 31.6268C65.1474 29.5391 63.3295 21.1155 65.0692 18.5929Z" fill="#D9D9D9"/>
<path d="M68.0179 31.6268L68.9034 30.4092V30.4092L68.0179 31.6268ZM72.135 28.3742L70.6406 28.5572C70.7323 29.3061 71.3643 29.8715 72.1188 29.8797C72.8733 29.8878 73.5173 29.3361 73.6251 28.5893L72.135 28.3742ZM65.0692 18.5929L66.3086 19.4477C66.4821 19.1961 67.0779 18.7233 68.2736 18.2397C69.3979 17.785 70.8411 17.4057 72.4109 17.1937C75.6173 16.7608 78.9738 17.0713 81.1279 18.4337L81.9327 17.1613L82.7375 15.8889C79.708 13.9729 75.5026 13.7379 72.008 14.2097C70.2274 14.4502 68.5353 14.8858 67.1446 15.4483C65.8252 15.9819 64.5262 16.7285 63.8298 17.7382L65.0692 18.5929ZM81.9327 17.1613L81.1279 18.4337C82.0623 19.0247 82.8616 20.1071 83.5013 21.6154C84.1344 23.1082 84.5533 24.8827 84.8111 26.6634C85.0677 28.4363 85.1571 30.1621 85.1559 31.5291C85.1553 32.2121 85.132 32.7944 85.0978 33.2387C85.0807 33.4611 85.0615 33.6401 85.0426 33.7746C85.022 33.9222 85.0077 33.9726 85.0114 33.9599L86.4559 34.3844L87.9003 34.809C88.0034 34.458 88.0621 33.9611 88.1 33.4699C88.1411 32.9365 88.1663 32.2767 88.1669 31.5318C88.1683 30.0432 88.0717 28.1703 87.7911 26.2321C87.5117 24.3017 87.0423 22.2526 86.2734 20.4398C85.5112 18.6425 84.3949 16.9372 82.7375 15.8889L81.9327 17.1613ZM86.4559 34.3844L85.0114 33.9599C85.1634 33.4428 85.5486 33.267 85.5573 33.2628C85.6026 33.241 85.5719 33.2633 85.4032 33.2921C85.0794 33.3473 84.5505 33.3782 83.821 33.3657C82.384 33.3411 80.431 33.1548 78.3681 32.8533C76.3104 32.5526 74.1906 32.1441 72.4248 31.6885C71.5413 31.4606 70.7657 31.2258 70.14 30.9937C69.4899 30.7526 69.0937 30.5476 68.9034 30.4092L68.0179 31.6268L67.1324 32.8444C67.6597 33.2279 68.3643 33.5467 69.093 33.8169C69.846 34.0962 70.727 34.3602 71.6726 34.6041C73.5652 35.0924 75.794 35.5202 77.9326 35.8327C80.0661 36.1445 82.1572 36.3487 83.7695 36.3763C84.5646 36.3899 85.3117 36.3623 85.9099 36.2602C86.2022 36.2103 86.544 36.1291 86.8601 35.9774C87.1397 35.8432 87.694 35.5108 87.9003 34.809L86.4559 34.3844ZM68.0179 31.6268L68.9034 30.4092C68.4758 30.0982 67.957 29.4355 67.455 28.4049C66.9684 27.406 66.5614 26.1935 66.2844 24.9465C66.0071 23.6979 65.8717 22.4676 65.8974 21.4377C65.9245 20.3504 66.1261 19.7123 66.3086 19.4477L65.0692 18.5929L63.8298 17.7382C63.1424 18.7349 62.9189 20.0957 62.8872 21.3626C62.8542 22.6868 63.0265 24.1658 63.345 25.5994C63.6638 27.0346 64.1408 28.4771 64.748 29.7236C65.3398 30.9385 66.1247 32.1115 67.1324 32.8444L68.0179 31.6268ZM81.9327 17.1613L81.5568 15.7035C79.9524 16.1172 77.0183 17.038 74.5853 18.9668C72.0812 20.9519 70.0874 24.0393 70.6406 28.5572L72.135 28.3742L73.6294 28.1912C73.2294 24.9245 74.5933 22.8029 76.4558 21.3264C78.3893 19.7936 80.8307 19.0003 82.3086 18.6192L81.9327 17.1613ZM72.135 28.3742L73.6251 28.5893C74.013 25.902 76.3435 20.2034 82.3191 18.6164L81.9327 17.1613L81.5463 15.7062C73.9137 17.7332 71.1187 24.8769 70.6449 28.1591L72.135 28.3742Z" fill="black"/>
<path d="M77.6182 22.7913C73.1807 20.3261 67.4521 24.5344 65.0692 26.9175C65.6609 33.1299 75.8517 34.6245 80.9465 34.6245C81.686 31.7073 82.0558 25.2566 77.6182 22.7913Z" fill="#970000" stroke="black" stroke-width="3"/>
<path d="M83.7922 18.1938C80.2914 14.693 70.7555 14.8206 66.4252 15.3221C63.28 6.98026 68.8867 3.69826 71.3482 3.69826C73.3174 3.69826 73.8097 7.80077 73.8097 9.85203C74.1288 7.02585 73.1285 1.31887 78.8694 1.51023C82.1214 1.61863 82.3302 6.0323 82.0233 8.28591C82.3092 6.42385 85.2678 1.98299 88.6214 2.63209C92.0127 3.2885 92.5555 9.85203 90.63 11.0828C92.5555 9.85203 96.853 6.47071 98.7315 9.85203C100.817 13.6064 97.9012 16.6803 96.1292 17.842C99.5265 16.1683 106.133 16.7109 106.134 21.9101C106.135 25.6234 102.335 27.7026 99.8959 28.0335C99.9068 28.0356 99.9179 28.0377 99.9289 28.0399C104.852 28.9971 101.296 35.1509 99.9289 35.1509L86.9376 35.1509C87.3478 30.9572 87.2931 21.6946 83.7922 18.1938Z" fill="white" stroke="black" stroke-width="3" stroke-linejoin="round"/>
<circle cx="84.6139" cy="90.7452" r="3.97864" transform="rotate(90 84.6139 90.7452)" fill="#D9D9D9" stroke="black" stroke-width="3"/>
<circle cx="71.5544" cy="111.215" r="1.86674" transform="rotate(90 71.5544 111.215)" fill="#D9D9D9" stroke="black" stroke-width="2"/>
<path d="M16.7342 37.0485C16.7342 37.0485 9.65248 36.4532 15.0065 28.8603C20.985 20.3818 50.8413 21.1758 62.9566 23.2149C63.238 23.2622 63.5091 23.3108 63.7694 23.3605C63.8574 26.1337 65.5213 32.0206 71.4723 33.3825C77.4233 34.7444 98.8107 36.394 108.76 37.0485M16.7342 37.0485C16.2188 42.7164 18.7462 55.7595 20.9849 60.2355C21.9787 62.2224 23.2402 65.4329 25.7797 68.6224M44.3185 38.8726C42.299 38.7395 40.2567 38.6048 38.2245 38.4706C35.0987 38.2643 31.9968 38.0593 29.0384 37.8636C24.4403 37.5594 20.1891 37.2777 16.7342 37.0485M85.5822 64.7116C75.148 67.4167 48.5064 71.0005 48.5064 71.0005C48.5064 71.0005 50.7555 77.0324 47.537 77.926C44.3185 78.8196 29.503 77.6137 25.7797 68.6224M85.5822 64.7116C96.0163 62.0064 110.414 49.2519 110.414 44.2281C110.414 41.932 109.816 39.2663 108.76 37.0485M61.9491 111.798C64.0942 109.521 67.7412 104.397 69.2102 102.493C69.8797 101.626 70.6443 100.374 71.4723 98.839C74.8075 92.6554 82.2744 82.5245 85.5822 73.7931C86.7921 70.5992 84.7564 67.0332 85.5822 64.7116M85.5822 64.7116L105.775 73.1473M61.9491 111.798C59.1198 114.801 57.5571 114.959 53.7108 117.135C49.6724 119.419 45.1233 120.784 40.1683 120.257C32.1001 119.399 25.5996 116.555 20.9849 114.397C18.0199 113.011 15.7367 112.307 14.5098 111.798C8.09268 109.138 3.79532 114.618 6.89689 118.283C9.37815 121.216 16.2436 124.376 17.7474 124.94C14.9278 122.966 5.26152 118.904 2.10356 123.641C-1.05441 128.377 9.05858 133.509 14.5098 135.483M123.654 74.722C123.206 75.6853 122.738 76.6732 122.219 77.6809C120.81 82.2704 119.346 86.8064 117.774 91.215C114.501 100.392 110.756 109.017 106.044 116.423C104.415 118.984 102.67 121.399 100.79 123.641C92.2308 133.842 74.9821 138.394 65.7253 142.705C64.2368 143.398 62.9549 144.085 61.9491 144.788C54.688 149.863 51.4467 148.735 43.2699 146.479C36.7284 144.675 21.3709 138.397 14.5098 135.483M14.5098 135.483L20.9849 114.397M174.946 57.0978C172.126 57.0978 172.126 55.6879 147.313 58.5076C129.613 60.519 127.337 66.7901 123.654 74.722M127.378 54.2969C131.172 52.3423 135.562 51.3814 139.7 50.8946C143.357 50.4644 149.196 49.7674 155.284 49.2028C165.156 48.2873 175.681 47.72 178.611 49.2029C184.532 52.1995 177.765 57.0978 174.946 57.0978M174.946 57.0978C181.251 57.0978 194.959 57.0978 199.348 57.0978C204.834 57.0978 210.723 57.9933 210.95 66.3576C211.178 74.722 220.362 117.639 222.325 131.89C224.289 146.141 234.588 160.903 235.642 163.419M65.7253 129.844C65.7253 129.844 88.8302 122.225 95.3493 113.653C103.498 102.939 106.666 94.9043 110.414 80.5243C114.163 66.1443 122.381 56.871 127.378 54.2969M65.7253 129.844L65.7253 142.705M65.7253 129.844L61.9491 125.563M123.654 74.722C125.704 76.6663 129.024 79.4903 132.579 81.9103M187.07 118.283C187.07 114.336 188.802 107.347 185.137 93.8126C181.471 80.2785 178.393 80.0082 171.907 80.0082C165.422 80.0082 157.496 82.8954 150.165 83.4593C142.834 84.0232 140.847 84.3796 140.512 84.3562M143.239 112.349C148.329 112.118 151.65 112.349 151.65 118.283C152.778 126.742 152.883 134.567 159.368 134.567C164.556 134.567 166.389 124.017 165.355 118.283C165.134 123.947 168.436 132.115 173.173 131.89C177.91 131.664 178.047 122.607 176.637 118.283C177.295 122.137 179.457 129.844 182.84 129.844C187.07 129.844 187.07 122.231 187.07 118.283M187.07 118.283L151.65 118.283M106.044 116.423C116.159 114.956 133.046 112.812 143.239 112.349M143.239 112.349L143.239 93.1888L140.512 84.3562M140.512 84.3562C137.473 84.1446 136.263 84.4181 132.579 81.9103M143.239 93.1888L117.774 91.215M136.026 20.4428C141.327 20.4428 146.571 20.4509 151.65 20.4642C175.567 20.527 195.826 20.706 201.134 20.706C212.131 20.706 222.879 32.4111 224.289 46.2062C225.699 60.0012 230.774 74.722 230.492 93.1888C230.21 111.656 240.361 146.479 236.695 160.014C236.342 161.317 235.992 162.446 235.642 163.419C232.36 172.544 224.289 165.935 224.289 165.935C224.289 165.935 213.065 152.043 210.95 140.801C208.835 129.559 205.961 102.493 204.834 86.7037C203.706 70.9138 195.247 70.9138 189.889 70.6319C184.532 70.3499 185.096 70.3499 162.539 72.6019C144.494 74.4035 135.047 79.5582 132.579 81.9103M136.026 20.4428C124.918 20.4428 114.149 20.706 106.044 20.706C106.68 22.229 106.946 22.1084 106.702 23.3605C106.044 26.7356 100.79 28.3742 100.79 28.3742C100.79 28.3742 107.507 34.4138 108.76 37.0485M136.026 20.4428C137.251 24.9088 139.238 35.7224 137.39 43.2493C136.638 46.312 135.699 46.1169 134.162 47.8152M127.378 54.2969C128.9 53.9729 131.922 50.2906 134.162 47.8152M61.9491 125.563C64.0506 123.993 66.8868 121.825 70.0248 119.358C75.6255 114.956 80.2649 111.197 84.1077 107.851C87.5008 104.896 90.2728 102.261 92.5367 99.7878C97.0388 94.8689 99.8009 88.9036 102.208 82.6887C103.428 79.5378 104.557 76.3227 105.775 73.1473C106.656 70.8502 107.584 68.5739 108.627 66.3576C112.889 57.299 127.571 49.3869 134.162 47.8152M61.9491 125.563L53.7108 117.135M85.5822 73.7931L102.208 82.6887M71.4723 98.839L84.1077 107.851M61.9491 111.798L70.0248 119.358M62.2675 58.3893C75.3658 57.361 81.8906 49.9226 81.715 47.8152C81.5262 45.5496 77.7521 41.0185 71.4723 40.6409C70.8061 40.6008 69.6379 40.5271 68.075 40.4267C66.1385 40.3024 63.5958 40.1373 60.651 39.945M81.715 47.8152L72.892 48.2332L65.7253 49.2145L65.2945 49.2145M45.2725 59.0862C44.0692 59.1755 42.8959 59.2704 41.7617 59.3674C38.1659 59.6747 34.9628 60.0023 32.4404 60.2355M29.0384 37.8636C27.9961 41.2492 28.289 45.9837 29.0384 50.4002C29.7029 54.316 30.7263 57.9817 31.4964 60.2355C33.4306 65.8963 38.2245 74.722 36.1075 73.7931C35.0074 74.725 31.2564 72.535 25.7797 68.6224M29.0384 50.4002L33.6315 49.8073M42.9911 50.4002L39.0708 48.2332L33.6315 49.8073M42.9911 50.4002L38.2245 38.4706M42.9911 50.4002L45.2725 59.0862M42.9911 50.4002L47.537 49.5445M49.2899 49.2145L56.7803 49.2145M49.2899 49.2145L44.3185 38.8726M49.2899 49.2145L47.537 49.5445M56.7803 49.2145L55.5104 39.6085M56.7803 49.2145L59.8684 49.2145M62.9566 49.2145L60.651 39.945M62.9566 49.2145L59.8684 49.2145M62.9566 49.2145L65.2945 49.2145M55.5104 39.6085C57.3214 39.7273 59.046 39.8402 60.651 39.945M55.5104 39.6085C52.0219 39.3798 48.2126 39.1292 44.3185 38.8726M68.075 40.4267L69.0524 45.146M33.6315 49.8073L41.7617 59.3674M62.2675 58.3893C61.2844 58.4665 60.2778 58.5076 59.2498 58.5076C56.3752 58.5076 53.4855 58.5991 50.6783 58.7436C48.8315 58.8386 47.0203 58.9565 45.2725 59.0862M50.6783 58.7436L47.537 49.5445M59.8684 49.2145L62.2675 58.3893M69.0524 56.7294L65.2945 49.2145M151.65 20.4642C150.204 20.8513 147.313 22.7628 147.313 27.3128C147.313 31.8628 147.313 39.2533 147.313 44.2281C147.313 49.2028 155.284 49.2028 155.284 49.2028" stroke="black" stroke-width="3" stroke-linecap="round"/>
</svg>
