<svg width="255" height="206" viewBox="0 0 255 206" fill="none" xmlns="http://www.w3.org/2000/svg">
<path d="M131.425 11.4435C131.425 15.4304 126.942 55.23 126.942 55.23L142.326 60.337C146.923 56.3147 162.661 46.6605 170.384 46.6605C180.038 46.6605 174.866 50.4595 174.866 55.23C174.866 59.6123 173.222 101.89 170.384 125.564C180.865 133.011 184.44 156.249 183.366 164.869C208.88 172.454 242.442 165.558 247.269 164.869C252.096 164.179 252.441 161.421 252.441 157.284C252.441 153.974 250.372 123.036 249.338 107.981C247.959 53.8509 222.79 28.8767 204.172 15.4304C185.554 1.98415 149.008 2.13447 143.147 2.47925C137.286 2.82402 131.425 3.85846 131.425 11.4435Z" fill="#7B7B7B"/>
<path d="M131.425 190.037C131.425 190.037 132.723 181.67 133.838 178.102C139.414 178.102 152.275 174.203 157.628 168.316C162.98 162.428 168.134 136.938 169.695 125.564C182.407 126.233 190.681 159.175 177.969 175.902C170.094 186.264 150.043 192.449 140.734 194.863C131.425 197.278 131.425 190.037 131.425 190.037Z" fill="#D9D9D9"/>
<path d="M45.701 98.7842C45.701 93.4318 47.73 81.9823 47.73 77.968C47.7301 68.861 69.5419 73.6314 94.966 73.6314C120.39 73.6314 147.591 56.4432 159.536 49.7823C177.505 39.7619 177.505 48.306 177.505 59.0105C177.505 59.0105 174.3 164.488 156.236 170.509C145.67 174.031 128.729 172.516 124.938 170.509L115.353 175.342L115.353 170.509C111.785 167.61 101.296 166.729 91.1967 166.729C79.5122 166.729 53.7297 172.75 45.701 172.75C37.6723 172.75 39.0105 166.06 39.0105 161.376C39.0105 156.693 43.7157 156.453 47.73 156.453C50.9415 156.453 85.7513 145.585 100.917 142.016C75.4925 142.016 17.1992 148.222 10.2411 148.222C1.54336 148.222 1.72715 141.197 1.72715 136.513C1.72715 131.83 4.88863 128.34 10.2411 128.34C14.4366 128.34 55.2546 120.031 80.6063 114.871L82.1533 114.556C74.1246 112.995 65.2374 109.592 57.744 108.521C48.3772 107.183 45.701 104.137 45.701 98.7842Z" fill="#970000"/>
<path d="M182.844 62.6177C192.787 55.5165 201.639 58.5134 208.195 61.0347L212.648 78.6438C206.446 85.3459 198.864 88.5329 186.073 82.4533C181.183 80.1291 179.805 64.7881 182.844 62.6177Z" fill="#4B4640"/>
<path d="M212.68 87.4745L212.765 87.4891L212.438 107.288C199.954 112.005 193.933 109.471 186.673 107.676C178.072 100.569 180.152 91.9147 183.539 88.8249C189.421 83.459 204.007 85.9772 212.68 87.4745Z" fill="#4B4640"/>
<path d="M187.958 117.461C192.561 112.862 206.613 113.225 213.493 114.637C213.493 119.013 200.198 119.557 201.459 132.415C201.459 132.415 194.993 131.973 189.219 130.319C184.014 128.828 185.316 120.1 187.958 117.461Z" fill="#4B4640"/>
<path d="M169.84 142.597C169.543 144.839 169.167 146.925 168.721 148.868M169.84 142.597H185.43M171.667 127.387C171.388 129.949 171.094 132.524 170.785 135.101C170.485 137.599 170.17 140.101 169.84 142.597M129.424 65.4588C129.661 61.9422 129.954 57.5427 130.263 52.7863M129.424 65.4588C115.828 71.1528 102.074 73.1011 90.5723 73.6394M129.424 65.4588C132.527 64.1591 136.854 61.8772 141.374 59.3817M116.507 150.861V170.826L111.733 177.738C114.401 175.902 119.53 174.551 123.18 170.826C126.574 167.363 128.558 161.588 129.424 158.124C131.67 149.138 128.281 140.374 139.944 137.876L16.6893 147.317C11.794 148.016 2.00359 148.051 2.00359 142.597C2.00359 135.779 2.00359 137.352 2.00359 133.156C2.00359 128.96 4.10155 127.387 10.3954 127.387C15.4305 127.387 61.7953 118.645 84.3484 114.274L53.6724 107.879C53.6724 107.879 46.0607 108.422 46.0607 101.171C46.0607 96.4511 45.5362 95.3928 46.0607 82.2805C46.5851 69.1683 56.0988 73.5581 64.9422 73.3642C69.4126 73.2662 78.815 74.1896 90.5723 73.6394M139.944 137.876C97.1311 142.597 51.9214 153.913 46.0607 156.233C42.9397 157.469 39.7668 158.681 38.7178 159.905C38.7178 161.651 38.7178 165.706 38.7178 167.952C38.7178 170.76 41.2508 173.007 47.7093 172.445C54.1678 171.884 89.5702 165.987 97.1311 165.987C103.309 165.987 113.699 168.299 116.507 170.826M123.18 170.826C123.18 170.826 129.148 172.251 136.136 173.664M136.136 173.664C137.382 173.916 138.661 174.168 139.944 174.411C141.208 174.434 142.601 174.393 144.075 174.235M158.351 191.637C153.678 193.934 148.665 195.697 144.075 196.403C142.65 196.622 141.265 196.74 139.944 196.74C129.619 196.74 132.52 192.672 132.52 188.605C132.52 185.351 134.931 177.601 136.136 173.664M182.896 135.101C178.745 128.929 173.68 127.387 171.667 127.387M184.684 163.991C185.353 160.702 185.786 157.107 185.945 153.561C186.117 149.694 185.963 145.886 185.43 142.597C184.931 139.517 184.1 136.892 182.896 135.101M182.896 135.101H170.785M141.374 59.3817C145.963 56.8483 150.183 54.9562 154.093 52.7863C157.335 50.9865 160.54 48.7267 161.959 48.1889C166.771 46.364 179.377 40.8315 177.707 55.5318C176.275 68.1418 174.984 96.9398 171.667 127.387M184.684 163.991C184.684 163.991 239.528 165.987 244.848 165.987C248.487 165.987 250.808 161.889 251.911 158.124M169.84 184.296C170.489 183.751 171.1 183.205 171.667 182.66C173.859 180.553 175.909 178.292 177.707 176.056C179.859 173.38 181.651 170.737 182.896 168.432C183.816 166.727 184.437 165.205 184.684 163.991M130.263 52.7863C131.297 36.8875 132.52 17.0002 132.52 12.7614C132.52 6.18761 133.067 1.61128 145.675 2.03029M130.263 52.7863C124.921 52.7863 115.056 52.7863 108.115 52.7863C105.465 52.7863 103.241 52.7863 101.857 52.7863C95.5995 52.7863 86.1709 60.3628 90.5723 73.6394M187.562 8.26882L179.509 33.1486M156.725 2.87563C160.625 3.26399 165.099 3.80042 169.84 4.54816C175.537 5.44667 181.621 6.65032 187.562 8.26882C192.674 9.66153 197.68 11.3614 202.243 13.4384C206.375 15.319 210.143 17.5088 213.297 20.0597M202.243 13.4384L184.684 44.9888M169.84 4.54816L167.251 37.1666M156.725 2.87563C153.079 2.51267 149.934 2.27904 147.539 2.12311C146.89 2.08087 146.269 2.05004 145.675 2.03029M156.725 2.87563L154.093 52.7863M145.675 2.03029L141.374 59.3817M193.534 50.3079L213.297 20.0597M213.297 20.0597C215.048 21.4759 216.609 23.0034 217.939 24.651C220.097 27.3254 222.227 30.1554 224.299 33.1486M224.299 33.1486L202.243 51.9248M224.299 33.1486C226.508 36.3407 228.65 39.7184 230.688 43.291M230.688 43.291L207.301 57.5043M243.379 73.6394C242.228 69.5511 239.488 61.8848 239.488 61.8848C239.488 61.8848 236.988 55.7049 235.618 52.7863C234.064 49.4779 232.413 46.3147 230.688 43.291M235.618 52.7863L210.743 63.7621M239.488 61.8848L213.297 72.3176M243.379 73.6394L213.297 79.7195M243.379 73.6394C244.541 77.7668 245.544 82.0697 246.363 86.5548M246.363 86.5548H213.297M246.363 86.5548C246.856 89.2562 247.282 92.0236 247.635 94.8586M250.278 124.48C249.812 119.165 249.283 113.034 248.693 106.002C248.561 104.437 248.427 102.827 248.289 101.171C248.112 99.0309 247.893 96.9267 247.635 94.8586M247.635 94.8586H213.297M213.297 106.002H248.693M217.939 116.64C225.835 115.713 243.358 115.984 250.278 124.48M251.714 140.733C251.519 138.516 251.295 135.998 251.043 133.156C250.811 130.544 250.556 127.658 250.278 124.48M251.043 133.156H226.387M226.387 140.733H251.714M251.911 158.124C252.42 156.387 252.67 154.721 252.67 153.561C252.67 152.678 252.579 151.151 252.402 148.868C252.242 146.802 252.012 144.118 251.714 140.733M224.299 148.868H252.402M224.299 158.124H251.911M185.842 61.8848C188.294 60.6935 193.89 59.0256 196.649 61.8848C199.409 64.744 203.778 63.0761 205.618 61.8848M184.684 70.48C185.722 70.5651 187.839 71.2612 188.002 73.3642C188.206 75.993 191.473 76.2485 191.882 73.3642C192.29 70.48 197.395 67.6213 199.028 72.3176C200.662 77.0139 201.782 67.0303 204.541 68.1426C206.749 69.0324 209.595 70.0716 210.743 70.48M188.002 79.7195C189.846 78.7496 193.534 77.6673 193.534 81.0977C193.534 84.528 195.611 82.527 196.649 81.0977C197.51 79.7364 199.641 77.8307 201.274 81.0977C203.316 85.1814 202.61 77.5754 205.618 78.6474M209.033 89.1061C206.713 89.9566 201.219 91.1472 197.803 89.1061C193.534 86.5548 188.002 87.4275 188.002 90.6945C188.002 93.9614 190.011 98.1799 185.842 98.1799M144.075 174.235V196.403M162.199 163.991C160.988 165.623 159.695 167.008 158.351 168.183C155.675 170.521 152.8 172.022 149.986 172.964C147.951 173.645 145.947 174.034 144.075 174.235M149.986 172.964L158.351 191.637M158.351 191.637C162.674 189.511 166.705 186.926 169.84 184.296M158.351 168.183L169.84 184.296M162.199 163.991L177.707 176.056M168.721 148.868C168.094 151.599 167.328 154.044 166.452 156.233C165.226 159.294 163.784 161.854 162.199 163.991M182.896 168.432L166.452 156.233M168.721 148.868L185.945 153.561" stroke="black" stroke-width="4" stroke-linecap="round"/>
<path d="M89.9543 73.8918C91.1638 77.6714 98.9466 80.0653 101.466 79.1834C105.876 78.4905 107.762 76.5006 112.928 77.6306C120.756 79.3429 124.389 85.0419 124.389 85.0419L126.739 93.554C126.739 93.554 151.752 96.0029 152.319 85.0419C152.478 81.9632 151.583 78.6017 149.986 75.2503C148.148 71.3928 145.38 67.5486 142.219 64.1638C140.057 61.8475 137.71 59.7465 135.352 58.0035C133.49 56.6276 131.621 55.4749 129.83 54.6156C127.36 53.4308 124.7 52.5839 121.994 52.0077C115.528 50.6312 108.792 50.7995 103.719 51.5957C101.242 51.9843 99.1621 52.5225 97.7027 53.1037C86.2891 57.6491 88.4425 69.1673 89.9543 73.8918Z" fill="#4B4640"/>
<path d="M101.466 79.1834L101.155 77.2041L100.976 77.2323L100.805 77.2923L101.466 79.1834ZM89.9543 73.8918L88.0461 74.5024H88.0461L89.9543 73.8918ZM97.7027 53.1037L96.9614 51.2423L96.9614 51.2423L97.7027 53.1037ZM152.319 85.0419L150.318 84.9384V84.9384L152.319 85.0419ZM126.739 93.554L124.808 94.0872C125.029 94.8865 125.719 95.4673 126.544 95.5481L126.739 93.554ZM124.389 85.0419L126.321 84.5087L126.241 84.2185L126.079 83.9647L124.389 85.0419ZM112.928 77.6306L113.356 75.6732H113.356L112.928 77.6306ZM129.83 54.6156L130.696 52.809V52.809L129.83 54.6156ZM135.352 58.0035L134.161 59.6147H134.161L135.352 58.0035ZM122.533 64.8343C122.117 65.8595 122.61 67.0282 123.635 67.4447C124.66 67.8612 125.829 67.3677 126.246 66.3425L124.389 65.5884L122.533 64.8343ZM131.384 69.1994C131.007 70.2398 131.545 71.3888 132.585 71.7657C133.626 72.1427 134.775 71.6049 135.152 70.5645L133.268 69.882L131.384 69.1994ZM135.066 78.2137C134.53 79.1821 134.881 80.4012 135.85 80.9367C136.818 81.4722 138.037 81.1214 138.573 80.1531L136.819 79.1834L135.066 78.2137ZM113.83 64.9127C114.244 65.9391 115.411 66.4357 116.437 66.0221C117.464 65.6085 117.96 64.4411 117.547 63.4148L115.688 64.1638L113.83 64.9127ZM103.719 51.5957L103.408 49.6163V49.6163L103.719 51.5957ZM104.536 67.1312C105.388 67.8372 106.651 67.7188 107.357 66.8667C108.063 66.0147 107.944 64.7516 107.092 64.0456L105.814 65.5884L104.536 67.1312ZM101.466 79.1834L100.805 77.2923C100.637 77.3511 100.067 77.4226 99.0614 77.2772C98.1269 77.142 97.0323 76.8513 95.9604 76.4243C94.8844 75.9957 93.901 75.4577 93.1513 74.8652C92.3833 74.2582 91.9982 73.7049 91.8626 73.2811L89.9543 73.8918L88.0461 74.5024C88.5152 75.9684 89.5565 77.1317 90.6667 78.0091C91.7951 78.9009 93.1418 79.6149 94.4776 80.147C95.8175 80.6807 97.2167 81.0593 98.4879 81.2431C99.688 81.4166 101.036 81.4567 102.128 81.0745L101.466 79.1834ZM89.9543 73.8918L91.8626 73.2811C91.1484 71.0493 90.3362 67.3494 90.9557 63.7725C91.55 60.341 93.456 56.9516 98.444 54.9651L97.7027 53.1037L96.9614 51.2423C90.5357 53.8013 87.8117 58.4437 87.0073 63.0887C86.228 67.5883 87.2484 72.0098 88.0461 74.5024L89.9543 73.8918ZM152.319 85.0419L150.318 84.9384C150.224 86.7504 149.174 88.1275 147.129 89.2339C145.032 90.3684 142.146 91.0513 139.078 91.419C136.045 91.7825 133.004 91.8194 130.706 91.7624C129.561 91.7341 128.61 91.6827 127.948 91.6387C127.617 91.6167 127.36 91.5966 127.187 91.5822C127.1 91.575 127.035 91.5692 126.992 91.5654C126.971 91.5634 126.955 91.562 126.946 91.5611C126.941 91.5606 126.938 91.5603 126.936 91.5601C126.935 91.56 126.934 91.56 126.934 91.5599C126.934 91.5599 126.934 91.5599 126.934 91.5599C126.934 91.56 126.935 91.56 126.739 93.554C126.544 95.5481 126.545 95.5481 126.545 95.5482C126.546 95.5482 126.546 95.5483 126.547 95.5484C126.548 95.5485 126.55 95.5487 126.552 95.5489C126.556 95.5493 126.562 95.5498 126.569 95.5505C126.583 95.5519 126.604 95.5537 126.63 95.5561C126.682 95.5609 126.757 95.5675 126.854 95.5756C127.048 95.5917 127.328 95.6135 127.682 95.637C128.391 95.6841 129.398 95.7384 130.607 95.7684C133.016 95.8281 136.264 95.7921 139.555 95.3977C142.811 95.0075 146.284 94.2474 149.036 92.7583C151.841 91.241 154.13 88.8139 154.32 85.1454L152.319 85.0419ZM126.739 93.554L128.671 93.0208L126.321 84.5087L124.389 85.0419L122.458 85.5751L124.808 94.0872L126.739 93.554ZM124.389 85.0419C126.079 83.9647 126.078 83.964 126.078 83.9633C126.078 83.963 126.077 83.9622 126.077 83.9617C126.076 83.9606 126.075 83.9594 126.074 83.9581C126.073 83.9556 126.071 83.9527 126.069 83.9494C126.065 83.9429 126.06 83.9351 126.053 83.9258C126.041 83.9074 126.026 83.8836 126.006 83.8547C125.967 83.7969 125.913 83.7188 125.844 83.6227C125.705 83.4306 125.506 83.1663 125.245 82.8494C124.722 82.2165 123.947 81.3683 122.908 80.4656C120.829 78.6604 117.669 76.6168 113.356 75.6732L112.928 77.6306L112.5 79.5879C116.014 80.3567 118.585 82.0187 120.28 83.491C121.128 84.2272 121.75 84.9107 122.154 85.3999C122.355 85.644 122.501 85.8383 122.592 85.9646C122.638 86.0277 122.669 86.0737 122.687 86.1002C122.696 86.1135 122.702 86.1219 122.704 86.1251C122.705 86.1267 122.705 86.1271 122.704 86.1261C122.704 86.1256 122.704 86.1247 122.703 86.1236C122.702 86.123 122.702 86.1223 122.701 86.1215C122.701 86.1212 122.701 86.1205 122.701 86.1204C122.7 86.1197 122.7 86.119 124.389 85.0419ZM112.928 77.6306L113.356 75.6732C110.417 75.0303 108.328 75.2751 106.4 75.7868C104.385 76.3216 103.255 76.8742 101.155 77.2041L101.466 79.1834L101.777 81.1627C104.087 80.7997 106.105 80.0108 107.428 79.6599C108.836 79.286 110.273 79.1009 112.5 79.5879L112.928 77.6306ZM129.83 54.6156L128.963 56.4221C130.62 57.2167 132.381 58.2989 134.161 59.6147L135.352 58.0035L136.543 56.3922C134.6 54.9563 132.623 53.733 130.696 52.809L129.83 54.6156ZM135.352 58.0035L136.543 56.3922C135.171 55.3782 133.489 55.5925 132.297 55.9554C131.011 56.3465 129.674 57.0882 128.451 57.9624C126.047 59.6797 123.569 62.2844 122.533 64.8343L124.389 65.5884L126.246 66.3425C126.888 64.7599 128.712 62.7005 130.781 61.2228C131.793 60.4994 132.734 60.0108 133.463 59.7889C134.285 59.5388 134.354 59.7572 134.161 59.6147L135.352 58.0035ZM135.352 58.0035L134.161 59.6147C136.415 61.2805 138.671 63.2987 140.755 65.5312L142.219 64.1638L143.684 62.7964C141.443 60.3964 139.006 58.2124 136.543 56.3922L135.352 58.0035ZM142.219 64.1638L141.774 62.2102C140.384 62.5271 138.261 63.2108 136.293 64.2689C134.412 65.2809 132.228 66.8701 131.384 69.1994L133.268 69.882L135.152 70.5645C135.47 69.686 136.513 68.7009 138.191 67.7981C139.784 66.9414 141.556 66.3699 142.665 66.1173L142.219 64.1638ZM142.219 64.1638L140.755 65.5312C143.808 68.8005 146.446 72.478 148.177 76.1121L149.986 75.2503L151.795 74.3884C149.85 70.3076 146.952 66.2967 143.684 62.7964L142.219 64.1638ZM149.986 75.2503L148.177 76.1121C149.688 79.2822 150.454 82.3033 150.318 84.9384L152.319 85.0419L154.32 85.1454C154.502 81.623 153.478 77.9213 151.795 74.3884L149.986 75.2503ZM149.986 75.2503L150.563 73.3314C148.337 72.6626 145.342 72.4686 142.512 73.0871C139.675 73.707 136.724 75.2154 135.066 78.2137L136.819 79.1834L138.573 80.1531C139.486 78.5022 141.215 77.4722 143.367 77.0019C145.525 76.5302 147.829 76.6942 149.41 77.1691L149.986 75.2503ZM121.994 52.0077L121.576 53.9674C124.157 54.5166 126.661 55.3176 128.963 56.4221L129.83 54.6156L130.696 52.809C128.059 51.5439 125.244 50.6511 122.411 50.048L121.994 52.0077ZM121.994 52.0077L121.211 50.1633C118.903 51.1427 116.418 53.0055 114.808 55.504C113.159 58.0631 112.399 61.3622 113.83 64.9127L115.688 64.1638L117.547 63.4148C116.69 61.2885 117.095 59.3529 118.176 57.6748C119.297 55.9362 121.109 54.5594 122.776 53.8521L121.994 52.0077ZM97.7027 53.1037L98.444 54.9651C99.7196 54.4571 101.643 53.9495 104.029 53.575L103.719 51.5957L103.408 49.6163C100.841 50.0191 98.6045 50.588 96.9614 51.2423L97.7027 53.1037ZM103.719 51.5957L104.029 53.575C108.909 52.8092 115.394 52.6512 121.576 53.9674L121.994 52.0077L122.411 50.048C115.662 48.6113 108.674 48.7898 103.408 49.6163L103.719 51.5957ZM103.719 51.5957L101.966 50.6245C101.492 51.4806 100.094 53.9012 99.843 56.9499C99.5796 60.1485 100.589 63.8613 104.536 67.1312L105.814 65.5884L107.092 64.0456C104.194 61.6442 103.676 59.226 103.837 57.2788C104.009 55.1817 104.986 53.4415 105.471 52.5669L103.719 51.5957Z" fill="black"/>
<path d="M191.473 100.087C193.243 98.7259 200.212 98.4536 203.316 100.087C206.42 101.721 209.918 99.6787 211.279 98.4536M212.505 108.867C207.672 110.024 200.98 108.867 186.54 105.914M213.525 114.584C207.672 113.904 198.661 113.359 191.473 115.809C182.489 118.872 187.185 131.328 191.473 131.532C194.904 131.695 199.709 131.6 201.683 131.532M223.598 164.436C223.69 160.988 223.811 156.36 223.933 151.503M201.503 139.46C201.432 143.312 201.348 147.503 201.265 151.503C201.161 156.436 201.058 161.078 200.98 164.436M201.265 151.503H212.599M223.933 151.503C224.035 147.465 224.138 143.269 224.227 139.46M223.933 151.503H212.599M201.503 139.46H224.227M224.38 132.561C224.441 129.571 224.479 127.297 224.479 126.251C224.479 121.11 218.83 118.76 215.667 118.614C212.505 118.467 201.683 118.467 201.683 126.251C201.683 127.66 201.659 129.869 201.619 132.561C201.588 134.624 201.548 136.971 201.503 139.46M224.227 139.46C224.285 136.937 224.338 134.585 224.38 132.561M224.38 132.561H201.619M212.599 151.503V163.841" stroke="black" stroke-width="4"/>
<circle cx="212.95" cy="126.471" r="2.86218" fill="#D9D9D9" stroke="black" stroke-width="2"/>
<circle cx="211.335" cy="186.246" r="19.7538" fill="white"/>
<path d="M211.335 206C222.244 206 231.088 197.156 231.088 186.246C231.088 175.336 222.244 166.492 211.335 166.492V206Z" fill="#970000"/>
<circle cx="211.335" cy="186.246" r="17.7538" stroke="black" stroke-width="4"/>
<circle cx="110.757" cy="93.7876" r="19.7538" fill="white"/>
<path d="M110.757 113.541C121.666 113.541 130.51 104.697 130.51 93.7876C130.51 82.8779 121.666 74.0339 110.757 74.0339V113.541Z" fill="#970000"/>
<circle cx="110.757" cy="93.7876" r="17.7538" stroke="black" stroke-width="4"/>
<circle cx="211.335" cy="186.246" r="7.60582" stroke="black" stroke-width="3"/>
<circle cx="110.757" cy="93.7877" r="7.60582" stroke="black" stroke-width="3"/>
</svg>
