<svg width="244" height="152" viewBox="0 0 244 152" fill="none" xmlns="http://www.w3.org/2000/svg">
<path d="M44.4311 144.579C45.7067 147.811 46.4192 148.551 44.9626 150.213C43.1905 152.235 41.3482 150.958 38.2655 148.619C35.1828 146.28 18.9188 128.528 17.4305 126.508C16.24 124.892 14.6667 116.197 14.0289 112.051H39.7538C39.364 114.355 40.0089 119.589 39.7538 124.181C39.4349 129.922 42.8365 140.54 44.4311 144.579Z" fill="white"/>
<path d="M10.9338 96.6895C15.0056 99.2806 36.3835 97.7691 45.5603 96.6895C44.5578 99.62 40.0344 116.578 38.9077 122.069C37.781 127.56 40.008 134.573 42.6299 138.891C42.6299 138.891 43.9999 143.51 50.9404 143.51C56.4928 143.51 61.1926 141.501 61.1926 141.501C61.1926 141.501 62.3871 140.742 67.3843 142.593C72.3814 144.444 78.2574 144.084 84.3147 140.482C86.2436 139.335 92.8573 135.997 94.7043 134.88C96.8943 133.556 98.8611 133.656 104.631 128.943C108.621 125.686 113.037 122.311 113.885 120.615C114.811 123.854 123.422 127.565 131.75 126.409C140.079 125.252 146.968 118.764 153.215 111.361C158.212 105.438 161.158 94.2411 162.006 89.3828H186.066C196.708 89.3828 206.194 82.4423 219.149 77.1212C229.514 72.8643 238.274 60.5412 241.359 54.9118C240.742 53.9093 238.814 51.8117 236.038 51.4415C232.567 50.9788 218.224 52.1356 209.433 53.061C202.4 53.8013 177.352 56.6083 165.708 57.9193C162.314 58.382 157.564 58.7983 165.708 56.7626C175.887 54.2179 203.417 43.807 203.417 43.807C203.417 43.807 230.855 19.2291 233.4 16.4529C235.436 14.2319 240.433 6.1742 241.359 2.62683C233.028 3.97989 211.88 9.57131 193.002 10.6818C169.405 12.0699 163.857 9.91364 153.215 13.8466C144.701 16.9929 130.928 30.3117 130.08 34.0904C127.689 32.1624 118.605 27.5662 101.393 24.605C84.1802 21.6437 67.3843 27.2269 61.1378 30.3887C47.0499 36.0001 19.4949 54.8265 13.0171 58.8982C4.91993 63.9879 1.20811 70.0048 1.43946 75.0945C1.62454 79.1662 9.93247 83.4447 13.0171 84.0617L9.77817 86.3752C2.14365 91.6962 5.84406 93.4507 10.9338 96.6895Z" fill="#D7B55E"/>
<path d="M43.3284 97.7249L14.0786 98.414L14.5381 112.733L39.4233 113.422L43.3284 97.7249Z" fill="#970000"/>
<path d="M61.9435 96.8897C60.4385 95.9979 50.6306 95.7981 44.2206 96.5533C43.4025 96.6497 42.6397 96.7616 41.9567 96.8897C36.6049 97.8929 23.1382 98.4513 14.8644 97.3815C13.808 97.2449 12.8362 97.0818 11.9769 96.8897C5.9046 95.5321 4.43514 87.2734 8.77232 86.8963C10.9253 86.7091 24.8032 83.2691 23.4335 74.3494C22.0639 65.4296 11.9769 70.492 11.9769 70.492C11.9769 70.492 14.7099 67.9573 19.7564 69.6053C26.7549 71.8906 23.7176 79.6797 19.7563 82.3563C11.6635 87.8247 -1.59811 78.7884 2.17291 70.492C5.94394 62.1956 13.959 58.8016 19.7564 54.6534C25.5537 50.5052 61.4512 23.7469 84.1565 23.7469C106.862 23.7469 128.946 27.7367 131.007 36.6156M61.9435 96.8897C63.7033 98.3981 68.5052 101.49 73.6338 101.792C78.7625 102.094 86.4556 101.918 89.661 101.792M61.9435 96.8897C61.6416 93.5585 62.4218 86.8963 67.9571 86.8963M44.2206 149.825C42.6286 150.49 39.9246 149.053 37.8098 147.611C33.6629 144.783 27.0621 137.24 19.7564 128.378C16.6407 124.599 15.228 118.137 14.7099 111.809C14.2562 106.266 14.4887 100.826 14.8644 97.3815M44.2206 96.5533C43.417 100.33 42.153 106.515 41.0789 112.314C40.137 117.4 39.3411 122.188 39.1297 124.796C38.6206 131.074 39.7913 131.855 43.0541 139.095C43.4169 139.9 43.8056 140.785 44.2206 141.766C46.2533 146.57 45.7503 149.185 44.2206 149.825M44.2206 141.766C46.1062 142.52 50.8955 143.802 54.9683 142.897C57.012 142.443 58.5999 141.989 60.0126 141.681M27.8944 112.061C27.7687 115.833 28.4197 125.889 31.5875 131.018C34.7552 136.147 41.3295 145.838 44.2206 149.825M14.7099 111.809L41.0789 112.314M114.435 121.24C113.424 122.251 105.514 127.543 102.564 129.731M43.0541 139.095C43.7186 135.458 45.929 127.846 49.4555 126.491M57.0401 128.759C55.722 130.371 53.0858 134.143 53.0858 136.344C53.0858 139.095 49.9713 143.171 50.7492 143.171M62.2262 130.075C60.7505 132.136 58.2418 137.342 60.0126 141.681M94.1204 135.299C89.5855 138.058 84.4747 140.911 81.9316 141.766C78.4305 142.943 73.047 142.972 69.0586 142.39C67.9349 142.227 66.9219 142.014 66.093 141.766C63.8358 141.089 62.119 141.222 60.0126 141.681M69.0586 142.39C68.2505 139.353 67.2307 132.825 69.6163 131.018M78.1865 142.551C77.6463 138.542 77.512 130.713 82.3869 130.075M90.9439 121.24C92.0027 121.002 94.1204 121.123 94.1204 123.509C94.1204 125.894 94.1204 132.363 94.1204 135.299M94.1204 135.299C97.5876 133.191 100.718 131.137 102.107 130.075C102.244 129.97 102.397 129.855 102.564 129.731M100.149 115.34C101.165 115.254 103.17 115.833 103.066 118.841C102.963 121.849 102.688 127.355 102.564 129.731" stroke="black" stroke-width="3" stroke-linecap="round" stroke-linejoin="round"/>
<path d="M19.6287 97.7249C16.3597 94.8898 16.7021 88.6788 19.6287 87.431M28.2652 84.9273C27.4468 84.9906 25.4695 86.9655 25.4695 88.8166C25.4695 90.6677 25.4695 96.013 28.8705 97.7249M37.8065 96.013C37.8065 96.013 34.7504 87.4105 36.2327 85.78C37.715 84.1494 38.518 84.2632 38.7341 84.2787M47.3795 96.013C46.4956 92.6096 45.5763 85.498 48.9705 84.2787M55.9827 96.013C54.7297 93.1418 52.9756 86.9656 55.9827 85.2295" stroke="black" stroke-width="3" stroke-linecap="round"/>
<path d="M63.2365 91.1798C65.4187 90.344 70.1176 89.3968 71.455 92.2942" stroke="black" stroke-width="3" stroke-linecap="round"/>
<path d="M109.838 113.482C110.78 117.379 115.607 125.437 127.373 126.493C139.139 127.549 150 114.865 153.959 108.391L161.502 88.216C171.746 89.2216 195.027 89.8375 206.189 84.2563C220.142 77.2798 224.667 75.2056 221.651 74.0743C226.113 71.4974 236.056 64.458 240.129 56.9158C240.757 55.3445 240.921 52.0134 236.546 51.2592C231.078 50.3165 171.118 58.2843 161.502 58.2843C179.037 49.6737 200.882 49.374 223.413 27.2969C233.529 17.3847 240.129 7.32615 241.449 5.25204C242.769 3.17794 243.9 0.538136 237.866 1.85802C231.833 3.1779 218.257 7.51469 209.394 9.40024C200.532 11.2858 185.071 9.58879 173.758 11.6629C162.444 13.737 156.222 10.9087 149.245 15.8111C142.269 20.7135 129.744 29.9462 131.064 37.1112" stroke="black" stroke-width="3" stroke-linecap="round" stroke-linejoin="round"/>
<circle cx="105.625" cy="64.8995" r="18.2752" fill="white" stroke="black" stroke-width="3" stroke-linecap="round"/>
<path d="M107.157 47.8231C115.965 48.4642 122.912 55.8115 122.912 64.7824C122.912 73.7533 115.965 81.1006 107.157 81.7417V47.8231Z" fill="#970000"/>
<circle cx="105.625" cy="64.8995" r="7.66098" fill="white" stroke="black" stroke-width="3" stroke-linecap="round"/>
<path d="M28.7034 57.4832H37.8523M29.739 64.9062L40.6143 63.3525M29.739 73.3646L40.6143 70.4505M29.739 78.7159L40.6143 76.9897M46.6562 50.9235L60.8113 47.471M49.4181 58.519L60.8113 55.0666M51.8349 63.3525H64.609M53.9064 73.3646L66.8531 72.3289M74.276 35.0422L86.7049 33.8339M72.895 44.5365L85.6691 42.8103M72.895 49.5426H85.6691M102.068 32.2802L114.152 33.8339M100.17 39.7031L114.152 40.9114M135.557 42.8103L146.893 36.2655M141.427 47.471L150.292 42.3526M146.893 53.513L157.358 47.471M132.795 70.4505V57.4832M140.046 57.4832V70.4505M147.814 57.4832V70.4505M62.3649 81.3054H70.9961M115.533 81.3054V97.8773M125.373 81.3054V92.0081M132.795 81.3054C133.52 82.1684 135.087 84.3335 135.557 86.0893C136.028 87.8451 133.912 90.7667 132.795 92.0081M143.325 79.5792L146.247 84.6391M96.8897 89.9366H106.902M96.8897 95.4605H106.902M96.8897 101.848H108.628M76.1748 76.9897H89.4668M78.7642 82.6864H90.6752M80.663 89.0735H90.6752M78.7642 97.0141H90.6752M160.243 21.405C163.58 21.1173 170.945 20.4383 173.707 20.024C176.469 19.6097 178.541 18.5854 179.231 18.1251M164.04 27.2742L179.231 25.7206M164.04 37.459C167.723 36.6534 176.089 35.0422 180.094 35.0422M164.903 44.5365C167.896 43.3282 174.501 40.9114 176.987 40.9114C179.473 40.9114 181.705 40.9114 182.511 40.9114M196.666 18.1251C198.508 17.3195 203.399 15.6739 208.232 15.5358C213.065 15.3977 218.624 11.7134 218.394 11.138M197.875 24.6849C199.831 24.5123 204.641 23.7528 208.232 22.0956C211.823 20.4383 214.677 20.024 215.655 20.024M194.422 32.2802C196.954 32.5104 202.639 32.5565 205.125 30.8994C207.611 29.2422 210.994 28.943 212.375 29.0005M158.516 67.1501H170.255M157.358 75.4363L172.499 74.5732M160.243 81.3054H172.499M183.892 64.9062L196.666 63.3525M182.511 70.4505H197.875M182.511 76.9897H197.875M210.303 59.7275H224.286M210.994 67.1501H221.006M210.303 73.3646H222.387" stroke="black" stroke-width="3" stroke-linecap="round"/>
<path d="M121.61 111.867C121.946 112.649 122.616 115.064 122.616 118.462C122.616 121.86 121.946 123.948 121.61 124.955M131.335 107.172C132.267 112.351 133.495 123.313 132.064 125.728M143.085 120.712C143.345 114.974 143.274 103.952 141.396 101.806M147.991 93.1988C148.811 94.0558 150.451 96.6641 150.451 100.241C150.451 103.818 150.451 108.96 150.451 111.867M152.686 86.6036C153.618 87.4979 156.023 88.9305 156.375 93.855C156.554 96.3589 156.226 99.7195 156.375 101.806" stroke="black" stroke-width="3" stroke-linecap="round"/>
</svg>
