<svg width="219" height="210" viewBox="0 0 219 210" fill="none" xmlns="http://www.w3.org/2000/svg">
<path d="M32.8471 136.68V146.968C32.1618 148.795 31.8806 157.456 29.4058 160.035C26.8597 162.689 19.8797 162.936 15.368 163.726C4.2465 165.672 3.20376 177.274 3.75983 187.561C4.31591 197.848 14.7746 199.239 24.5059 202.019C32.291 204.243 38.3151 197.57 40.3541 193.956C53.9779 193.4 82.7826 192.288 89.0106 192.288C95.2386 192.288 95.4981 194.883 94.8494 196.18C96.7956 204.799 102.634 205.911 107.917 207.302C113.2 208.692 112.088 199.517 116.258 200.351C120.429 201.185 119.039 207.024 125.99 207.302C132.94 207.58 134.331 199.239 134.887 196.18C135.443 193.122 140.725 198.682 151.847 198.96C160.744 199.183 165.934 195.809 167.417 193.956C165.285 191.824 159.632 192.288 167.417 192.288C173.779 192.288 186.231 190.712 192.162 187.561C202.45 182 198.835 171.435 196.055 165.318C194.295 161.446 189.364 155.302 173.812 154.197C158.26 153.091 156.868 151.868 155.461 149.226C154.055 146.584 153.558 142.241 154.226 136.68C155.06 129.729 151.425 130.485 144.196 130.485C136.967 130.485 137.111 136.729 137.111 143.414C137.111 151.199 136.833 150.86 137.111 160.035C137.389 169.211 131.272 169.767 128.77 171.435C126.268 173.103 101.244 173.659 89.0106 173.381C76.7769 173.103 58.7045 172.269 52.8657 166.986C47.027 161.703 48.4171 142.519 48.4171 136.68C48.4171 130.841 32.8471 129.729 32.8471 136.68Z" fill="white"/>
<path d="M102.381 181.402C94.162 188.462 101.942 199.009 106.86 203.4C112.55 205.296 115.202 201.731 115.817 199.711C116.52 201.731 119.321 205.85 124.906 206.166C131.887 206.561 132.941 199.975 133.731 195.891C134.522 191.808 130.57 184.168 128.199 181.402C125.828 178.636 112.656 172.576 102.381 181.402Z" fill="#F9DA8A"/>
<path d="M167.057 163.488C159.426 170.913 161.904 190.42 171.388 192.659C180.872 194.898 197.298 187.431 198.22 178.737C199.142 170.043 179.742 151.146 167.057 163.488Z" fill="#F9DA8A"/>
<path d="M20.7773 167.852C18.1428 171.277 22.2942 174.552 27.6948 180.48C30.5049 183.158 42.2633 190.464 47.3215 190.886C53.6441 191.413 50.9177 189.569 53.6839 181.402C56.4501 173.235 45.3456 156.375 38.496 158.087C32.7002 159.536 30.9643 160.853 29.3836 163.488C27.8029 166.122 23.4117 164.428 20.7773 167.852Z" fill="#F9DA8A"/>
<path d="M177.444 164.709C175.439 168.117 178.718 170.217 181.433 171.428C184.565 171.428 184.064 168.672 184.064 167.043C184.064 165.414 179.949 160.449 177.444 164.709Z" fill="#970000"/>
<path d="M189.89 171.428C184.628 171.428 186.444 176.969 186.444 176.969C186.444 176.969 187.697 182.579 191.957 183.205C196.217 183.832 195.515 180.9 196.217 178.695C197.094 175.939 195.152 171.428 189.89 171.428Z" fill="#970000"/>
<path d="M186.444 187.841C185.567 189.72 186.444 189.971 179.804 190.848C174.667 190.848 174.918 179.57 179.804 179.57C184.69 179.57 187.322 185.962 186.444 187.841Z" fill="#970000"/>
<path d="M173.79 178.695C172.187 182.303 168.779 183.205 165.897 180.574C163.015 177.943 165.847 170.883 169.456 170.282C173.966 169.53 175.795 174.185 173.79 178.695Z" fill="#970000"/>
<path d="M119.164 181.702C120.041 182.829 119.396 185.836 117.767 186.839C116.139 187.841 113.341 187.098 112.339 185.469C111.336 183.84 111.063 180.445 113.025 179.57C114.987 178.695 118.287 180.574 119.164 181.702Z" fill="#970000"/>
<path d="M120.785 189.044C117.076 189.044 116.659 194.623 119.164 197.589C121.67 200.556 124.802 198.866 125.93 195.985C127.057 193.103 125.421 189.044 120.785 189.044Z" fill="#970000"/>
<path d="M113.025 194.857C113.025 198.065 110.102 197.488 107.262 196.737C104.422 195.985 102.751 187.34 105.758 186.839C108.765 186.338 113.025 190.848 113.025 194.857Z" fill="#970000"/>
<path d="M44.8232 167.541C44.694 169.738 43.6602 171.34 40.9465 171.211C38.362 171.211 37.4574 167.541 37.4574 164.956C37.4574 162.372 39.6542 161.05 41.9803 161.179C44.3063 161.308 44.9524 165.344 44.8232 167.541Z" fill="#970000"/>
<path d="M40.9465 176.974C37.9743 177.491 39.1373 183.204 41.9803 184.082C44.8232 184.959 45.7277 183.048 45.857 179.946C45.9862 176.845 43.9186 176.457 40.9465 176.974Z" fill="#970000"/>
<path d="M25.301 171.211C23.6211 173.537 27.2488 176.974 28.1533 176.974C28.8856 177.172 31.0221 177.449 33.7099 176.974C37.0697 176.381 34.6145 172.322 33.7099 169.608C32.8054 166.895 26.9809 168.885 25.301 171.211Z" fill="#970000"/>
<path d="M54.3028 170.469C50.1322 161.219 48.8862 151.095 48.8862 144.233C48.8862 139.231 55.5417 133.925 59.364 132.935C66.5084 131.084 67.6342 142.789 67.798 150.461C68.3835 144.582 72.1789 133.937 77.2277 134.137C84.737 134.436 84.9364 143.312 84.7184 150.923C85.2676 143.843 87.3989 136.027 93.0302 136.027C104.767 136.027 106.583 143.417 106.738 155.902C107.306 149.452 110.827 141.307 116.408 137.065C123.081 131.992 131.027 139.127 132.88 145.989C134.734 152.852 137.025 167.496 133.911 172.27C130.018 178.237 99.7985 178.248 90.6233 177.651C81.448 177.054 58.4734 179.719 54.3028 170.469Z" fill="white"/>
<path d="M68.1578 157.255L49.9035 154.903L53.9065 169.766C55.2967 175.049 68.4359 177.164 84.8401 177.72C101.244 178.276 130.23 175.575 133.566 172.516C136.235 170.07 138.779 160.035 137.667 157.255L108.473 159.201L84.8401 157.255L68.1578 157.255Z" fill="#970000"/>
<path d="M47.0271 94.1403L56.4016 132.231C68.1579 130.251 67.2311 140.943 68.1579 145.299C67.7872 143.168 73.5648 134.57 79.348 134.57C85.1312 134.57 85.3962 143.749 85.3962 141.963C85.3962 136.68 92.0716 134.57 100.135 134.57C106.585 134.57 108.566 143.538 109.307 147.245C111.717 143.724 118.093 136.569 124.321 136.124C130.549 135.679 136.309 149.418 137.143 150.53C137.328 148.306 136.752 135.568 140.088 132.231C143.425 128.895 146.184 128.861 150.077 130.251C156.826 121.882 184.876 125.188 196.664 125.837C216.457 123.056 215.796 109.432 213.293 101.925C211.291 95.9198 207.269 94.233 205.508 94.1403C215.796 90.8039 218.576 70.5072 213.293 68.5609C209.067 67.0039 200.446 65.9115 196.664 65.56C209.176 58.609 208.011 45.2058 205.508 40.4791C203.006 35.7525 196.611 31.86 187.158 35.7525C179.595 38.8665 171.032 43.3522 167.695 45.2058C180.207 33.5282 180.207 9.33894 179.929 7.11464C179.651 4.89034 173.534 3.77819 170.754 9.33894C167.973 14.8997 161.3 18.7922 155.184 24.0749C149.067 29.3576 105.415 51.3225 85.3962 58.8295C69.3812 64.8351 53.1439 84.8724 47.0271 94.1403Z" fill="#ECDEBA"/>
<path d="M26.6477 92.5449L35.0182 132.297C35.0182 132.297 41.7191 134.1 45.1528 135.446C48.5864 136.792 50.4447 142.825 50.4447 142.825C50.4447 142.825 54.3777 132.56 55.3429 132.297L38.4944 76.4861C37.0903 74.0291 32.7553 69.1676 26.6477 69.3782C19.0132 69.6415 9.53587 74.9066 7.4298 87.0166C5.32373 99.1265 14.2745 106.498 21.6458 105.708C27.5428 105.076 27.4375 96.6693 26.6477 92.5449Z" fill="#D7B55E"/>
<path d="M34.9649 134.064C29.6294 134.598 31.23 153.806 31.23 159.141C31.23 164.477 18.9584 160.208 8.28739 167.678C-2.38362 175.148 2.95188 195.423 14.1564 201.292C25.361 207.161 39.2333 198.091 40.3004 192.755C41.1541 188.486 34.6092 183.862 31.23 182.084C25.377 177.524 38.7509 187.298 46.1695 192.755C52.2164 192.755 64.3865 192.129 71.6428 192.129C80.7131 192.129 91.5213 187.953 94.7226 195.423C97.9239 202.893 96.8568 207.161 104.86 207.161C112.863 207.161 116.107 201.292 116.107 201.292C116.107 201.292 121.4 207.161 127.269 207.161C133.138 207.161 135.237 195.423 135.237 195.423C144.902 201.292 159.462 197.998 170.133 192.129M34.9649 134.064C39.2333 133.638 44.5179 133.532 46.1695 136.24C47.8211 138.949 48.7305 147.723 50.4379 155.406C51.7106 161.134 52.2244 166.482 54.9213 170.318M34.9649 134.064V135.642L26.0786 92.3736C26.9062 97.3389 26.0786 106.773 16.1481 104.787C3.73492 102.304 2.82572 87.6034 12.2468 77.8325C22.1489 67.5627 25.389 66.0154 34.9649 69.9167C42.6256 73.0377 50.876 115.427 54.9401 135.642M164.17 179.441C163.709 190.862 172.332 196.62 184.893 192.755C198.765 188.486 202.701 179.441 199.832 171.947C196.208 162.479 191.523 155.406 180.852 155.406C170.181 155.406 161.751 153.423 156.949 149.688C152.147 145.953 153.947 139.4 153.947 134.064C153.947 132.11 151.799 131.155 149.077 130.965M164.17 179.441C164.218 178.248 163.918 177.606 164.17 176.294C166.304 165.196 165.208 173.564 164.17 179.441ZM135.237 170.318C132.177 174.131 126.9 175.681 121.4 175.681C119.206 175.681 115.143 175.822 110.119 175.996C103.332 176.23 94.7893 176.523 86.7241 176.607C80.4338 176.672 74.4339 176.61 69.7836 176.294C67.6367 176.148 65.7775 175.948 64.3102 175.681C59.5722 174.82 56.7467 172.915 54.9213 170.318M54.9213 170.318C52.68 162.898 48.6455 146.85 50.4379 142.026C51.1718 140.051 52.8832 137.534 54.9401 135.642M69.7836 176.294C69.7836 166.881 69.7836 146.85 69.7836 142.026C69.7836 135.997 83.534 128.646 84.9526 142.026M69.7836 176.294C69.5792 171.861 68.9178 161.932 67.7052 151.313M84.9526 142.026C86.0875 152.73 86.6065 169.54 86.7241 176.607M110.119 175.996C109.533 166.998 107.974 149.688 106.085 142.026C105.147 138.226 99.4316 135.842 95.9503 135.642C90.6787 135.34 84.9526 138.94 84.9526 142.026M208.14 41.9459C211.872 48.7905 210.96 58.4675 199.832 64.355C197.619 65.5257 193.058 67.4757 186.978 69.9167C165.058 78.7167 123.402 93.8975 100.912 101.949C100.912 101.949 96.8075 109.426 93.008 120.196C89.2086 130.965 84.9526 142.026 84.9526 142.026M110.119 175.996C108.973 166.091 110.21 142.594 114.39 139.189C119.614 134.933 129.64 137.416 131.413 142.026C132.832 145.715 134.199 162.425 135.237 170.318M135.237 170.318C136.927 168.212 137.94 165.416 137.94 161.809C137.94 151.672 137.94 140.444 137.94 135.642C137.94 132.599 144.368 130.637 149.077 130.965M54.9401 135.642C59.1624 131.76 64.8408 130.518 66.5102 142.026C66.9563 145.102 67.3539 148.236 67.7052 151.313M94.7226 83.5069C94.7226 83.5069 145.671 59.4608 161.56 51.2327C181.421 40.9475 181.158 -0.193586 175.746 3.35292C173.19 5.02826 175.677 0.785026 174.014 3.35292C172.157 6.22096 166.083 15.9643 161.56 18.9585C152.986 24.6334 144.42 28.8893 127.269 39.1742C110.119 49.4592 84.9526 57.6164 69.7836 66.8378C54.6145 76.0593 46.1695 95.5656 46.1695 95.5656M174.014 3.35292C173.757 8.61694 166.88 27.6119 156.949 35.2727C147.019 42.9334 104.814 66.8378 84.9526 77.8325M167.655 46.5546C170.422 44.6631 179.726 39.7414 184.893 37.7553C191.351 35.2727 200.573 32.4359 206.247 39.1742C206.964 40.0255 207.601 40.9561 208.14 41.9459M208.14 41.9459L100.912 95.5656M108.317 147.535C108.317 132.076 128.675 107.057 147.117 104.787C170.17 101.949 201.876 101.24 208.14 92.3736C211.143 88.1238 214.424 82.652 215.813 77.8325M186.978 69.9167C191.262 68.0628 202.037 64.8515 210.858 66.8378C216.599 68.1307 217.323 72.5966 215.813 77.8325M95.9503 135.642C101.507 124.897 120.82 104.128 137.94 98.0479C156.65 91.4029 197.729 81.8519 215.813 77.8325M149.077 130.965C156.949 122.094 191.012 126.563 199.832 124.293C210.858 121.456 215.813 117.2 215.813 112.234M215.813 112.234C215.813 107.269 213.823 97.6935 204.257 95.5656M215.813 112.234C198.599 113.062 164.286 113.938 150.565 115.924C136.844 117.91 125.933 130.322 123.965 135.642M69.7836 122.094L67.7052 151.313" stroke="black" stroke-width="5"/>
<path d="M77.6819 124.294C91.0992 124.294 101.976 113.417 101.976 100V99.9992H53.3877V100C53.3879 113.417 64.2648 124.294 77.6819 124.294Z" fill="#970000"/>
<path d="M77.6819 75.7039C91.0992 75.7039 101.976 86.581 101.976 99.9982V99.9992H53.3877V99.9982C53.3879 86.5811 64.2648 75.704 77.6819 75.7039Z" fill="white"/>
<circle cx="77.682" cy="99.9986" r="22.2943" stroke="black" stroke-width="4"/>
<circle cx="77.6821" cy="99.9986" r="5.27056" fill="white" stroke="black" stroke-width="4"/>
</svg>
