<svg width="217" height="183" viewBox="0 0 217 183" fill="none" xmlns="http://www.w3.org/2000/svg">
<path d="M10.2473 46.4127C13.5759 39.4227 15.9059 35.4284 31.883 33.0984C47.8601 30.7684 116.096 22.7797 145.72 53.4026C146.83 44.8592 152.976 25.5092 168.687 16.4554C188.326 5.13831 196.314 2.80819 203.97 1.80962C211.626 0.811048 216.619 1.80964 215.287 11.1296C213.956 20.4496 208.297 42.7512 196.314 53.4026C184.332 64.054 176.01 70.0454 172.349 73.0411C168.687 76.0368 165.026 72.7083 168.687 80.0311C172.349 87.354 184.332 144.605 168.687 172.898C167.579 176.648 163.813 182.218 156.574 181.341C154.39 181.076 151.889 180.224 149.049 178.557C147.869 177.865 146.662 177.243 145.438 176.686C142.333 175.272 139.118 174.273 135.971 173.587C127.467 171.734 119.455 172.166 115.43 172.898H103.78C102.203 172.898 101.422 172.545 101.195 171.902C100.799 170.781 102.088 168.78 103.78 166.241C104.719 164.833 106.444 161.811 108.284 157.832C109.384 155.454 110.525 152.734 111.563 149.812C113.716 143.756 115.43 136.834 115.43 130.293C113.894 131.529 111.58 133.161 108.841 134.748C105.762 136.533 102.144 138.263 98.4877 139.315C95.7666 140.097 93.0241 140.504 90.4658 140.278C89.777 140.217 89.1266 140.152 88.5111 140.084C84.7534 139.668 82.2975 139.138 80.3486 138.777C77.3721 138.225 75.5783 138.068 72.1361 139.315C70.0468 140.071 67.672 139.971 65.3624 139.315C62.7563 138.574 60.2331 137.123 58.2964 135.394C56.9668 134.207 55.9136 132.888 55.2998 131.576C53.8384 128.454 51.4066 127.231 48.8887 127.022C47.4428 126.902 45.9684 127.116 44.6333 127.498C42.7871 128.025 39.105 128.553 35.2513 128.409C31.5882 128.273 27.77 127.53 25.2259 125.605C25.1402 125.54 25.0561 125.474 24.9734 125.406C22.7917 123.625 19.3043 121.162 15.7885 118.247C12.5726 115.58 9.33293 112.535 7.04684 109.287C5.96226 107.746 5.09232 106.159 4.54139 104.546C1.55963 95.8136 1.34665 93.6838 1.55963 91.3409C1.73001 89.4667 6.60022 90.56 9.01402 91.3409C7.66513 88.4302 5.18033 81.5437 6.03226 77.2841C6.8842 73.0244 10.2209 65.0021 11.7828 61.5234C10.5049 60.9554 7.90651 58.9676 7.73613 55.5598C7.56574 52.1521 9.33924 48.0418 10.2473 46.4127Z" fill="#7E4841"/>
<path d="M25.2259 42.4184C26.0025 45.1921 26.5573 51.2722 22.563 53.4026C17.5701 56.0655 6.91871 53.4027 10.2473 46.4127M10.2473 46.4127C13.5759 39.4227 15.9059 35.4284 31.883 33.0984C47.8601 30.7684 116.096 22.7797 145.72 53.4026C146.83 44.8592 152.976 25.5092 168.687 16.4554C188.326 5.13831 196.314 2.80819 203.97 1.80962C211.626 0.811048 216.619 1.80964 215.287 11.1296C213.956 20.4496 208.297 42.7512 196.314 53.4026C184.332 64.054 176.01 70.0454 172.349 73.0411C168.687 76.0368 165.026 72.7083 168.687 80.0311C172.349 87.354 184.332 144.605 168.687 172.898C167.579 176.648 163.813 182.218 156.574 181.341M10.2473 46.4127C9.33924 48.0418 7.56574 52.1521 7.73613 55.5598C7.90651 58.9676 10.5049 60.9554 11.7828 61.5234C10.2209 65.0021 6.8842 73.0244 6.03226 77.2841C5.18033 81.5437 7.66513 88.4302 9.01402 91.3409M115.43 130.293C113.894 131.529 111.58 133.161 108.841 134.748M115.43 130.293C116.127 128.952 117.419 126.503 119.033 123.512M108.284 157.832C109.384 155.454 110.525 152.734 111.563 149.812C113.716 143.756 115.43 136.834 115.43 130.293M15.7885 91.3409H9.01402C6.60022 90.56 1.73001 89.4667 1.55963 91.3409C1.34665 93.6838 1.55963 95.8136 4.54139 104.546C5.09232 106.159 5.96226 107.746 7.04684 109.287C9.33293 112.535 12.5726 115.58 15.7885 118.247M38.0397 106.619L63.5782 109.287M44.6333 100.139H69.2958M63.5782 70.4073C66.8243 70.1788 71.9797 70.0069 77.7252 70.1474M77.7252 70.1474C85.4653 70.3367 94.2764 71.0929 100.933 73.0411C101.504 73.2082 102.067 73.3757 102.624 73.5436C108.432 75.2965 113.448 77.0905 117.516 78.799C122.956 81.0839 126.701 83.2158 128.377 84.8919C130.817 87.3314 120.762 90.2077 115.43 91.3409M122.985 116.299C123.505 115.365 124.034 114.421 124.566 113.48C126.056 110.843 125.798 107.691 124.648 104.546C123.435 101.233 121.231 97.9283 119.033 95.2445C117.766 93.6982 116.502 92.3579 115.43 91.3409M103.78 90.263C105.671 90.6354 107.678 90.9212 109.804 91.1046C111.594 91.259 113.468 91.3409 115.43 91.3409M77.7252 70.1474C78.5637 75.1144 84.1245 83.5735 96.3081 88.1589M27.4958 64.3485L31.883 67.0013M48.8887 77.2841L65.1656 87.1261L72.1361 91.3409H22.563M22.563 91.3409L29.2684 66.786M22.563 91.3409H15.7885M15.7885 91.3409L19.9618 68.3371M31.883 67.0013L35.2513 62.7974M48.8887 77.2841L40.7334 72.3528L31.883 67.0013M40.7334 72.3528L45.8875 66.786M48.8887 77.2841L55.2998 73.0411M58.2964 81.6323L65.1656 77.2841M65.1656 87.1261L74.2507 84.8919M12.871 62.7974C14.4574 63.4253 18.6168 64.0495 22.563 61.5234C26.5092 58.9972 28.6776 56.4951 29.2684 55.5598M84.4437 107.78L98.6253 109.287M85.7732 102.683H93.7504M103.78 104.546L100.933 101.575M84.4437 95.8139C86.438 94.706 91.0913 92.9776 93.7504 94.9276M7.04684 109.287L14.6437 104.546M25.2259 109.287L15.7885 118.247M48.8887 127.022C47.4428 126.902 45.9684 127.116 44.6333 127.498C42.7871 128.025 39.105 128.553 35.2513 128.409C31.5882 128.273 27.77 127.53 25.2259 125.605C25.1402 125.54 25.0561 125.474 24.9734 125.406C22.7917 123.625 19.3043 121.162 15.7885 118.247M31.883 114.649L25.2259 125.605M42.5637 116.865L35.2513 128.409M55.2998 118.247L48.8887 127.022M98.4877 139.315C95.7666 140.097 93.0241 140.504 90.4658 140.278C89.777 140.217 89.1266 140.152 88.5111 140.084C79.0144 139.033 77.8322 137.252 72.1361 139.315C70.0468 140.071 67.672 139.971 65.3624 139.315C62.7563 138.574 60.2331 137.123 58.2964 135.394C56.9668 134.207 55.9136 132.888 55.2998 131.576C53.8384 128.454 51.4066 127.231 48.8887 127.022M63.5782 119.745C64.048 120.947 64.1368 124.362 60.7339 128.409C57.3309 132.457 57.691 134.752 58.2964 135.394M74.2507 120.853C74.9091 124.546 75.408 132.154 72.1361 133.041C68.8642 133.927 66.257 137.593 65.3624 139.315M80.4551 120.853C80.8983 123.084 81.5187 128.094 80.4551 130.293C79.3915 132.491 80.012 137.223 80.4551 139.315M90.4658 123.512C91.1437 124.928 92.0927 128.522 90.4658 131.576C88.839 134.63 88.4848 138.521 88.5111 140.084M98.6253 121.436C100.808 122.705 104.895 125.876 103.78 128.409C102.665 130.943 99.7874 136.735 98.4877 139.315M98.4877 139.315C102.144 138.263 105.762 136.533 108.841 134.748M105.449 118.247C107.212 119.977 110.739 124.122 110.739 126.865C110.739 129.607 109.474 133.263 108.841 134.748M110.739 113.48C114.041 114.564 120.323 118.088 119.033 123.512M119.033 123.512C120.214 121.324 121.567 118.845 122.985 116.299M112.409 107.78C116.771 109.101 124.992 112.655 122.985 116.299M108.841 102.683C112.867 101.724 121.664 100.753 124.648 104.546M106.424 95.8139C109.309 94.4107 115.871 92.3322 119.033 95.2445M128.306 127.022L120.998 135.394M127.283 142.104L111.563 149.812M127.283 152.335L108.284 157.832M108.284 157.832C106.444 161.811 104.719 164.833 103.78 166.241C102.088 168.78 100.799 170.781 101.195 171.902M121.875 163.88L101.195 171.902M145.438 176.686C142.333 175.272 139.118 174.273 135.971 173.587C127.467 171.734 119.455 172.166 115.43 172.898C112.989 172.898 107.242 172.898 103.78 172.898C102.203 172.898 101.422 172.545 101.195 171.902M135.971 173.587L139.087 157.832M149.049 159.954L145.438 176.686M145.438 176.686C146.662 177.243 147.869 177.865 149.049 178.557C151.889 180.224 154.39 181.076 156.574 181.341M159.472 161.464L156.574 181.341M162.995 130.293L159.472 147.622M152.677 131.576C151.838 132.813 150.412 136.091 151.419 139.315C152.425 142.538 150.258 147.656 149.049 149.812M142.107 130.293C143.114 132.096 144.523 136.618 142.107 140.278C139.691 143.939 140.094 148.159 140.597 149.812M159.472 98.5477C158.297 103.693 156.653 114.56 159.472 116.865M151.419 91.3409C149.839 97.2557 147.153 110.528 149.049 116.299M140.597 95.2445C142.107 100.827 143.919 113.543 139.087 119.745M35.2513 43.6386C40.4127 41.9005 51.3665 39.223 53.8905 42.4184M59.324 43.6386C66.3935 42.7139 80.7078 41.4194 81.4089 43.6386M34.0842 52.4024C39.5154 50.55 50.87 47.5009 52.8388 50.1238M60.7339 51.5261C65.5806 50.7657 76.5012 49.8765 81.4089 52.4024M60.7339 59.4135C66.6139 58.3626 78.9811 57.3133 81.4089 61.5234M40.7334 59.4135C44.9485 59.1751 53.763 59.2632 55.2998 61.5234M96.4827 46.4127C98.3588 46.2475 102.445 46.4781 103.78 48.7216C106.657 47.7868 112.409 47.039 112.409 51.5261M93.7504 57.1349C95.8752 56.4901 100.287 55.8327 100.933 58.3619C103.578 58.0091 109.056 57.7256 109.804 59.4135M91.7503 65.3729C96.0213 64.7234 104.935 64.0968 106.424 66.786M124.566 51.5261C128 51.9329 135.044 53.6242 135.745 57.1349M119.97 59.4135C123.709 59.0734 131.398 59.789 132.239 65.3729M144.684 68.3371C147.768 69.8701 153.684 74.3551 152.677 80.0311M137.147 73.0411C140.005 74.6333 145.72 78.9043 145.72 83.2512M133.116 80.0311C134.927 81.3966 138.269 84.9338 137.147 88.1589M117.516 65.3729C121.781 67.0215 129.365 70.3678 129.785 74.6626M152.677 55.472C159.472 49.8796 165.83 40.1931 165.83 40.1931M176.18 23.1892C179.384 20.0677 181.355 14.3566 187.27 14.6031C193.184 14.8495 192.234 14.2766 192.445 11.1296C192.655 7.98271 198.606 6.18523 198.606 6.18523M183.08 25.6535C185.955 21.9037 188.995 17.7676 195.155 16.4554C201.316 15.1433 203.97 9.63455 203.97 9.63455M187.27 33.0984C188.781 30.6168 192.445 23.1892 196.314 25.6535C200.184 28.1178 202.795 23.1892 202.302 20.7248C201.908 18.7534 204.931 17.0571 206.491 16.4554M162.995 66.786C169.901 63.957 179.63 52.4024 179.63 52.4024M156.574 59.4135C159.472 60.9759 175.342 48.6319 174.948 46.4127M96.3081 88.1589C92.1732 86.3374 92.4329 77.2841 99.7303 77.2841M96.3081 88.1589C98.567 89.0091 101.054 89.7261 103.78 90.263M103.78 90.263C104.661 89.3664 110.646 87.1261 107.038 78.799M117.516 78.799C116.953 82.1684 114.623 89.3465 109.804 91.1046" stroke="black" stroke-width="3" stroke-linecap="round"/>
<path d="M78.1259 70.5401C85.2145 68.0744 109.93 72.9439 128.73 85.2718C123.332 87.9006 114.72 90.3021 105.854 89.7357C105.801 89.8514 105.745 89.8483 105.692 89.725C102.7 89.5217 99.6807 88.9787 96.748 87.9908C89.4026 85.5163 82.6004 80.2506 78.1259 70.5401Z" fill="white"/>
<path d="M103.2 99.1837C89.2268 104.966 69.472 101.091 64.6537 92.8597H52.608L71.2788 91.3533L29.4201 65.1546C12.8574 60.9378 6.2993 65.1545 6.83454 74.7908C7.36979 84.427 4.12427 85.3304 12.5562 91.3533L2.01628 92.8597C2.61856 110.627 21.2893 124.48 29.4201 127.792C37.551 131.105 44.4772 124.781 50.1989 127.792C55.9206 130.804 57.1252 134.417 62.2446 138.031C67.364 141.645 71.5799 138.633 76.3982 138.031C81.2165 137.429 81.8187 141.946 98.9838 140.44C112.716 139.236 120.164 124.078 122.473 116.951C126.087 112.434 117.173 93.4019 103.2 99.1837Z" fill="white"/>
<path d="M25.2259 42.4184C26.0025 45.1921 26.5573 51.2722 22.563 53.4026C17.5701 56.0655 6.91871 53.4027 10.2473 46.4127M10.2473 46.4127C13.5759 39.4227 15.9059 35.4284 31.883 33.0984C47.8601 30.7684 116.096 22.7797 145.72 53.4026C146.83 44.8592 152.976 25.5092 168.687 16.4554C188.326 5.13831 196.314 2.80819 203.97 1.80962C211.626 0.811048 216.619 1.80964 215.287 11.1296C213.956 20.4496 208.297 42.7512 196.314 53.4026C184.332 64.054 176.01 70.0454 172.349 73.0411C168.687 76.0368 165.026 72.7083 168.687 80.0311C172.349 87.354 184.332 144.605 168.687 172.898C167.579 176.648 163.813 182.218 156.574 181.341M10.2473 46.4127C9.33924 48.0418 7.56574 52.1521 7.73613 55.5598C7.90651 58.9676 10.5049 60.9554 11.7828 61.5234C10.2209 65.0021 6.8842 73.0244 6.03226 77.2841C5.18033 81.5437 7.66513 88.4302 9.01402 91.3409M115.43 130.293C113.894 131.529 111.58 133.161 108.841 134.748M115.43 130.293C116.127 128.952 117.419 126.503 119.033 123.512M108.284 157.832C109.384 155.454 110.525 152.734 111.563 149.812C113.716 143.756 115.43 136.834 115.43 130.293M15.7885 91.3409H9.01402C6.60022 90.56 1.73001 89.4667 1.55963 91.3409C1.34665 93.6838 1.55963 95.8136 4.54139 104.546C5.09232 106.159 5.96226 107.746 7.04684 109.287C9.33293 112.535 12.5726 115.58 15.7885 118.247M38.0397 106.619C38.0397 106.619 46.6627 106.619 50.9812 106.619C55.2998 106.619 63.5782 109.287 63.5782 109.287M44.6333 100.139C44.6333 100.139 49.8657 99.469 55.2998 98.5477C60.7339 97.6263 69.2958 100.139 69.2958 100.139M63.5782 70.4073C66.8243 70.1788 71.9797 70.0069 77.7252 70.1474M77.7252 70.1474C85.4653 70.3367 94.2764 71.0929 100.933 73.0411C101.504 73.2082 102.067 73.3757 102.624 73.5436C108.432 75.2965 113.448 77.0905 117.516 78.799C122.956 81.0839 126.701 83.2158 128.377 84.8919C130.817 87.3314 120.762 90.2077 115.43 91.3409M122.985 116.299C123.505 115.365 124.034 114.421 124.566 113.48C126.056 110.843 125.798 107.691 124.648 104.546C123.435 101.233 121.231 97.9283 119.033 95.2445C117.766 93.6982 116.502 92.3579 115.43 91.3409M103.78 90.263C105.671 90.6354 107.678 90.9212 109.804 91.1046C111.594 91.259 113.468 91.3409 115.43 91.3409M77.7252 70.1474C78.5637 75.1144 84.1245 83.5735 96.3081 88.1589M27.4958 64.3485L31.883 67.0013M48.8887 77.2841L65.1656 87.1261L72.1361 91.3409H22.563M22.563 91.3409L29.2684 66.786M22.563 91.3409H15.7885M15.7885 91.3409L19.9618 68.3371M31.883 67.0013L35.2513 62.7974M48.8887 77.2841L40.7334 72.3528L31.883 67.0013M40.7334 72.3528L45.8875 66.786M48.8887 77.2841L55.2998 73.0411M58.2964 81.6323L65.1656 77.2841M65.1656 87.1261L74.2507 84.8919M12.871 62.7974C14.4574 63.4253 18.6168 64.0495 22.563 61.5234C26.5092 58.9972 28.6776 56.4951 29.2684 55.5598M84.4437 107.78L98.6253 109.287M85.7732 102.683H93.7504M103.78 104.546L100.933 101.575M84.4437 95.8139C86.438 94.706 91.0913 92.9776 93.7504 94.9276M7.04684 109.287L14.6437 104.546M25.2259 109.287L15.7885 118.247M48.8887 127.022C47.4428 126.902 45.9684 127.116 44.6333 127.498C42.7871 128.025 39.105 128.553 35.2513 128.409C31.5882 128.273 27.77 127.53 25.2259 125.605C25.1402 125.54 25.0561 125.474 24.9734 125.406C22.7917 123.625 19.3043 121.162 15.7885 118.247M31.883 114.649L25.2259 125.605M42.5637 116.865L35.2513 128.409M55.2998 118.247L48.8887 127.022M98.4877 139.315C95.7666 140.097 93.0241 140.504 90.4658 140.278C89.777 140.217 89.1266 140.152 88.5111 140.084C79.0144 139.033 77.8322 137.252 72.1361 139.315C70.0468 140.071 67.672 139.971 65.3624 139.315C62.7563 138.574 60.2331 137.123 58.2964 135.394C56.9668 134.207 55.9136 132.888 55.2998 131.576C53.8384 128.454 51.4066 127.231 48.8887 127.022M63.5782 119.745C64.048 120.947 64.1368 124.362 60.7339 128.409C57.3309 132.457 57.691 134.752 58.2964 135.394M74.2507 120.853C74.9091 124.546 75.408 132.154 72.1361 133.041C68.8642 133.927 66.257 137.593 65.3624 139.315M80.4551 120.853C80.8983 123.084 81.5187 128.094 80.4551 130.293C79.3915 132.491 80.012 137.223 80.4551 139.315M90.4658 123.512C91.1437 124.928 92.0927 128.522 90.4658 131.576C88.839 134.63 88.4848 138.521 88.5111 140.084M98.6253 121.436C100.808 122.705 104.895 125.876 103.78 128.409C102.665 130.943 99.7874 136.735 98.4877 139.315M98.4877 139.315C102.144 138.263 105.762 136.533 108.841 134.748M105.449 118.247C107.212 119.977 110.739 124.122 110.739 126.865C110.739 129.607 109.474 133.263 108.841 134.748M110.739 113.48C114.041 114.564 120.323 118.088 119.033 123.512M119.033 123.512C120.214 121.324 121.567 118.845 122.985 116.299M112.409 107.78C116.771 109.101 124.992 112.655 122.985 116.299M108.841 102.683C112.867 101.724 121.664 100.753 124.648 104.546M106.424 95.8139C109.309 94.4107 115.871 92.3322 119.033 95.2445M128.306 127.022L120.998 135.394M127.283 142.104L111.563 149.812M127.283 152.335L108.284 157.832M108.284 157.832C106.444 161.811 104.719 164.833 103.78 166.241C102.088 168.78 100.799 170.781 101.195 171.902M121.875 163.88L101.195 171.902M145.438 176.686C142.333 175.272 139.118 174.273 135.971 173.587C127.467 171.734 119.455 172.166 115.43 172.898C112.989 172.898 107.242 172.898 103.78 172.898C102.203 172.898 101.422 172.545 101.195 171.902M135.971 173.587L139.087 157.832M149.049 159.954L145.438 176.686M145.438 176.686C146.662 177.243 147.869 177.865 149.049 178.557C151.889 180.224 154.39 181.076 156.574 181.341M159.472 161.464L156.574 181.341M162.995 130.293L159.472 147.622M152.677 131.576C151.838 132.813 150.412 136.091 151.419 139.315C152.425 142.538 150.258 147.656 149.049 149.812M142.107 130.293C143.114 132.096 144.523 136.618 142.107 140.278C139.691 143.939 140.094 148.159 140.597 149.812M159.472 98.5477C158.297 103.693 156.653 114.56 159.472 116.865M151.419 91.3409C149.839 97.2557 147.153 110.528 149.049 116.299M140.597 95.2445C142.107 100.827 143.919 113.543 139.087 119.745M35.2513 43.6386C40.4127 41.9005 51.3665 39.223 53.8905 42.4184M59.324 43.6386C66.3935 42.7139 80.7078 41.4194 81.4089 43.6386M34.0842 52.4024C39.5154 50.55 50.87 47.5009 52.8388 50.1238M60.7339 51.5261C65.5806 50.7657 76.5012 49.8765 81.4089 52.4024M60.7339 59.4135C66.6139 58.3626 78.9811 57.3133 81.4089 61.5234M40.7334 59.4135C44.9485 59.1751 53.763 59.2632 55.2998 61.5234M96.4827 46.4127C98.3588 46.2475 102.445 46.4781 103.78 48.7216C106.657 47.7868 112.409 47.039 112.409 51.5261M93.7504 57.1349C95.8752 56.4901 100.287 55.8327 100.933 58.3619C103.578 58.0091 109.056 57.7256 109.804 59.4135M91.7503 65.3729C96.0213 64.7234 104.935 64.0968 106.424 66.786M124.566 51.5261C128 51.9329 135.044 53.6242 135.745 57.1349M119.97 59.4135C123.709 59.0734 131.398 59.789 132.239 65.3729M144.684 68.3371C147.768 69.8701 153.684 74.3551 152.677 80.0311M137.147 73.0411C140.005 74.6333 145.72 78.9043 145.72 83.2512M133.116 80.0311C134.927 81.3966 138.269 84.9338 137.147 88.1589M117.516 65.3729C121.781 67.0215 129.365 70.3678 129.785 74.6626M152.677 55.472C159.472 49.8796 165.83 40.1931 165.83 40.1931M176.18 23.1892C179.384 20.0677 181.355 14.3566 187.27 14.6031C193.184 14.8495 192.234 14.2766 192.445 11.1296C192.655 7.98271 198.606 6.18523 198.606 6.18523M183.08 25.6535C185.955 21.9037 188.995 17.7676 195.155 16.4554C201.316 15.1433 203.97 9.63455 203.97 9.63455M187.27 33.0984C188.781 30.6168 192.445 23.1892 196.314 25.6535C200.184 28.1178 202.795 23.1892 202.302 20.7248C201.908 18.7534 204.931 17.0571 206.491 16.4554M162.995 66.786C169.901 63.957 179.63 52.4024 179.63 52.4024M156.574 59.4135C159.472 60.9759 175.342 48.6319 174.948 46.4127M96.3081 88.1589C92.1732 86.3374 92.4329 77.2841 99.7303 77.2841M96.3081 88.1589C98.567 89.0091 101.054 89.7261 103.78 90.263M103.78 90.263C104.661 89.3664 110.646 87.1261 107.038 78.799M117.516 78.799C116.953 82.1684 114.623 89.3465 109.804 91.1046" stroke="black" stroke-width="3" stroke-linecap="round"/>
</svg>
