<svg width="192" height="171" viewBox="0 0 192 171" fill="none" xmlns="http://www.w3.org/2000/svg">
<path d="M181.102 114.317C164.872 141.197 124.459 148.334 99.844 139.373L87.4482 145.898C83.4904 148.334 73.0785 154.666 63.0928 160.512C50.6107 167.818 36.6607 170.399 31.7349 166.827C26.8091 163.256 23.5152 161.788 23.5152 157.601C23.5152 154.285 26.4266 151.296 33.2631 149.05C36.0909 148.121 40.513 148.554 44.2174 147.424C45.491 147.036 48.6381 145.402 50.0018 144.985C55.8719 143.188 57.3698 141.083 59.5956 140.269C63.0262 139.015 62.1436 141.503 65.6518 139.373C71.4362 135.861 67.9639 130.309 63.0928 130.005C59.1959 129.761 50.1159 131.083 45.4478 132.098C44.636 129.662 43.4258 120.63 50.0018 120.63C58.2217 120.63 61.1222 117.561 61.1222 117.561C61.1222 117.561 62.0589 116.267 62.1563 115.464C62.6767 111.177 63.3548 100.866 63.0928 101.754C63.1943 100.739 62.3621 98.3444 58.2217 96.8831C54.0813 95.4218 49.7988 99.5216 48.1751 101.754C47.3633 100.131 44.948 96.8831 41.7818 96.8831C38.6156 96.8831 30.931 96.2742 27.4844 96.8831C27.4844 92.7427 18.7495 94.5491 14.382 95.0565C9.40941 91.6061 1.4355 87.9097 2.62101 83.5781C4.4541 76.8803 5.8476 76.0972 12.1189 73.7455C17.8535 71.595 22.7034 73.7455 23.5152 73.7455L35.4922 54.3226L65.6518 21.7286C95.6079 -5.86954 140.091 0.74159 160.596 13.7022C181.102 26.6628 201.389 80.7168 181.102 114.317Z" fill="white"/>
<path d="M87.4482 145.898C83.4905 148.334 73.0785 154.666 63.0928 160.512C50.6107 167.818 36.6607 170.399 31.7349 166.827C26.8091 163.256 23.5152 161.788 23.5152 157.601C23.5152 154.285 26.4266 151.296 33.2631 149.05C36.0909 148.121 40.513 148.554 44.2174 147.424C45.491 147.036 48.6381 145.402 50.0018 144.985C55.8719 143.188 57.3698 141.083 59.5956 140.269C63.0262 139.015 62.1436 141.503 65.6518 139.373C71.4362 135.861 67.9639 130.309 63.0928 130.005C59.1959 129.761 50.1159 131.083 45.4478 132.098C44.636 129.662 43.4258 120.63 50.0018 120.63C58.2217 120.63 61.1222 117.561 61.1222 117.561C61.1222 117.561 62.0589 116.267 62.1563 115.464C62.6767 111.177 63.3548 100.866 63.0928 101.754C63.1943 100.739 62.3621 98.3444 58.2217 96.8831C54.0813 95.4218 49.7988 99.5216 48.1751 101.754C47.3633 100.131 44.948 96.8831 41.7818 96.8831C38.6156 96.8831 30.931 96.2742 27.4844 96.8831C27.4844 92.7427 18.7495 94.5491 14.382 95.0565C9.40941 91.6061 1.4355 87.9097 2.62101 83.5781C4.4541 76.8803 5.8476 76.0972 12.1189 73.7455C17.8535 71.595 22.7034 73.7455 23.5152 73.7455L35.4922 54.3226L65.6518 21.7286C95.6079 -5.86954 140.091 0.74159 160.596 13.7022C181.102 26.6628 201.389 80.7168 181.102 114.317C164.872 141.197 124.459 148.334 99.844 139.373M99.844 139.373C107.3 128.272 102.262 118.649 99.844 115.464C94.8035 108.822 85.5201 111.753 78.9238 114.317C93.6338 108.599 87.967 95.6012 78.9238 91.9479C71.6892 89.0252 64.1376 97.0861 63.0928 101.754M99.844 139.373L87.4482 145.898M87.4482 145.898C86.2069 143.116 83.8404 139.78 85.5586 136.782C87.4482 133.485 92.6282 132.098 92.6282 132.098" stroke="black" stroke-width="5" stroke-linecap="round"/>
<path d="M48.5188 82.6553C57.396 82.6553 49.543 92.0241 45.8473 95.6609C41.1939 100.24 36.2723 92.8395 29.13 95.6609C28.1154 93.0231 18.8775 92.4168 14.1429 92.8395C11.6066 90.4723 4.94375 88.9235 4.94374 84.3603C4.94372 78.9145 7.70287 77.4206 12.522 75.6453C15.9724 74.3743 19.7387 72.8924 24.4578 75.6455C30.545 79.1966 39.6416 82.6553 48.5188 82.6553Z" fill="#D7B55E"/>
<path d="M41.2819 163.381C39.0499 160.135 42.2119 151.714 44.0719 147.91L63.0945 141.315C64.1935 144.274 65.7323 151.156 63.0945 155.011C59.7972 159.83 44.0719 167.439 41.2819 163.381Z" fill="#D7B55E"/>
<circle cx="41.0391" cy="63.6389" r="20.1586" fill="white" stroke="black"/>
<path d="M172.093 99.3003C182.745 74.1905 155.166 70.6375 149.012 74.1905C142.182 77.4914 138.551 91.0496 143.577 99.3003C149.751 109.435 166.221 113.141 172.093 99.3003Z" fill="#D7B55E"/>
<path d="M109.998 89.4105C95.5404 89.4104 93.7773 97.6419 92.8346 109.089C99.972 109.089 106.77 120.212 105.671 124.778C114.544 130.054 127.147 122.711 127.958 113.377C128.973 101.71 121.714 89.4107 109.998 89.4105Z" fill="#D7B55E"/>
<path d="M94.734 16.6153C94.5311 9.71642 101.413 6.63913 104.879 5.96285C109.783 5.37101 120.757 5.65841 125.424 11.5427C131.257 18.8981 132.779 28.2827 118.322 35.8917C103.865 43.5008 94.9876 25.239 94.734 16.6153Z" fill="#D7B55E"/>
<path d="M11.8325 100.26C11.0649 103.867 11.8325 119.75 11.8325 119.75H29.1039C29.477 115.193 29.1039 107.475 29.1039 102.749C29.1039 96.6496 24.8146 93.6822 20.102 93.6822C15.3894 93.6822 12.6001 96.6524 11.8325 100.26Z" fill="white" stroke="black" stroke-width="3" stroke-linejoin="round"/>
<path d="M11.8325 99.1729C11.0649 102.184 11.8325 110.441 11.8325 110.441H29.1039C29.477 106.636 29.1039 105.196 29.1039 101.251C29.1039 96.1593 24.8146 93.6822 20.102 93.6822C15.3894 93.6822 12.6001 96.1616 11.8325 99.1729Z" fill="#970000" stroke="black" stroke-width="3" stroke-linejoin="round"/>
<path d="M11.8325 100.26C11.0649 103.867 11.8325 119.75 11.8325 119.75H29.1039C29.477 115.193 29.1039 107.475 29.1039 102.749C29.1039 96.6496 24.8146 93.6822 20.102 93.6822C15.3894 93.6822 12.6001 96.6524 11.8325 100.26Z" stroke="black" stroke-width="3" stroke-linejoin="round"/>
<path d="M29.6109 100.26C28.8433 103.867 29.6109 119.75 29.6109 119.75H46.8823C47.2554 115.193 46.8823 107.475 46.8823 102.749C46.8823 96.6496 42.593 93.6822 37.8804 93.6822C33.1677 93.6822 30.3785 96.6524 29.6109 100.26Z" fill="white" stroke="black" stroke-width="3" stroke-linejoin="round"/>
<path d="M29.6109 99.1729C28.8433 102.184 29.6109 110.441 29.6109 110.441H46.8823C47.2554 106.636 46.8823 105.196 46.8823 101.251C46.8823 96.1593 42.593 93.6822 37.8804 93.6822C33.1677 93.6822 30.3785 96.1616 29.6109 99.1729Z" fill="#970000" stroke="black" stroke-width="3" stroke-linejoin="round"/>
<path d="M29.6109 100.26C28.8433 103.867 29.6109 119.75 29.6109 119.75H46.8823C47.2554 115.193 46.8823 107.475 46.8823 102.749C46.8823 96.6496 42.593 93.6822 37.8804 93.6822C33.1677 93.6822 30.3785 96.6524 29.6109 100.26Z" stroke="black" stroke-width="3" stroke-linejoin="round"/>
<path d="M47.1137 100.26C46.3461 103.867 47.1137 119.75 47.1137 119.75H64.3851C64.7582 115.193 64.3851 107.475 64.3851 102.749C64.3851 96.6496 60.0958 93.6822 55.3832 93.6822C50.6706 93.6822 47.8813 96.6524 47.1137 100.26Z" fill="white" stroke="black" stroke-width="3" stroke-linejoin="round"/>
<path d="M47.1137 99.1729C46.3461 102.184 47.1137 110.441 47.1137 110.441H64.3851C64.7582 106.636 64.3851 105.196 64.3851 101.251C64.3851 96.1593 60.0958 93.6822 55.3832 93.6822C50.6706 93.6822 47.8813 96.1616 47.1137 99.1729Z" fill="#970000" stroke="black" stroke-width="3" stroke-linejoin="round"/>
<path d="M47.1137 100.26C46.3461 103.867 47.1137 119.75 47.1137 119.75H64.3851C64.7582 115.193 64.3851 107.475 64.3851 102.749C64.3851 96.6496 60.0958 93.6822 55.3832 93.6822C50.6706 93.6822 47.8813 96.6524 47.1137 100.26Z" stroke="black" stroke-width="3" stroke-linejoin="round"/>
<path d="M129.894 24.3562C112.75 23.211 109.675 40.8715 109.566 49.9374C109.566 57.9534 117.083 69.635 125.325 70.4939C133.568 71.3528 150.927 69.6572 152.724 53.1641C154.09 40.6212 151.323 25.7877 129.894 24.3562Z" fill="#3C3C3A"/>
<path d="M140.4 38.0605H141.999M125.325 36.6901L126.355 38.0605M117.585 42.653L118.875 44.0717M121.671 53.1641L122.744 54.5187M132.288 47.4251L133.191 46.0063M143.369 48.9728V47.4251M137.318 59.0737H136.06M126.355 62.2138L125.325 64.1033M109.566 49.9374C109.675 40.8715 112.75 23.211 129.894 24.3562C151.323 25.7877 154.09 40.6212 152.724 53.1641C150.927 69.6572 133.568 71.3528 125.325 70.4939C117.083 69.635 109.566 57.9534 109.566 49.9374Z" stroke="black" stroke-width="4" stroke-linecap="round"/>
<circle cx="41.0391" cy="63.6389" r="18.6586" stroke="black" stroke-width="4"/>
<path d="M66.0806 23.2515C42.7507 16.6583 22.2408 32.6541 27.6898 48.2449C33.0388 47.6771 44.4127 44.4987 53.0346 51.0919C61.6565 57.6852 58.3212 66.3259 58.3212 70.341C58.3212 70.341 87.4187 70.0544 84.2842 48.2449C81.1497 26.4355 66.0806 23.2515 66.0806 23.2515Z" fill="#3C3C3A" stroke="black" stroke-width="5"/>
<path d="M39.5944 26.2162C39.5944 26.2162 43.7364 33.4277 41.8984 37.9101C40.7091 40.8102 36.9799 41.8182 36.2921 41.6619M50.6535 22.9902C52.2168 25.4914 55.7223 34.7404 48.2667 37.9101M62.9301 24.5911C63.5241 27.1861 63.6429 33.4829 59.3659 37.9101M74.4043 27.7106C74.1542 29.2114 75.5366 41.6619 66.5881 43.913M83.3701 41.6619C82.2446 46.9145 75.3111 52.3546 68.6516 53.3864" stroke="black" stroke-width="3" stroke-linecap="round"/>
<path d="M19.4155 143.896C19.4155 146.473 21.7899 151.028 23.7573 153.395C25.9188 154.511 31.1225 155.588 34.6453 150.965C36.1772 151.93 42.647 149.287 45.9436 147.715C49.7088 149.009 55.2702 144.442 57.6414 141.922C58.2333 142.518 58.872 142.834 59.5394 142.697C62.6749 142.051 67.2166 141.025 68.9515 137.979C71.0446 134.304 69.8768 126.74 63.5444 127.162C53.8612 127.809 19.4155 136.278 19.4155 143.896Z" fill="white"/>
<path d="M106.932 7.49461C108.916 6.21048 117.088 6.67744 114.52 12.7479C111.951 18.8183 104.597 11.5806 106.932 7.49461Z" fill="#970000"/>
<path d="M117 16.7169C116.5 12.4711 127.828 11.8139 127.828 16.7169C127.828 21.62 117.934 24.6551 117 16.7169Z" fill="#970000"/>
<path d="M102.729 20.9195C111.017 17.3282 112.652 28.5076 106.231 31.3094C99.8105 34.1111 99.2268 22.4371 102.729 20.9195Z" fill="#970000"/>
<path d="M156.546 86.7606C158.764 83.0249 152.11 75.7871 148.257 78.1219C144.405 80.4567 151.824 90.495 156.546 86.7606Z" fill="#970000"/>
<path d="M163.727 80.9399C160.97 79.5241 161.093 75.351 162.359 74.2332C165.597 74.2332 169.461 77.1493 170.454 79.2606C168.815 80.3038 166.484 82.3556 163.727 80.9399Z" fill="#970000"/>
<path d="M162.833 90.7758C162.982 88.9874 172.594 86.4539 173.563 92.7877C174.531 99.1214 161.938 99.2704 162.833 90.7758Z" fill="#970000"/>
<path d="M151.73 92.7877C148.749 92.7877 148.173 94.6754 148.257 95.6192C148.257 95.6192 146.601 99.3542 150.074 101.963C153.546 104.572 156.216 102.445 157.766 99.9411C159.703 96.8114 155.456 92.7877 151.73 92.7877Z" fill="#970000"/>
<path d="M95.4882 100.191C97.0462 92.6403 106.691 97.4962 106.479 101.963C106.266 106.43 94.5665 104.658 95.4882 100.191Z" fill="#970000"/>
<path d="M110.166 99.0142C109.669 102.985 118.178 107.31 120.163 101.283C120.353 99.7683 120.207 96.3996 118.108 95.0434C116.008 93.6873 114.113 94.4784 113.427 95.0434C112.506 95.0434 110.563 95.8376 110.166 99.0142Z" fill="#970000"/>
<path d="M115.484 108.516C116.264 106.814 125.198 106.176 125.127 112.77C125.056 119.364 112.293 114.543 115.484 108.516Z" fill="#970000"/>
<path d="M110.166 113.677C108.402 108.798 104.641 110.345 104.326 112.77C104.01 115.195 104.124 119.642 107.145 120.596C110.166 121.551 111.93 118.556 110.166 113.677Z" fill="#970000"/>
<path d="M57.4351 150.131C58.6442 148.037 63.5636 149.819 62.8105 152.13C62.0573 154.441 56.2483 155.066 57.4351 150.131Z" fill="#970000"/>
<path d="M50.189 148.759C50.0642 145.222 57.3722 146.883 56.1854 150.131C54.9986 153.379 50.3139 152.296 50.189 148.759Z" fill="#970000"/>
<path d="M52.5202 156.877C53.5821 150.568 45.6003 154.892 44.6299 156.877C43.6595 158.862 43.633 160.684 44.4729 162.143C45.3129 163.602 51.4583 163.186 52.5202 156.877Z" fill="#970000"/>
<path d="M68.7098 130.378L20.4874 148.257C20.4874 148.257 22.674 152.513 25.4875 153.491C29.0044 154.714 63.0834 142.681 66.4474 139.928C69.1385 137.726 69.8311 132.06 68.7098 130.378Z" fill="#970000"/>
<path d="M48.504 48.8111L38.4508 80.9399C38.4508 80.9399 55.1171 81.5316 57.4351 67.6365C59.7531 53.7414 48.504 48.8111 48.504 48.8111Z" fill="#970000"/>
<path d="M34.6453 150.965C31.1225 155.588 25.9188 154.511 23.7573 153.395C21.7899 151.028 19.4155 146.473 19.4155 143.896C19.4155 136.278 53.8612 127.809 63.5444 127.162C69.8768 126.74 71.0446 134.304 68.9515 137.979C67.2166 141.025 62.6749 142.051 59.5394 142.697C58.872 142.834 58.2333 142.518 57.6414 141.922C56.0087 140.28 55.1904 135.305 54.6489 133.094M42.7882 135.536C42.0504 137.319 41.8513 145.888 45.6139 147.585C45.7221 147.633 45.8321 147.677 45.9436 147.715C49.7088 149.009 55.2702 144.442 57.6414 141.922M32.7951 143.896C33.041 145.402 33.6989 148.857 34.3629 150.628C34.416 150.77 34.512 150.881 34.6453 150.965C36.1772 151.93 42.647 149.287 45.9436 147.715" stroke="black" stroke-width="3" stroke-linecap="round"/>
<circle cx="41.0391" cy="63.6388" r="5.6311" fill="white" stroke="black" stroke-width="3"/>
</svg>
