<svg width="247" height="153" viewBox="0 0 247 153" fill="none" xmlns="http://www.w3.org/2000/svg">
<path d="M6.897 45.9353C79.3887 23.3913 138.511 32.7738 155.722 35.8111C160.784 26.6993 173.744 5.05441 196.083 5.05441C214.991 5.05441 236.301 7.45473 242.303 2.05237C244.328 6.10204 247.94 22.4695 236.601 38.6684C225.262 54.8672 218.492 58.477 209.38 61.4936C218.492 65.1208 225.782 73.6752 218.492 99.593C211.203 125.511 182.383 129.291 168.884 127.941C169.662 124.927 170.696 120.221 171.367 115.563C172.124 110.31 172.42 105.116 171.367 102.478C151.594 116.607 112.389 106.442 95.2584 99.593C93.7487 100.776 89.9679 100.005 84.8032 98.2436C82.0863 97.3173 78.9866 96.1173 75.633 94.7843C72.8306 93.6704 69.8511 92.4636 66.7696 91.246C63.7186 90.0405 60.5677 88.8243 57.39 87.6771C56.4522 87.3386 55.5121 87.0061 54.5715 86.6816C52.5885 85.9976 50.5921 85.3783 48.6106 84.8158C44.3733 83.6128 40.2044 82.669 36.3821 81.9046C33.7898 81.3862 31.3569 80.9503 29.1702 80.5721C26.6698 80.1397 24.4912 79.7826 22.764 79.4638C21.9271 79.3093 21.1961 79.1637 20.586 79.0229C10.6296 76.7253 12.4137 68.7975 14.5502 65.1208C5.16062 60.8301 -4.1673 49.3762 6.897 45.9353Z" fill="#976843"/>
<path d="M24.1993 106.392L21.6055 81.0442L54.0276 87.8032V101.637L35.8713 106.392H24.1993Z" fill="#970000"/>
<path d="M134.629 74.3327C136.506 65.1365 126.684 59.1314 121.679 58.756L118.874 71.7052L115.486 84.8426C121.554 84.3421 132.753 83.5288 134.629 74.3327Z" fill="#970000"/>
<path d="M96.2323 99.9074C127.572 99.9074 157.346 108.265 168.586 103.366L170.377 116.708C170.377 124.378 168.649 134.516 162.29 136.652C160.204 137.353 158.337 137.067 156.722 136.231C158.332 139.284 158.873 142.305 156.304 143.857C151.027 147.044 143.594 139.702 141.919 136.838C143.7 140.178 142.545 146.507 136.682 146.507C130.708 146.507 131.377 142.653 130.735 140.726C131.618 144.66 131.987 152.481 126.399 152.288C121.515 152.12 119.71 147.156 119.278 143.763C119.335 146.699 118.332 150.767 113.873 150.602C108.67 150.409 103.515 147.792 101.588 146.507C95.2292 148.434 95.0634 142.847 93.6756 138.759C86.413 138.759 82.415 133.194 83.4237 131.465H72.184C71.6076 133.338 66.3048 136.998 49.7047 136.652C33.1046 136.307 25.208 116.335 23.3348 106.392L55.3246 99.9074V86.5064C57.6301 87.2269 76.0982 99.9074 96.2323 99.9074Z" fill="#FFFEFE"/>
<path d="M115.701 76.2833L113.956 84.8427C111.954 84.4673 98.7164 83.8179 91.4345 78.2745C78.8607 68.7025 88.4833 61.2255 94.1137 59.3489C100.702 57.1532 111.704 57.6927 120.149 58.7561L117.446 67.7238L115.701 76.2833Z" fill="white"/>
<path d="M119.867 58.7561C111.422 57.6926 102.245 56.5601 95.6568 58.7558C90.0264 60.6324 78.5788 68.7025 91.1526 78.2745C98.4345 83.8178 111.672 84.4673 113.674 84.8426C119.742 84.3421 130.94 83.5289 132.817 74.3327C134.694 65.1366 124.872 59.1315 119.867 58.7561ZM113.674 84.8426L117.164 67.7238M119.867 58.7561L117.164 67.7238M115.419 76.2832C115.419 76.2832 102.451 75.9849 102.601 71.3305C102.751 66.6761 112.372 66.9867 117.164 67.7238" stroke="black" stroke-width="5" stroke-linejoin="round"/>
<path d="M168.884 128.393C182.383 129.743 211.203 125.963 218.492 100.045C225.782 74.1274 218.492 65.5731 209.381 61.9458C218.492 58.9293 225.262 55.3194 236.601 39.1206C247.94 22.9218 244.328 6.55429 242.303 2.50462C236.301 7.90698 214.992 5.50666 196.083 5.50666C173.744 5.50666 160.785 27.1515 155.722 36.2633C119.216 24.2559 22.0834 36.2634 6.89714 46.3876C-2.74381 52.8149 5.16077 61.2824 14.5504 65.5731C19.9511 68.041 25.8431 69.1271 29.1703 67.6484C36.4597 64.4086 32.2075 58.8741 29.1703 56.5118M29.1703 67.6484C29.9286 75.3807 25.2155 79.0486 22.7642 79.916M168.884 128.393C168.436 129.156 167.786 130.124 166.945 131.171M168.884 128.393C169.662 125.379 170.696 120.674 171.367 116.016M134.51 79.4751C144.083 78.0391 168.884 96.7073 171.367 102.93C172.42 105.569 172.124 110.762 171.367 116.016M22.7642 79.916C21.9272 79.7615 21.1963 79.616 20.5861 79.4751C10.6298 77.1775 12.4138 69.2498 14.5504 65.5731M20.5861 79.4751C20.6509 86.6009 21.5941 96.746 24.0757 106.489M99.5666 90.4845C100.364 91.9206 100.62 95.8431 95.2586 100.045C93.7488 101.229 89.968 100.457 84.8033 98.6959M59.9713 110.088C58.3085 106.865 56.8887 103.481 55.8994 100.045C54.6642 95.7552 54.1001 91.3824 54.5717 87.1339M36.3822 82.3568C40.2045 83.1212 44.3734 84.065 48.6108 85.268C50.5922 85.8306 52.5887 86.4498 54.5717 87.1339C55.5122 87.4583 56.4523 87.7909 57.3901 88.1294M29.1703 81.0244C30.2978 87.8476 33.3187 103.504 36.3822 111.546C40.2116 121.598 49.3063 132.704 54.5717 137.203M22.7642 79.916C24.4913 80.2349 26.6699 80.5919 29.1703 81.0244C31.3571 81.4026 33.7899 81.8384 36.3822 82.3568M75.6331 119.806C74.3591 121.211 70.0619 122.655 70.9452 126.154C68.9753 123.943 74.8005 130.374 75.6331 131.171C70.7638 136.852 61.7858 137.772 54.5717 137.203C51.5737 136.967 48.8803 136.473 46.9129 135.958C34.6299 134.138 27.7063 120.744 24.0757 106.489M24.0757 106.489C31.7754 106.092 48.9199 104.247 55.8994 100.045M55.8994 100.045C55.1531 97.7375 60.342 95.8779 63.0297 95.2366M84.8033 98.6959L88.3011 88.1294M57.3901 88.1294C60.5678 89.2765 63.7187 90.4927 66.7698 91.6983C69.8512 92.9159 72.8308 94.1227 75.6331 95.2366C78.9867 96.5696 82.0865 97.7696 84.8033 98.6959M75.6331 95.2366L79.3886 85.268M66.7698 91.6983L70.9452 82.3568M57.3901 88.1294L60.6255 79.4751M48.6108 85.268L51.713 75.9736M36.3822 82.3568L41.3933 72.9246M107.035 139.378L105.115 144.71M105.115 144.71C105.115 144.71 105.115 150.466 110.447 150.466C117.186 150.466 118.339 141.297 118.339 141.297C118.339 141.297 119.192 150.466 126.231 150.466C133.269 150.466 131.136 141.297 131.136 141.297C133.038 148.753 137.713 149.573 142.049 147.141C146.385 144.71 140.93 130.858 143.371 138.186C145.813 145.514 159.077 144.71 158.058 138.186M105.115 144.71C101.703 152.172 91.5093 145.406 95.2586 139.378M84.8033 135.958C86.5869 143.136 91.5388 145.359 95.2586 139.378L97.0102 135.958M88.3011 131.171L84.8033 135.958M82.2934 125.662C70.9452 131.398 78.3381 140.745 84.8033 135.958M70.9452 126.154C70.9452 126.154 68.3198 123.128 65.9483 119.806M70.9452 113.527C69.0057 114.142 65.2911 116.26 65.9483 119.806M65.9483 119.806C63.8303 116.84 61.7602 113.556 59.9713 110.088M66.7698 102.93C63.8718 104.17 58.4549 107.337 59.9713 110.088M166.945 131.171C168.884 134.046 163.129 141.297 158.058 138.186C155.261 137.098 150.739 131.366 150.333 128.393M166.945 131.171C163.204 131.961 158.058 130.098 158.058 122.656M171.367 116.016C169.341 117.506 163.744 117.102 161.429 113.527" stroke="black" stroke-width="5" stroke-linecap="round" stroke-linejoin="round"/>
<circle cx="211.336" cy="20.8374" r="9.20622" fill="#7E4841" stroke="black" stroke-width="6"/>
<circle cx="190.753" cy="45.2498" r="9.20622" fill="#7E4841" stroke="black" stroke-width="6"/>
<circle cx="190.753" cy="88.3302" r="9.20622" fill="#7E4841" stroke="black" stroke-width="6"/>
<circle cx="154.853" cy="52.9087" r="9.20622" fill="#7E4841" stroke="black" stroke-width="6"/>
<circle cx="107.943" cy="42.7151" r="9.20622" fill="#7E4841" stroke="black" stroke-width="6"/>
<circle cx="61.0335" cy="63.9178" r="9.20622" fill="#7E4841" stroke="black" stroke-width="6"/>
<circle cx="140.014" cy="100.536" r="11.8388" fill="#7E4841" stroke="black" stroke-width="6"/>
</svg>
