<svg width="162" height="210" viewBox="0 0 162 210" fill="none" xmlns="http://www.w3.org/2000/svg">
<path d="M136.667 150.706L160.63 192.568L131.228 202.717L90.5435 135.167L92.1292 74.2771L131.228 10.2308L157.428 27.5697C149.373 39.1216 133.912 61.7047 128.728 74.2771C131.378 69.0976 141.285 66.3488 147.048 78.3999C151.523 87.7599 138.131 92.1192 129.973 92.3036C151.048 92.4954 157.388 97.6264 157.428 107.893C157.467 117.633 147.024 122.977 138.53 121.117C143.448 123.22 147.048 130.355 147.048 137.704C147.048 143.725 140.127 148.874 136.667 150.706Z" fill="#7B7B7B"/>
<path d="M115.807 1.37011L81 74.0368V141.208L118.86 208.378L131.13 203.996L90.4455 136.446L92.0312 75.5566L131.13 11.5102L115.807 1.37011Z" fill="#D7B55E"/>
<path d="M136.666 83.1964C135.242 85.8426 131.659 89.5471 128.728 83.1964C127.986 81.5881 126.97 79.8205 128.728 75.5566M136.666 151.986L160.63 193.847L131.227 203.996M136.666 151.986C132.392 151.986 122.891 150.4 128.728 138.983M136.666 151.986C140.127 150.154 147.047 145.004 147.047 138.983C147.047 130.733 142.512 122.754 136.666 121.858C145.408 125.029 157.469 119.639 157.428 109.173C157.388 98.7063 150.799 93.5774 128.728 93.5774C136.666 93.845 151.76 89.5336 147.047 79.6793C141.285 67.6282 131.378 70.377 128.728 75.5566M128.728 75.5566C133.911 62.9841 149.372 40.401 157.428 28.8491L131.227 11.5102M131.227 203.996L118.958 208.378L81.0979 141.208V74.0368L115.905 1.37011L131.227 11.5102M131.227 203.996L90.5434 136.446L92.1291 75.5566L131.227 11.5102" stroke="black" stroke-width="2.73058" stroke-linecap="round" stroke-linejoin="round"/>
<path d="M25.3334 150.706L1.36996 192.568L30.7725 202.717L71.4565 135.167L69.8708 74.2771L30.7725 10.2308L4.57152 27.5697C12.6274 39.1216 28.0885 61.7047 33.2718 74.2771C30.6223 69.0976 20.7151 66.3488 14.9524 78.3999C10.4766 87.7599 23.8693 92.1192 32.0268 92.3036C10.9524 92.4954 4.61159 97.6264 4.57152 107.893C4.5335 117.633 14.9759 122.977 23.47 121.117C18.5516 123.22 14.9524 130.355 14.9524 137.704C14.9524 143.725 21.8731 148.874 25.3334 150.706Z" fill="#970000"/>
<path d="M46.1933 1.37011L81 74.0368V141.208L43.1401 208.378L30.8705 203.996L71.5545 136.446L69.9688 75.5566L30.8705 11.5102L46.1933 1.37011Z" fill="#D7B55E"/>
<path d="M25.3335 83.1964C26.7584 85.8426 30.3408 89.5471 33.2719 83.1964C34.0142 81.5881 35.0298 79.8205 33.2719 75.5566M25.3335 151.986L1.37007 193.847L30.7726 203.996M25.3335 151.986C29.608 151.986 39.109 150.4 33.2719 138.983M25.3335 151.986C21.8732 150.154 14.9526 145.004 14.9526 138.983C14.9526 130.733 19.4879 122.754 25.3335 121.858C16.5925 125.029 4.53077 119.639 4.57163 109.173C4.61249 98.7063 11.2012 93.5774 33.2719 93.5774C25.3335 93.845 10.2404 89.5336 14.9526 79.6793C20.7152 67.6282 30.6224 70.377 33.2719 75.5566M33.2719 75.5566C28.0886 62.9841 12.6275 40.401 4.57163 28.8491L30.7726 11.5102M30.7726 203.996L43.0422 208.378L80.9021 141.208V74.0368L46.0954 1.37011L30.7726 11.5102M30.7726 203.996L71.4566 136.446L69.8709 75.5566L30.7726 11.5102" stroke="black" stroke-width="2.73058" stroke-linecap="round" stroke-linejoin="round"/>
<circle cx="81" cy="106.474" r="33.4616" fill="#D7B55E" stroke="black" stroke-width="3.2767"/>
<path d="M81.0741 86.1106C92.3205 86.1107 101.438 95.2277 101.438 106.474C101.437 117.72 92.3204 126.838 81.0741 126.838C69.8277 126.838 60.7107 117.721 60.7106 106.474C60.7106 95.2276 69.8276 86.1106 81.0741 86.1106Z" fill="#976843" stroke="black" stroke-width="3.2767"/>
<circle cx="81.0738" cy="106.474" r="7.07961" stroke="black" stroke-width="3.2767"/>
</svg>
