<svg width="172" height="201" viewBox="0 0 172 201" fill="none" xmlns="http://www.w3.org/2000/svg">
<path d="M138.478 186.677L105.69 184.859C108.008 183.237 117.633 159.584 115.068 154.91C111.633 148.652 99.5383 142.625 97.2205 142.394C94.9026 142.162 91.6576 139.612 95.3662 134.513C99.0747 129.414 101.981 126.42 105.69 122.248C109.398 118.076 119.394 101.316 111.633 87.9241C106.669 79.3567 101.931 76.5247 80.3648 75.2159C52.9724 73.5534 41.2829 81.975 36.0291 87.9241C30.698 88.6968 18.9233 90.1493 14.4731 89.7784C10.0228 89.4076 6.90141 91.3237 5.897 92.3281V82.3613C5.897 77.4938 18.1816 73.5534 16.0956 73.5534C14.4267 73.5534 6.28331 72.6263 2.42021 72.1627C1.95664 70.772 1.30764 67.0171 2.42021 63.1231C3.53278 59.2292 8.13759 56.2468 10.3009 55.2424C4.51048 50.1394 6.12879 45.5074 5.897 39.0174C5.66522 32.5274 19.5723 27.1963 20.0359 32.5274C20.4995 37.8585 26.5259 42.0306 30.6981 43.4213C34.0358 44.5339 34.7157 41.8761 34.6384 40.4081C32.0887 34.8453 37.188 21.4017 40.6648 20.2428C44.1416 19.0839 46.2277 22.5606 50.6316 25.3421C55.0355 28.1235 58.2805 34.1499 58.2805 29.9778V14.9117C58.2805 8.97794 62.9162 3.94047 65.2341 2.16345C66.8566 3.0906 71.1678 5.68661 75.4326 8.65346C80.7637 12.362 82.1544 19.7792 84.0087 27.1963C85.863 34.6134 90.2669 31.3684 91.6576 27.1963C93.0483 23.0242 92.8166 14.9117 101.856 14.9117C109.088 14.9117 120.067 32.3729 122.771 40.4081C115.354 46.8981 115.068 53.3364 115.068 59.8264C115.068 66.3164 120.96 76.4175 134.404 78.2718C145.159 79.7552 152.849 70.7215 154.471 66.7812V107.626C149.443 109.712 147.826 107.626 145.895 109.712C139.282 116.856 141.028 118.752 138.478 124.314C136.439 128.765 139.328 134.049 141.028 136.136C138.247 138.222 132.313 143.645 130.829 148.652C129.346 153.659 133.765 161.4 136.16 164.645C130.412 168.168 130.829 180.841 138.478 186.677Z" fill="#6D6D6D" stroke="black" stroke-width="3.60803"/>
<path d="M12.8018 44.5144C14.8517 46.6264 20.6286 50.6641 27.3374 49.9187M42.0594 21.5929C41.9351 25.6306 42.7675 34.7868 47.0909 39.1102M4.78854 66.3178C10.0686 67.3738 21.5604 69.374 25.2875 68.9268M14.2926 59.4227C18.2682 60.7893 26.8902 63.5225 29.5737 63.5225M29.5737 79.1763C24.3557 78.8036 11.9405 83.5276 7.46802 90.0873M39.4504 69.8586L47.0909 73.5856M43.9229 62.4044L54.9733 65.3653M52.6816 54.7639C53.9458 54.5711 56.9098 54.6213 58.6523 56.3637C60.3947 58.1062 61.1127 60.2472 61.2539 61.0999M58.6523 48.8005C61.0724 48.3036 66.1736 47.8315 67.2172 49.9187C68.2608 52.0058 69.6398 54.0185 70.1989 54.7639M70.1989 42.2781C72.5594 42.5887 77.3176 43.9926 77.4667 47.1234M75.4168 35.383C78.5459 35.9525 84.8043 37.8337 84.8043 40.8029M71.1306 28.4879L65.6976 3.32248M98.8974 16.0023C100.761 19.1703 102.814 19.4283 104.488 26.3234C105.051 28.6414 104.488 32.8362 104.488 35.383M90.1388 47.1234C93.0583 50.0429 98.8974 56.9256 98.8974 61.0999M98.8974 44.5144C101.506 47.1855 106.501 53.9066 105.606 59.4227M79.5166 54.7639C83.8027 55.1366 92.4868 56.9256 92.9341 61.0999M72.8078 61.0999C76.9697 61.659 85.7781 64.007 87.7162 68.9268M113.992 54.7639C112.625 52.5845 109.706 47.4836 108.961 44.5144C108.215 41.5452 111.818 37.3216 112.129 36.7574M112.129 71.3494C113.119 73.0648 117.918 79.1763 117.918 79.1763M101.518 71.3494L112.129 79.1763M119.955 90.0873L123.31 106.57M129.459 84.5678L130.95 103.216M136.727 86.2577L138.404 102.098M145.113 84.5678V99.8616M116.415 128.374C116.237 126.324 116.288 121.702 117.918 119.615C119.548 117.528 119.955 115.267 119.955 114.397M125.546 126.324C125.608 125.33 125.956 122.597 126.851 119.615C127.745 116.633 128.341 114.894 128.528 114.397M132.814 121.106L136.727 114.397M106.911 137.319L112.129 130.983M119.955 132.474C119.334 134.586 117.496 139.182 115.11 140.673M125.546 132.474C124.801 135.207 123.31 141.307 123.31 143.841M138.404 121.106C137.721 122.348 134.305 128.597 132.814 132.474C131.323 136.35 132.193 141.667 132.814 143.841M119.955 152.227V158.217M126.851 153.904V159.868M117.918 181.857C117.172 180.118 118.166 176.453 119.955 174.962C121.744 173.472 121.713 167.011 121.651 163.967M126.851 183.907C125.484 182.479 123.571 178.689 126.851 174.962C130.13 171.235 127.347 166.079 126.851 163.967" stroke="black" stroke-width="4.32963" stroke-linecap="round" stroke-linejoin="round"/>
<path d="M43.2535 166.722C45.5567 166.403 50.5881 165.787 52.2889 165.872C50.3401 170.868 47.2929 178.522 47.0803 184.368C46.8677 190.214 48.4622 194.254 48.9937 196.805C49.5252 199.356 45.3795 200.525 43.2535 197.974C42.0753 196.561 40.7912 192.264 39.9055 188.315C40.6335 192.039 41.2788 195.329 41.6214 196.805C39.5663 196.38 35.9189 195.317 34.0055 192.234C32.0921 189.152 31.1141 181.243 31.4543 177.671C31.7945 174.1 34.537 166.9 35.9189 162.47L42.1905 165.872C40.6606 169.015 39.019 175.426 38.8778 180.546C39.3597 177.65 41.9067 170.434 43.2535 166.722Z" fill="white" stroke="black" stroke-width="2.16482"/>
<path d="M52.289 165.872H43.2398C43.2398 165.872 38.9112 178.078 38.7635 180.416L47.4348 182.807C48.2977 176.673 52.289 165.872 52.289 165.872Z" fill="#970000"/>
<path d="M42.4654 165.471L35.9189 162.47C34.537 166.9 31.7945 174.1 31.4543 177.671L37.9126 180.173C38.891 174.72 40.5166 169.475 42.4654 165.471Z" fill="#970000"/>
<path d="M52.289 165.872H43.2398C43.2398 165.872 38.9112 178.078 38.7635 180.416L47.4348 182.807C48.2977 176.673 52.289 165.872 52.289 165.872Z" stroke="black"/>
<path d="M42.4654 165.471L35.9189 162.47C34.537 166.9 31.7945 174.1 31.4543 177.671L37.9126 180.173C38.891 174.72 40.5166 169.475 42.4654 165.471Z" stroke="black"/>
<path d="M35.4877 88.5891C30.6959 103.563 43.4255 101.754 47.0192 114.931C49.2252 125.566 22.5989 132.316 20.7084 140.499C18.8179 148.681 20.7085 152.993 29.8909 152.993C27.201 152.993 25.1729 162.645 29.8909 162.645C29.8909 162.645 32.6663 162.439 36.3251 162.37C39.1377 162.316 39.8666 165.084 42.8639 165.345C46.9256 165.699 52.9734 163.744 53.6573 165.345L50.4618 174.1L48.2292 180.975C48.2292 180.975 48.1925 182.862 48.2559 183.98C48.7148 192.083 80.8082 201.967 96.869 192.083C112.93 182.198 114.34 171.017 115.15 162.645C115.961 154.272 108.562 144.996 99.5772 143.2C90.5927 141.403 93.0954 136.178 99.5772 131.316C108.794 124.403 115.749 110.152 115.15 94.5787C114.671 82.1202 94.3821 74.9886 81.2048 73.7906C69.6247 73.1917 39.321 76.6097 35.4877 88.5891Z" fill="#D7B55E"/>
<path d="M53.6573 165.345L50.4618 174.1L48.2292 180.975C48.2292 180.975 48.1925 182.862 48.2559 183.98C48.7148 192.083 80.8082 201.967 96.869 192.083C112.93 182.198 114.34 171.017 115.15 162.645C115.961 154.272 108.562 144.996 99.5772 143.2C90.5927 141.403 93.0954 136.178 99.5772 131.316C108.794 124.403 115.749 110.152 115.15 94.5787C114.671 82.1202 94.3821 74.9886 81.2048 73.7906C69.6247 73.1917 39.321 76.6097 35.4877 88.5891C30.6959 103.563 43.4255 101.754 47.0192 114.931C49.2252 125.566 22.5989 132.316 20.7084 140.499C18.8179 148.681 20.7085 152.993 29.8909 152.993M53.6573 165.345C58.5878 165.578 68.6098 168.815 70.5433 174.1M35.4877 140.499C36.7535 139.668 40.1876 137.976 43.7968 137.847C48.3082 137.686 49.2287 141.598 47.0192 144.453C44.8098 147.308 36.0125 152.109 29.8909 152.993C27.201 152.993 25.1729 162.645 29.8909 162.645C29.8909 162.645 32.6663 162.439 36.3251 162.37C39.1377 162.316 39.8666 165.084 42.8639 165.345C46.9256 165.699 52.9734 163.744 53.6573 165.345" stroke="black" stroke-width="2.88642"/>
<path d="M77.8362 126.047V110.22H100.258C97.961 118.791 89.3296 127.366 77.8362 126.047Z" fill="#970000"/>
<path d="M79.5754 126.047V110.22H59.7482C61.7792 118.791 69.4119 127.366 79.5754 126.047Z" fill="white"/>
<path d="M101.243 109.92C99.7073 115.665 91.4133 126.201 80.0817 126.474C65.917 126.815 60.7973 115.893 60.7973 109.92H71.271H84.6894H101.243Z" fill="white"/>
<path d="M71.271 109.92H60.7973C60.7973 115.893 65.917 126.815 80.0817 126.474C91.4133 126.201 99.7073 115.665 101.243 109.92H84.6894M71.271 109.92C71.3636 112.537 72.9481 117.668 78.5457 117.258C84.1433 116.849 84.9738 112.195 84.6894 109.92M71.271 109.92H84.6894" stroke="black" stroke-width="2.88642"/>
<path d="M78.637 126.474C91.0924 127.339 99.7074 115.665 101.243 109.92H84.6895C84.9739 112.195 84.1434 116.849 78.5458 117.258L78.637 126.474Z" fill="#970000" stroke="black" stroke-width="2.88642"/>
<circle cx="146.277" cy="175.062" r="13.2345" fill="white" stroke="black" stroke-width="2.88642"/>
<path d="M157.796 166.244C152.283 158.664 141.694 160.317 137.579 162.519C133.365 161.708 132.015 157.151 132.079 152.593C131.73 148.784 134.141 142.039 136.083 139.32C137.637 137.145 140.787 135.738 142.168 135.306C143.099 134.919 143.93 132.317 144.613 129.283C144.019 131.503 143.521 133.187 143.521 133.187C143.521 133.187 136.083 130.091 139.042 119.86C142.001 109.628 147.219 109.083 153.951 110.487C162.57 112.285 151.1 126.522 160.001 132.205C168.901 137.888 171.439 148.284 168.901 155.748C166.364 163.213 165.228 163.142 161.637 163.604C160.831 164.038 158.681 166.008 157.796 166.244Z" fill="#7E4841"/>
<path d="M137.579 162.519L137.17 164.647L137.924 164.792L138.601 164.429L137.579 162.519ZM157.796 166.244L156.043 167.518L156.918 168.721L158.354 168.338L157.796 166.244ZM168.901 155.748L166.85 155.051V155.051L168.901 155.748ZM153.951 110.487L153.509 112.609V112.609L153.951 110.487ZM139.042 119.86L141.123 120.462V120.462L139.042 119.86ZM143.521 133.187L142.688 135.188L144.915 136.115L145.599 133.802L143.521 133.187ZM146.576 119.86L144.41 119.78V119.78L146.576 119.86ZM142.168 135.306L142.814 137.375L142.91 137.345L143.002 137.307L142.168 135.306ZM150.813 148.284L151.086 146.134V146.134L150.813 148.284ZM136.083 139.32L134.32 138.06V138.06L136.083 139.32ZM137.579 162.519L138.601 164.429C140.285 163.529 143.554 162.642 147.018 162.875C150.425 163.105 153.767 164.389 156.043 167.518L157.796 166.244L159.548 164.969C156.312 160.519 151.603 158.84 147.309 158.551C143.072 158.266 138.989 159.307 136.557 160.608L137.579 162.519ZM168.901 155.748L170.953 156.446C173.797 148.08 170.947 136.623 161.167 130.379L160.001 132.205L158.835 134.032C166.856 139.154 169.081 148.488 166.85 155.051L168.901 155.748ZM160.001 132.205L161.167 130.379C159.571 129.36 158.897 128.02 158.658 126.359C158.399 124.563 158.667 122.507 159.013 120.212C159.329 118.118 159.764 115.583 159.419 113.488C159.234 112.363 158.808 111.202 157.913 110.233C157.011 109.257 155.805 108.66 154.394 108.366L153.951 110.487L153.509 112.609C154.252 112.764 154.573 113.005 154.729 113.174C154.891 113.349 155.052 113.64 155.143 114.192C155.35 115.449 155.089 117.166 154.728 119.566C154.396 121.766 154.004 124.448 154.368 126.976C154.751 129.638 155.981 132.21 158.835 134.032L160.001 132.205ZM153.951 110.487L154.394 108.366C150.962 107.65 147.339 107.282 144.123 108.866C140.822 110.493 138.517 113.873 136.96 119.258L139.042 119.86L141.123 120.462C142.525 115.615 144.308 113.607 146.039 112.754C147.856 111.859 150.207 111.92 153.509 112.609L153.951 110.487ZM139.042 119.86L136.96 119.258C135.306 124.978 136.514 129.009 138.418 131.633C139.337 132.9 140.368 133.77 141.172 134.326C141.576 134.605 141.929 134.81 142.193 134.949C142.325 135.019 142.435 135.073 142.519 135.113C142.561 135.132 142.596 135.148 142.625 135.161C142.639 135.167 142.651 135.172 142.662 135.177C142.667 135.179 142.672 135.181 142.676 135.183C142.678 135.184 142.681 135.185 142.682 135.186C142.683 135.186 142.685 135.187 142.685 135.187C142.687 135.187 142.688 135.188 143.521 133.187C144.354 131.187 144.355 131.187 144.356 131.188C144.356 131.188 144.358 131.188 144.358 131.189C144.36 131.189 144.361 131.19 144.362 131.19C144.365 131.192 144.367 131.192 144.369 131.193C144.372 131.195 144.374 131.195 144.374 131.196C144.375 131.196 144.369 131.193 144.357 131.188C144.333 131.177 144.287 131.154 144.221 131.119C144.089 131.049 143.884 130.932 143.637 130.761C143.14 130.417 142.496 129.874 141.926 129.088C140.851 127.606 139.819 124.973 141.123 120.462L139.042 119.86ZM143.521 133.187C145.599 133.802 145.599 133.802 145.599 133.802C145.599 133.802 145.599 133.802 145.599 133.802C145.599 133.801 145.599 133.801 145.599 133.801C145.599 133.801 145.599 133.8 145.599 133.8C145.6 133.799 145.6 133.798 145.601 133.796C145.602 133.792 145.603 133.787 145.605 133.78C145.609 133.766 145.615 133.746 145.623 133.72C145.638 133.668 145.66 133.592 145.689 133.494C145.746 133.298 145.828 133.014 145.928 132.661C146.129 131.954 146.406 130.966 146.706 129.843L144.613 129.283L142.52 128.722C142.226 129.819 141.956 130.784 141.76 131.474C141.662 131.819 141.582 132.095 141.527 132.285C141.499 132.379 141.478 132.452 141.464 132.501C141.457 132.525 141.451 132.544 141.448 132.556C141.446 132.562 141.445 132.566 141.444 132.569C141.443 132.571 141.443 132.572 141.443 132.572C141.443 132.573 141.443 132.573 141.443 132.573C141.443 132.573 141.443 132.573 141.443 132.573C141.443 132.573 141.443 132.573 141.443 132.573C141.443 132.573 141.443 132.573 143.521 133.187ZM144.613 129.283L146.706 129.843C147.134 128.246 147.616 126.357 148.001 124.603C148.376 122.898 148.697 121.16 148.742 119.939L146.576 119.86L144.41 119.78C144.382 120.568 144.144 121.96 143.768 123.673C143.402 125.337 142.939 127.156 142.52 128.722L144.613 129.283ZM146.576 119.86L148.742 119.939C148.76 119.433 148.769 119.004 148.754 118.716C148.751 118.641 148.742 118.518 148.721 118.381C148.71 118.315 148.688 118.195 148.644 118.053C148.617 117.965 148.507 117.606 148.201 117.254C148.029 117.057 147.723 116.778 147.253 116.62C146.745 116.449 146.237 116.484 145.815 116.638C145.125 116.889 144.796 117.403 144.741 117.487C144.555 117.767 144.472 118.039 144.46 118.078C144.368 118.362 144.295 118.768 144.241 119.07C144.177 119.437 144.1 119.907 144.015 120.438C143.669 122.59 143.152 125.91 142.499 128.806L144.613 129.283L146.727 129.759C147.416 126.702 147.956 123.234 148.294 121.125C148.38 120.591 148.451 120.153 148.509 119.823C148.579 119.428 148.604 119.348 148.585 119.408C148.577 119.43 148.561 119.479 148.535 119.542C148.514 119.591 148.457 119.725 148.353 119.882C148.304 119.955 147.982 120.461 147.299 120.71C146.88 120.863 146.375 120.897 145.871 120.728C145.404 120.571 145.101 120.294 144.932 120.1C144.631 119.755 144.527 119.407 144.504 119.335C144.465 119.208 144.448 119.109 144.441 119.067C144.433 119.018 144.43 118.982 144.428 118.966C144.427 118.957 144.427 118.95 144.427 118.946C144.426 118.944 144.426 118.943 144.426 118.942C144.426 118.941 144.426 118.941 144.426 118.941C144.426 118.941 144.426 118.941 144.426 118.942C144.426 118.943 144.426 118.944 144.426 118.945C144.427 118.949 144.427 118.953 144.427 118.959C144.427 118.972 144.428 118.989 144.428 119.01C144.428 119.054 144.428 119.112 144.427 119.186C144.425 119.334 144.42 119.53 144.41 119.78L146.576 119.86ZM144.613 129.283L142.499 128.806C142.165 130.29 141.813 131.583 141.457 132.518C141.278 132.989 141.126 133.295 141.017 133.467C140.869 133.7 140.942 133.47 141.335 133.306L142.168 135.306L143.002 137.307C143.86 136.949 144.385 136.248 144.676 135.789C145.006 135.27 145.279 134.663 145.509 134.057C145.973 132.835 146.378 131.31 146.727 129.759L144.613 129.283ZM132.079 152.593L129.912 152.563C129.877 155.023 130.216 157.668 131.266 159.888C132.35 162.18 134.243 164.084 137.17 164.647L137.579 162.519L137.988 160.391C136.701 160.143 135.812 159.363 135.183 158.034C134.521 156.634 134.216 154.721 134.245 152.624L132.079 152.593ZM132.079 152.593L133.044 154.534C137.262 152.436 143.777 149.575 150.541 150.433L150.813 148.284L151.086 146.134C142.92 145.098 135.366 148.538 131.114 150.653L132.079 152.593ZM157.796 166.244L158.354 168.338C158.952 168.178 159.514 167.824 159.854 167.599C160.259 167.33 160.686 167.009 161.067 166.716C161.485 166.395 161.8 166.144 162.131 165.893C162.285 165.776 162.412 165.682 162.516 165.61C162.627 165.532 162.671 165.508 162.666 165.511L161.637 163.604L160.608 161.696C160.237 161.897 159.824 162.203 159.511 162.44C159.185 162.688 158.756 163.026 158.425 163.281C158.057 163.564 157.73 163.807 157.458 163.987C157.121 164.211 157.082 164.192 157.237 164.15L157.796 166.244ZM161.637 163.604L161.913 165.753C163.488 165.551 165.475 165.432 167.137 163.892C168.646 162.493 169.705 160.117 170.953 156.446L168.901 155.748L166.85 155.051C165.56 158.845 164.782 160.165 164.191 160.713C163.753 161.119 163.377 161.195 161.361 161.454L161.637 163.604ZM150.813 148.284L150.541 150.433C156.743 151.22 160.85 157.033 159.52 163.143L161.637 163.604L163.754 164.065C165.626 155.47 159.813 147.241 151.086 146.134L150.813 148.284ZM142.168 135.306L141.522 133.238C140.678 133.502 139.394 134.027 138.093 134.79C136.812 135.543 135.346 136.623 134.32 138.06L136.083 139.32L137.846 140.579C138.374 139.841 139.26 139.131 140.287 138.528C141.296 137.936 142.277 137.543 142.814 137.375L142.168 135.306ZM136.083 139.32L134.32 138.06C133.166 139.675 131.995 142.277 131.158 144.886C130.33 147.472 129.706 150.446 129.921 152.791L132.079 152.593L134.237 152.396C134.103 150.931 134.51 148.628 135.286 146.209C136.053 143.814 137.058 141.683 137.846 140.579L136.083 139.32Z" fill="black"/>
<rect x="59.2538" y="136.386" width="6.72066" height="14.7457" rx="3.35839" fill="white" stroke="black" stroke-width="2.88642"/>
<rect x="67.2789" y="136.386" width="6.72066" height="14.7457" rx="3.35839" fill="white" stroke="black" stroke-width="2.88642"/>
<circle cx="135.796" cy="57.5642" r="20.8009" fill="#970000" stroke="black" stroke-width="3.60803"/>
<circle cx="135.797" cy="57.5643" r="5.53281" fill="white" stroke="black" stroke-width="2.16482"/>
<circle cx="146.277" cy="175.062" r="3.57998" fill="white" stroke="black" stroke-width="2.16482"/>
</svg>
