<svg width="205" height="250" viewBox="0 0 205 250" fill="none" xmlns="http://www.w3.org/2000/svg">
<path d="M36.483 243.191H12.8607V202.849L38.6305 206.07L36.483 243.191Z" fill="#D7B55E"/>
<path d="M76.825 209.291H63.6333L62.4062 241.503H76.825V209.291Z" fill="#D7B55E"/>
<path d="M107.503 220.029L91.5506 217.268C90.5791 220.847 89.2191 230.398 91.5506 239.97C94.4651 251.934 106.123 245.185 106.583 241.503C106.951 238.558 107.35 225.96 107.503 220.029Z" fill="#D7B55E"/>
<path d="M179.652 243.191H203.274V202.849L177.504 206.07L179.652 243.191Z" fill="#D7B55E"/>
<path d="M139.31 209.291H152.502L153.729 241.503H139.31V209.291Z" fill="#D7B55E"/>
<path d="M108.632 220.029L124.584 217.268C125.556 220.847 126.916 230.398 124.584 239.97C121.67 251.934 110.012 245.185 109.552 241.503C109.184 238.558 108.785 225.96 108.632 220.029Z" fill="#D7B55E"/>
<path d="M145.716 70.7293C152.373 71.173 155.023 82.6248 154.222 88.2953L134.458 87.6416H131.478L114.652 86.9865L111.697 86.8887L93.0209 86.9855C92.971 87.0728 92.9101 87.0774 92.8331 86.9865L92.829 86.9861L81.5538 85.8917H77.6706C77.2391 80.2211 78.0779 68.3251 86.3617 69.8045C94.639 71.2827 91.0991 86.8057 92.829 86.9861L92.8331 86.9865L93.0209 86.9855C93.6901 85.8162 92.4041 69.8044 102.04 69.8045C109.146 69.8045 112.312 81.3173 111.697 86.8887L114.652 86.9865C115.638 81.9988 116.908 72.0234 122.973 72.763C129.038 73.5026 131.725 83.0786 131.478 87.6416H134.458C136.3 81.8192 139.06 70.2855 145.716 70.7293Z" fill="white"/>
<path d="M22.8972 100.646C7.07538 99.4595 -0.934927 90.0494 2.59715 73.5658C6.12923 57.0822 24.8604 40.4555 53.4392 67.2153L60.5217 75.7629L76.8619 102.609C80.3193 102.739 84.425 102.897 88.9191 103.074C98.7753 103.463 110.5 103.946 121.354 104.432C125.67 104.626 129.849 104.819 133.718 105.008C142.455 105.434 149.609 105.833 153.196 106.141C166.932 107.318 166.963 114.014 166.963 119.116C166.963 124.218 166.54 130.866 153.196 132.436C149.798 132.835 142.621 133.186 133.718 133.539C129.864 133.692 125.687 133.907 121.354 134.025C107.737 134.396 95.0103 134.319 83.4562 134.025C79.7623 133.931 73.9977 134.028 71.2109 133.833C66.7279 133.52 63.6369 133.065 62.64 132.436C58.8058 130.016 44.6907 114.278 35.2563 103.436C33.6725 101.616 32.2205 99.934 30.9713 98.476C29.0419 100.042 26.3981 100.909 22.8972 100.646Z" fill="#9E9C9C"/>
<path d="M30.9713 98.476C34.5222 95.5934 35.6539 90.3398 35.2563 85.3878C34.7994 79.6966 32.3226 74.4038 29.1769 73.5663C23.281 71.9964 20.019 76.6528 20.3825 79.6617M76.8619 102.609L60.5217 75.7629L53.4392 67.2153C24.8604 40.4555 6.12923 57.0822 2.59715 73.5658C-0.934927 90.0494 7.07538 99.4595 22.8972 100.646C26.3981 100.909 29.0419 100.042 30.9713 98.476M53.4392 67.2153L35.2563 85.3878M76.8619 102.609C80.3193 102.739 84.425 102.897 88.9191 103.074M76.8619 102.609L71.2109 133.833M83.4562 134.025C79.7623 133.931 73.9977 134.028 71.2109 133.833C66.7279 133.52 63.6369 133.065 62.64 132.436C58.8058 130.016 44.6907 114.278 35.2563 103.436C33.6725 101.616 32.2205 99.934 30.9713 98.476M60.5217 75.7629L35.2563 103.436M83.4562 134.025L88.9191 103.074M83.4562 134.025C95.0103 134.319 107.737 134.396 121.354 134.025M121.354 134.025C125.687 133.907 129.864 133.692 133.718 133.539C142.621 133.186 149.798 132.835 153.196 132.436C166.54 130.866 166.963 124.218 166.963 119.116C166.963 114.014 166.932 107.318 153.196 106.141C149.609 105.833 142.455 105.434 133.718 105.008C120.122 104.345 102.695 103.618 88.9191 103.074M121.354 134.025V104.432M133.718 133.539V119.311V105.008" stroke="black" stroke-width="3.54582" stroke-linecap="round" stroke-linejoin="round"/>
<path d="M38.4437 205.746L63.979 208.377L73.4965 209.358C73.4965 209.358 74.7758 209.934 76.8618 210.813C80.1591 212.202 85.4719 214.35 90.9331 216.18C96.3546 217.997 101.923 219.501 105.81 219.64C106.511 219.665 107.245 219.666 108.006 219.646C108.006 219.646 108.006 237.362 108.006 241.723C108.006 246.084 96.5636 253.422 90.9331 241.036M90.9331 241.036V216.18M90.9331 241.036H76.8618M76.8618 210.813V241.036M76.8618 241.036L62.6399 241.586M63.979 208.377L62.6399 241.586M38.4437 205.746L12.9083 203.116V243.508L36.5465 242.594L62.6399 241.586M38.4437 205.746L36.5465 242.594" stroke="black" stroke-width="3.54582" stroke-linecap="round" stroke-linejoin="round"/>
<path d="M177.691 205.746L152.156 208.377L142.638 209.358C142.638 209.358 141.359 209.934 139.273 210.813C135.976 212.202 130.663 214.35 125.202 216.18C119.78 217.997 114.212 219.501 110.325 219.64C109.624 219.665 108.89 219.666 108.129 219.646C108.129 219.646 108.129 237.362 108.129 241.723C108.129 246.084 119.571 253.422 125.202 241.036M125.202 241.036V216.18M125.202 241.036H139.273M139.273 210.813V241.036M139.273 241.036L153.495 241.586M152.156 208.377L153.495 241.586M177.691 205.746L203.227 203.116V243.508L179.588 242.594L153.495 241.586M177.691 205.746L179.588 242.594" stroke="black" stroke-width="3.54582" stroke-linecap="round" stroke-linejoin="round"/>
<path d="M77.7484 103.341L155.513 104.634C155.513 98.3414 155.513 90.0353 155.513 84.863C155.513 78.3976 152.652 71.1708 143.601 71.1708C136.36 71.1708 132.018 85.556 132.018 104.264C132.018 77.9576 129.726 69.204 121.821 69.204C115.821 69.204 113.475 84.5628 113.406 98.8907C113.406 84.9254 114.398 69.204 103.056 69.204C91.7135 69.204 91.7136 72.566 91.7136 103.579C93.3515 105.993 91.7136 72.566 91.7136 72.566C91.7136 72.566 79.251 60.7758 75.5384 78.5956" stroke="black" stroke-width="4.72776"/>
<path d="M21.3711 0.412295C24.1079 15.8685 40.0261 33.0925 54.4307 41.7661C79.0736 56.6045 76.2936 90.0136 77.7494 104.635C68.4299 84.8631 62.4948 73.3961 40.8934 57.2034C34.9592 52.755 26.4355 38.0054 24.1079 34.2124C18.7287 28.0056 20.4228 10.6707 21.3711 0.412295Z" fill="white" stroke="black" stroke-width="4.72776"/>
<path d="M105.992 111.199C108.916 111.199 111.286 113.569 111.286 116.493C111.286 119.416 108.916 121.786 105.992 121.786C103.069 121.786 100.699 119.416 100.699 116.493C100.699 113.57 103.069 111.199 105.992 111.199Z" fill="white" stroke="black" stroke-width="2.36388"/>
<path d="M155.702 104.753L79.5202 103.556L78.2257 86.4476L155.702 89.6677L155.702 104.753Z" fill="#970000" stroke="black" stroke-width="1.18194"/>
<circle cx="106.6" cy="170.159" r="49.6841" fill="#D9D9D9" stroke="black" stroke-width="4.72776"/>
<circle cx="148.29" cy="118.111" r="5.29371" fill="white" stroke="black" stroke-width="2.36388"/>
<circle cx="56.9987" cy="103.542" r="5.29371" fill="white" stroke="black" stroke-width="2.36388"/>
<circle cx="83.6279" cy="147.182" r="4.86565" fill="#D9D9D9" stroke="black" stroke-width="2.36388"/>
<circle cx="132.01" cy="149.432" r="4.86565" fill="#D9D9D9" stroke="black" stroke-width="2.36388"/>
<circle cx="132.489" cy="196.222" r="4.86565" fill="#D9D9D9" stroke="black" stroke-width="2.36388"/>
<path d="M102.343 120.716V155.48" stroke="black" stroke-width="3.54582"/>
<path d="M56.9987 174.715L85.8825 174.715" stroke="black" stroke-width="3.54582"/>
<path d="M126.441 174.715L154.766 174.715" stroke="black" stroke-width="3.54582"/>
<path d="M103.481 175.866V219.384" stroke="black" stroke-width="3.54582"/>
<path d="M112.468 120.716V155.48" stroke="black" stroke-width="3.54582"/>
<path d="M55.6965 166.985L87.9312 166.985" stroke="black" stroke-width="3.54582"/>
<path d="M123.895 165.257L156.793 165.55" stroke="black" stroke-width="3.54582"/>
<path d="M113.953 176.151V219.668" stroke="black" stroke-width="3.54582"/>
<mask id="path-26-inside-1_9_246" fill="white">
<path d="M107.022 153.229C119.534 153.229 129.677 163.372 129.677 175.884C129.677 177.325 129.539 178.734 129.282 180.101H84.7618C84.5045 178.734 84.3681 177.325 84.3681 175.884C84.3681 163.372 94.5109 153.229 107.022 153.229ZM107.022 165.967C104.393 165.968 101.871 167.012 100.011 168.872C98.152 170.731 97.1074 173.253 97.1073 175.883H116.938C116.938 173.253 115.894 170.731 114.034 168.872C112.175 167.012 109.652 165.967 107.022 165.967Z"/>
</mask>
<path d="M107.022 153.229C119.534 153.229 129.677 163.372 129.677 175.884C129.677 177.325 129.539 178.734 129.282 180.101H84.7618C84.5045 178.734 84.3681 177.325 84.3681 175.884C84.3681 163.372 94.5109 153.229 107.022 153.229ZM107.022 165.967C104.393 165.968 101.871 167.012 100.011 168.872C98.152 170.731 97.1074 173.253 97.1073 175.883H116.938C116.938 173.253 115.894 170.731 114.034 168.872C112.175 167.012 109.652 165.967 107.022 165.967Z" fill="white"/>
<path d="M107.022 153.229L107.022 149.682H107.022V153.229ZM129.677 175.884L133.224 175.884V175.884H129.677ZM129.282 180.101V183.648H132.223L132.768 180.757L129.282 180.101ZM84.7618 180.101L81.2761 180.757L81.8204 183.648H84.7618V180.101ZM84.3681 175.884H80.8212V175.884L84.3681 175.884ZM107.022 165.967V162.421H107.022L107.022 165.967ZM100.011 168.872L97.5035 166.364L97.5035 166.364L100.011 168.872ZM97.1073 175.883L93.5604 175.882L93.5602 179.429H97.1073V175.883ZM116.938 175.883V179.429H120.486L120.485 175.882L116.938 175.883ZM114.034 168.872L116.542 166.364L116.542 166.364L114.034 168.872ZM107.022 153.229L107.022 156.776C117.575 156.776 126.13 165.331 126.13 175.884H129.677H133.224C133.224 161.413 121.493 149.682 107.022 149.682L107.022 153.229ZM129.677 175.884L126.13 175.883C126.13 177.099 126.014 178.289 125.796 179.444L129.282 180.101L132.768 180.757C133.065 179.18 133.224 177.551 133.224 175.884L129.677 175.884ZM129.282 180.101V176.554H84.7618V180.101V183.648H129.282V180.101ZM84.7618 180.101L88.2474 179.444C88.0301 178.29 87.915 177.1 87.915 175.883L84.3681 175.884L80.8212 175.884C80.8212 177.549 80.9788 179.178 81.2761 180.757L84.7618 180.101ZM84.3681 175.884H87.915C87.915 165.331 96.4698 156.776 107.022 156.776V153.229V149.682C92.552 149.682 80.8212 161.413 80.8212 175.884H84.3681ZM107.022 165.967L107.022 162.421C103.452 162.421 100.028 163.839 97.5035 166.364L100.011 168.872L102.52 171.38C103.714 170.185 105.334 169.514 107.023 169.514L107.022 165.967ZM100.011 168.872L97.5035 166.364C94.9789 168.888 93.5606 172.312 93.5604 175.882L97.1073 175.883L100.654 175.883C100.654 174.194 101.325 172.574 102.52 171.38L100.011 168.872ZM97.1073 175.883V179.429H116.938V175.883V172.336H97.1073V175.883ZM116.938 175.883L120.485 175.882C120.485 172.312 119.067 168.888 116.542 166.364L114.034 168.872L111.526 171.38C112.721 172.574 113.392 174.194 113.392 175.883L116.938 175.883ZM114.034 168.872L116.542 166.364C114.017 163.839 110.593 162.421 107.022 162.421V165.967V169.514C108.712 169.514 110.332 170.185 111.526 171.38L114.034 168.872Z" fill="black" mask="url(#path-26-inside-1_9_246)"/>
<circle cx="83.6279" cy="192.693" r="4.86565" fill="#D9D9D9" stroke="black" stroke-width="2.36388"/>
</svg>
