<svg width="199" height="174" viewBox="0 0 199 174" fill="none" xmlns="http://www.w3.org/2000/svg">
<path d="M171.658 106.514L194.885 167.26C184.462 157.136 149.92 161.603 134.138 165.176C121.512 168.035 99.1986 161.305 92.1512 156.54C93.7394 151.776 103.05 141.175 107.338 138.078C111.626 134.981 117.165 134.208 123.12 134.208C121.631 126.763 108.025 123.149 103.765 124.678C92.1512 128.847 84.012 139.666 75.7735 148.203L46.9161 122.618C49.6197 125.009 57.1621 129.861 65.9468 130.336C76.9646 130.932 86.7912 119.616 92.1512 113.958C96.4392 109.432 92.052 96.3894 89.4712 90.7316C93.9379 91.0294 102.335 93.2329 107.338 92.5183C113.591 91.6249 117.165 85.0738 121.036 75.5449C124.133 67.9218 115.973 62.939 112.102 60.656L127.587 41.8965C129.77 45.6684 136.763 48.1319 144.858 56.7849C153.493 66.016 166.993 92.419 171.658 106.514Z" fill="white" stroke="black"/>
<path d="M101.68 124.976C97.1539 124.976 82.9201 140.262 76.369 147.905L92.1512 159.816C95.3275 154.258 102.216 142.426 104.36 139.568C106.504 136.709 119.15 135.002 125.205 134.505C117.76 121.106 107.338 124.977 101.68 124.976Z" fill="#D7B55E" stroke="black"/>
<path d="M59.9912 83.2876C43.7504 88.5794 43.726 106.749 44.1822 116.862L24.1092 76.2595C28.8994 70.3289 40.3501 58.0115 47.8319 56.1867C57.1841 53.9057 76.5728 62.5736 87.5217 63.486C96.2809 64.2159 109.268 61.8134 114.666 60.5209C122.421 66.2234 119.684 86.2965 111.929 90.4021C105.724 93.6866 94.897 91.7706 90.259 90.4021C90.259 90.4021 76.2321 77.9957 59.9912 83.2876Z" fill="#636363" stroke="black"/>
<path d="M14.757 53.6775C8.91754 41.6338 4.11222 15.6604 2.43948 4.17921C11.1834 4.17921 33.1877 4.45291 51.2534 5.54774C69.3192 6.64257 108.659 30.3349 126.071 42.0442C121.509 48.1269 110.514 61.0223 103.033 63.942C93.6805 67.5916 57.8684 56.6427 45.779 56.6427C36.1074 56.6427 27.9109 69.4165 25.0216 75.8033C24.0332 73.4463 20.5964 65.7212 14.757 53.6775Z" fill="#970000"/>
<path d="M128.124 78.5406C130.861 76.5333 141.734 66.4511 146.828 61.661L158.234 78.5406C155.496 81.734 147.604 89.4895 137.932 94.964C125.843 101.807 124.702 81.0497 128.124 78.5406Z" fill="#970000"/>
<path d="M171.692 106.369L163.708 84.4712C160.591 86.068 152.349 91.4968 144.319 100.438C134.283 111.615 154.584 114.125 158.234 112.756C161.153 111.661 168.422 108.042 171.692 106.369Z" fill="#970000"/>
<path d="M38.1582 107.915C49.1042 125.661 62.0515 139.18 75.0838 148.578C80.849 152.736 86.6308 156.087 92.2633 158.641C105.257 164.532 133.451 167.036 142.819 164.556C164.696 158.765 180.152 158.641 194.384 167.928C188.486 149.965 176.041 117.647 172.181 106.065C170.982 102.47 167.602 90.5875 163.661 84.2828M142.819 164.556C145.266 162.4 149.193 157.546 145.328 155.379M30.0186 93.1299C27.5303 88.0447 25.2044 82.6834 23.0726 77.0443C3.12647 24.2837 1.35707 6.26769 2.96564 3.85479C32.5964 -2.06024 77.9244 12.702 104.305 25.5705C112.085 29.366 119.687 34.684 126.824 40.7849C134.052 46.9627 140.803 53.9433 146.782 60.9587M126.824 40.7849C124.412 44.8286 117.656 54.5245 109.935 60.9587C105.729 64.4638 97.5509 64.6083 88.1977 63.456C76.0888 61.9641 62.0096 58.2986 52.0266 56.9373C37.8713 55.0071 26.8259 69.5377 23.0726 77.0443M172.181 106.065C172.181 106.065 164.513 110.016 159.201 112.59C152.561 115.807 141.314 109.815 142.819 104.39C145.328 95.346 155.831 89.1085 163.661 84.2828M109.935 60.9587C111.379 59.6183 115.332 59.3502 119.586 69.0015C124.903 81.0657 113.956 93.1299 104.305 93.1299C94.6533 93.1299 76.9592 84.2828 63.2865 84.2828C52.3483 84.2828 41.9767 100.038 38.1582 107.915M146.782 60.9587C140.129 66.8568 124.796 79.7788 124.796 84.2828C124.796 89.9127 129.303 100.939 140.497 93.1299C149.088 87.137 156.184 79.4571 159.201 77.0443M146.782 60.9587C151.436 66.4203 155.623 71.9029 159.201 77.0443M159.201 77.0443C160.947 79.5524 162.221 81.9792 163.661 84.2828M38.1582 107.915C35.2968 103.276 32.5722 98.3485 30.0186 93.1299M88.1977 63.456C87.5986 70.6663 96.7872 84.2828 102.567 73.0062C102.567 81.4936 86.7237 80.5981 75.0838 77.0443C69.479 75.3331 59.2826 72.0449 52.0266 73.0062C40.4467 74.5404 32.1298 82.6423 30.0186 93.1299M92.2633 158.641C93.5413 155.872 96.8816 149.774 101.336 144.277C102.279 143.114 103.271 141.977 104.305 140.905C106.924 138.188 110.383 136.742 113.805 136.055C118.114 135.19 122.363 135.531 124.796 136.055C122.767 126.355 112.267 124.335 104.305 124.335C97.9352 124.335 82.1702 140.497 75.0838 148.578M101.336 144.277C108.155 149.065 119.7 157.332 134.663 157.332C141.371 157.332 144.49 156.518 145.328 155.379M113.805 136.055L140.497 150.605C143.937 152.083 146.36 153.978 145.328 155.379" stroke="black" stroke-width="5"/>
<circle cx="69.2502" cy="105.561" r="27.5658" fill="white"/>
<path d="M69.2503 133.127C84.4745 133.127 96.8161 120.786 96.8161 105.561C96.8161 90.3372 84.4745 77.9956 69.2503 77.9956V133.127Z" fill="#970000"/>
<circle cx="69.2502" cy="105.561" r="24.5658" stroke="black" stroke-width="6"/>
<circle cx="69.2502" cy="105.561" r="9.88466" fill="white" stroke="black" stroke-width="4"/>
<circle cx="69.2502" cy="105.562" r="4.12916" fill="black"/>
</svg>
